  0
SECTION
  2
HEADER
  9
$ACADVER
  1
AC1009
  9
$INSBASE
 10
0.0
 20
0.0
 30
0.0
  9
$EXTMIN
 10
0.0
 20
0.0
 30
0.0
  9
$EXTMAX
 10
100.0
 20
100.0
 30
0.0
  9
$UNITMODE
 70
0
  9
$AUNITS
 70
0
  9
$ANGBASE
 50
0.0
  9
$ANGDIR
 70
0
  0
ENDSEC
  0
SECTION
  2
TABLES
  0
TABLE
  2
LTYPE
 70
20
  0
LTYPE
  2
CONTINUOUS
 70
0
  3
Solid
 72
65
 73
0
 40
0.0
  0
LTYPE
  2
CENTER
 70
0
  3
Center ____ _ ____ _ ____ _ ____ _ ____ _ ____
 72
65
 73
4
 40
2.0
 49
1.25
 49
-0.25
 49
0.25
 49
-0.25
  0
LTYPE
  2
CENTERX2
 70
0
  3
Center (2x) ________  __  ________  __  ________
 72
65
 73
4
 40
3.5
 49
2.5
 49
-0.25
 49
0.5
 49
-0.25
  0
LTYPE
  2
CENTER2
 70
0
  3
Center (.5x) ____ _ ____ _ ____ _ ____ _ ____
 72
65
 73
4
 40
1.0
 49
0.625
 49
-0.125
 49
0.125
 49
-0.125
  0
LTYPE
  2
DASHED
 70
0
  3
Dashed __ __ __ __ __ __ __ __ __ __ __ __ __ _
 72
65
 73
2
 40
0.6
 49
0.5
 49
-0.1
  0
LTYPE
  2
DASHEDX2
 70
0
  3
Dashed (2x) ____  ____  ____  ____  ____  ____
 72
65
 73
2
 40
1.2
 49
1.0
 49
-0.2
  0
LTYPE
  2
DASHED2
 70
0
  3
Dashed (.5x) _ _ _ _ _ _ _ _ _ _ _ _ _ _
 72
65
 73
2
 40
0.3
 49
0.25
 49
-0.05
  0
LTYPE
  2
PHANTOM
 70
0
  3
Phantom ______  __  __  ______  __  __  ______
 72
65
 73
6
 40
2.5
 49
1.25
 49
-0.25
 49
0.25
 49
-0.25
 49
0.25
 49
-0.25
  0
LTYPE
  2
PHANTOMX2
 70
0
  3
Phantom (2x)____________    ____    ____    ____________
 72
65
 73
6
 40
4.25
 49
2.5
 49
-0.25
 49
0.5
 49
-0.25
 49
0.5
 49
-0.25
  0
LTYPE
  2
PHANTOM2
 70
0
  3
Phantom (.5x) ___ _ _ ___ _ _ ___ _ _ ___ _ _ ___
 72
65
 73
6
 40
1.25
 49
0.625
 49
-0.125
 49
0.125
 49
-0.125
 49
0.125
 49
-0.125
  0
LTYPE
  2
DASHDOT
 70
0
  3
Dash dot __ . __ . __ . __ . __ . __ . __ . __
 72
65
 73
4
 40
1.4
 49
1.0
 49
-0.2
 49
0.0
 49
-0.2
  0
LTYPE
  2
DASHDOTX2
 70
0
  3
Dash dot (2x) ____  .  ____  .  ____  .  ____
 72
65
 73
4
 40
2.4
 49
2.0
 49
-0.2
 49
0.0
 49
-0.2
  0
LTYPE
  2
DASHDOT2
 70
0
  3
Dash dot (.5x) _ . _ . _ . _ . _ . _ . _ . _
 72
65
 73
4
 40
0.7
 49
0.5
 49
-0.1
 49
0.0
 49
-0.1
  0
LTYPE
  2
DOT
 70
0
  3
Dot .  .  .  .  .  .  .  .  .  .  .  .  .  .  .  .
 72
65
 73
2
 40
0.2
 49
0.0
 49
-0.2
  0
LTYPE
  2
DOTX2
 70
0
  3
Dot (2x) .    .    .    .    .    .    .    . 
 72
65
 73
2
 40
0.4
 49
0.0
 49
-0.4
  0
LTYPE
  2
DOT2
 70
0
  3
Dot (.5) . . . . . . . . . . . . . . . . . . . 
 72
65
 73
2
 40
0.1
 49
0.0
 49
-0.1
  0
LTYPE
  2
DIVIDE
 70
0
  3
Divide __ . . __ . . __ . . __ . . __ . . __
 72
65
 73
6
 40
1.6
 49
1.0
 49
-0.2
 49
0.0
 49
-0.2
 49
0.0
 49
-0.2
  0
LTYPE
  2
DIVIDEX2
 70
0
  3
Divide (2x) ____  . .  ____  . .  ____  . .  ____
 72
65
 73
6
 40
2.6
 49
2.0
 49
-0.2
 49
0.0
 49
-0.2
 49
0.0
 49
-0.2
  0
LTYPE
  2
DIVIDE2
 70
0
  3
Divide(.5x) _ . _ . _ . _ . _ . _ . _ . _
 72
65
 73
6
 40
0.8
 49
0.5
 49
-0.1
 49
0.0
 49
-0.1
 49
0.0
 49
-0.1
  0
LTYPE
  2
DOTTED
 70
0
  3

 72
65
 73
2
 40
1.0
 49
0.0
 49
-1.0
  0
ENDTAB
  0
TABLE
  2
LAYER
 70
5
  0
LAYER
  2
DIMENSIONS
 70
0
 62
1
  6
CONTINUOUS
  0
LAYER
  2
TABLEBACKGROUND
 70
0
 62
1
  6
CONTINUOUS
  0
LAYER
  2
TABLECONTENT
 70
0
 62
1
  6
CONTINUOUS
  0
LAYER
  2
TABLEGRID
 70
0
 62
1
  6
CONTINUOUS
  0
LAYER
  2
VIEWPORTS
 70
0
 62
7
  6
CONTINUOUS
  0
ENDTAB
  0
TABLE
  2
STYLE
 70
12
  0
STYLE
  2
STANDARD
 70
0
 40
0.0
 41
1.0
 42
1.0
 50
0.0
 71
0
  3
arial.ttf
  4

  0
STYLE
  2
ARIAL
 70
0
 40
0.0
 41
1.0
 42
1.0
 50
0.0
 71
0
  3
arial.ttf
  4

  0
STYLE
  2
ARIAL_BOLD
 70
0
 40
0.0
 41
1.0
 42
1.0
 50
0.0
 71
0
  3
arialbd.ttf
  4

  0
STYLE
  2
ARIAL_ITALIC
 70
0
 40
0.0
 41
1.0
 42
1.0
 50
0.0
 71
0
  3
ariali.ttf
  4

  0
STYLE
  2
ARIAL_BOLD_ITALIC
 70
0
 40
0.0
 41
1.0
 42
1.0
 50
0.0
 71
0
  3
arialbi.ttf
  4

  0
STYLE
  2
ARIAL_BLACK
 70
0
 40
0.0
 41
1.0
 42
1.0
 50
0.0
 71
0
  3
ariblk.ttf
  4

  0
STYLE
  2
ISOCPEUR
 70
0
 40
0.0
 41
1.0
 42
1.0
 50
0.0
 71
0
  3
isocpeur.ttf
  4

  0
STYLE
  2
ISOCPEUR_ITALIC
 70
0
 40
0.0
 41
1.0
 42
1.0
 50
0.0
 71
0
  3
isocpeui.ttf
  4

  0
STYLE
  2
TIMES
 70
0
 40
0.0
 41
1.0
 42
1.0
 50
0.0
 71
0
  3
times.ttf
  4

  0
STYLE
  2
TIMES_BOLD
 70
0
 40
0.0
 41
1.0
 42
1.0
 50
0.0
 71
0
  3
timesbd.ttf
  4

  0
STYLE
  2
TIMES_ITALIC
 70
0
 40
0.0
 41
1.0
 42
1.0
 50
0.0
 71
0
  3
timesi.ttf
  4

  0
STYLE
  2
TIMES_BOLD_ITALIC
 70
0
 40
0.0
 41
1.0
 42
1.0
 50
0.0
 71
0
  3
timesbi.ttf
  4

  0
ENDTAB
  0
TABLE
  2
VIEW
 70
0
  0
ENDTAB
  0
TABLE
  2
APPID
 70
1
  0
APPID
  2
DXFWRITE
 70
0
  0
ENDTAB
  0
TABLE
  2
VPORT
 70
0
  0
ENDTAB
  0
TABLE
  2
UCS
 70
0
  0
ENDTAB
  0
ENDSEC
  0
SECTION
  2
BLOCKS
  0
ENDSEC
  0
SECTION
  2
ENTITIES
  0
VIEWPORT
  8
VIEWPORTS
 67
1
 10
0.0
 20
0.0
 30
0.0
 40
1.0
 41
1.0
 68
1
 69
1
1001
ACAD
1000
MVIEW
1002
{
1070
16
1010
0.0
1020
0.0
1030
0.0
1010
0.0
1020
0.0
1030
0.0
1040
0.0
1040
1.0
1040
0.0
1040
0.0
1040
50.0
1040
0.0
1040
0.0
1070
0
1070
100
1070
1
1070
3
1070
0
1070
0
1070
0
1070
0
1040
0.0
1040
0.0
1040
0.0
1040
0.1
1040
0.1
1040
0.1
1040
0.1
1070
0
1002
{
1002
}
1002
}
  0
LINE
  6
DOTTED
 62
1
  8
0
 10
179.00000000000003
 20
76.00000000000001
 30
0.0
 11
202.00000000000003
 21
76.00000000000001
 31
0.0
  0
LINE
 62
5
  8
0
 10
202.00000000000003
 20
136.0
 30
0.0
 11
202.00000000000003
 21
76.00000000000001
 31
0.0
  0
LINE
  6
DOTTED
 62
1
  8
0
 10
202.00000000000003
 20
136.0
 30
0.0
 11
179.00000000000003
 21
136.0
 31
0.0
  0
LINE
 62
5
  8
0
 10
179.00000000000003
 20
76.00000000000001
 30
0.0
 11
179.00000000000003
 21
136.0
 31
0.0
  0
LINE
 62
5
  8
0
 10
179.00000000000003
 20
66.0
 30
0.0
 11
179.00000000000003
 21
76.00000000000001
 31
0.0
  0
LINE
 62
5
  8
0
 10
202.00000000000003
 20
66.0
 30
0.0
 11
179.00000000000003
 21
66.0
 31
0.0
  0
LINE
 62
5
  8
0
 10
202.00000000000003
 20
76.00000000000001
 30
0.0
 11
202.00000000000003
 21
66.0
 31
0.0
  0
LINE
 62
5
  8
0
 10
179.00000000000003
 20
136.0
 30
0.0
 11
166.0
 21
136.0
 31
0.0
  0
LINE
 62
5
  8
0
 10
202.00000000000003
 20
136.0
 30
0.0
 11
202.00000000000003
 21
136.0
 31
0.0
  0
LINE
 62
5
  8
0
 10
166.0
 20
136.0
 30
0.0
 11
166.0
 21
136.0
 31
0.0
  0
LINE
 62
5
  8
0
 10
202.00000000000003
 20
201.00000000000003
 30
0.0
 11
202.00000000000003
 21
136.0
 31
0.0
  0
LINE
 62
5
  8
0
 10
166.0
 20
201.00000000000003
 30
0.0
 11
202.00000000000003
 21
201.00000000000003
 31
0.0
  0
LINE
  6
DOTTED
 62
1
  8
0
 10
166.0
 20
136.0
 30
0.0
 11
166.0
 21
201.00000000000003
 31
0.0
  0
LINE
 62
5
  8
0
 10
166.0
 20
136.0
 30
0.0
 11
106.00000000000001
 21
136.0
 31
0.0
  0
LINE
  6
DOTTED
 62
1
  8
0
 10
106.00000000000001
 20
136.0
 30
0.0
 11
106.00000000000001
 21
201.00000000000003
 31
0.0
  0
LINE
  6
DOTTED
 62
1
  8
0
 10
106.00000000000001
 20
266.00000000000006
 30
0.0
 11
106.00000000000001
 21
201.00000000000003
 31
0.0
  0
LINE
  6
DOTTED
 62
1
  8
0
 10
166.0
 20
266.00000000000006
 30
0.0
 11
166.0
 21
201.00000000000003
 31
0.0
  0
LINE
  6
DOTTED
 62
1
  8
0
 10
147.00000000000003
 20
266.00000000000006
 30
0.0
 11
166.0
 21
266.00000000000006
 31
0.0
  0
LINE
 62
5
  8
0
 10
106.00000000000001
 20
266.00000000000006
 30
0.0
 11
147.00000000000003
 21
266.00000000000006
 31
0.0
  0
LINE
 62
5
  8
0
 10
106.00000000000001
 20
266.00000000000006
 30
0.0
 11
106.00000000000001
 21
266.00000000000006
 31
0.0
  0
LINE
 62
5
  8
0
 10
166.0
 20
266.00000000000006
 30
0.0
 11
166.0
 21
266.00000000000006
 31
0.0
  0
LINE
 62
5
  8
0
 10
147.00000000000003
 20
307.00000000000006
 30
0.0
 11
166.0
 21
307.00000000000006
 31
0.0
  0
LINE
  6
DOTTED
 62
3
  8
0
 10
147.00000000000003
 20
307.00000000000006
 30
0.0
 11
147.00000000000003
 21
266.00000000000006
 31
0.0
  0
LINE
  6
DOTTED
 62
3
  8
0
 10
166.0
 20
307.00000000000006
 30
0.0
 11
166.0
 21
266.00000000000006
 31
0.0
  0
LINE
 62
5
  8
0
 10
134.00000000000003
 20
307.00000000000006
 30
0.0
 11
147.00000000000003
 21
307.00000000000006
 31
0.0
  0
LINE
  6
DOTTED
 62
3
  8
0
 10
134.00000000000003
 20
307.00000000000006
 30
0.0
 11
134.00000000000003
 21
266.00000000000006
 31
0.0
  0
LINE
 62
5
  8
0
 10
147.00000000000003
 20
266.00000000000006
 30
0.0
 11
134.00000000000003
 21
266.00000000000006
 31
0.0
  0
LINE
 62
5
  8
0
 10
115.00000000000001
 20
307.00000000000006
 30
0.0
 11
134.00000000000003
 21
307.00000000000006
 31
0.0
  0
LINE
 62
5
  8
0
 10
115.00000000000001
 20
266.00000000000006
 30
0.0
 11
115.00000000000001
 21
307.00000000000006
 31
0.0
  0
LINE
 62
5
  8
0
 10
134.00000000000003
 20
266.00000000000006
 30
0.0
 11
115.00000000000001
 21
266.00000000000006
 31
0.0
  0
LINE
  6
DOTTED
 62
3
  8
0
 10
166.0
 20
307.00000000000006
 30
0.0
 11
179.00000000000003
 21
307.00000000000006
 31
0.0
  0
LINE
 62
5
  8
0
 10
179.00000000000003
 20
266.00000000000006
 30
0.0
 11
166.0
 21
266.00000000000006
 31
0.0
  0
LINE
  6
DOTTED
 62
3
  8
0
 10
179.00000000000003
 20
266.00000000000006
 30
0.0
 11
179.00000000000003
 21
307.00000000000006
 31
0.0
  0
LINE
 62
5
  8
0
 10
202.00000000000003
 20
307.00000000000006
 30
0.0
 11
179.00000000000003
 21
307.00000000000006
 31
0.0
  0
LINE
 62
5
  8
0
 10
202.00000000000003
 20
307.00000000000006
 30
0.0
 11
202.00000000000003
 21
307.00000000000006
 31
0.0
  0
LINE
 62
5
  8
0
 10
166.0
 20
307.00000000000006
 30
0.0
 11
166.0
 21
307.00000000000006
 31
0.0
  0
LINE
  6
DOTTED
 62
1
  8
0
 10
202.00000000000003
 20
307.00000000000006
 30
0.0
 11
202.00000000000003
 21
367.00000000000006
 31
0.0
  0
LINE
  6
DOTTED
 62
1
  8
0
 10
166.0
 20
307.00000000000006
 30
0.0
 11
166.0
 21
367.00000000000006
 31
0.0
  0
LINE
 62
5
  8
0
 10
226.00000000000003
 20
307.00000000000006
 30
0.0
 11
202.00000000000003
 21
307.00000000000006
 31
0.0
  0
LINE
  6
DOTTED
 62
1
  8
0
 10
226.00000000000003
 20
307.00000000000006
 30
0.0
 11
226.00000000000003
 21
367.00000000000006
 31
0.0
  0
LINE
 62
5
  8
0
 10
202.00000000000003
 20
367.00000000000006
 30
0.0
 11
226.00000000000003
 21
367.00000000000006
 31
0.0
  0
LINE
 62
5
  8
0
 10
262.0
 20
307.00000000000006
 30
0.0
 11
226.00000000000003
 21
307.00000000000006
 31
0.0
  0
LINE
 62
5
  8
0
 10
262.0
 20
367.00000000000006
 30
0.0
 11
262.0
 21
307.00000000000006
 31
0.0
  0
LINE
 62
5
  8
0
 10
226.00000000000003
 20
367.00000000000006
 30
0.0
 11
262.0
 21
367.00000000000006
 31
0.0
  0
LINE
 62
5
  8
0
 10
179.00000000000003
 20
367.00000000000006
 30
0.0
 11
202.00000000000003
 21
367.00000000000006
 31
0.0
  0
LINE
  6
DOTTED
 62
3
  8
0
 10
179.00000000000003
 20
367.00000000000006
 30
0.0
 11
166.0
 21
367.00000000000006
 31
0.0
  0
LINE
 62
5
  8
0
 10
166.0
 20
367.00000000000006
 30
0.0
 11
166.0
 21
367.00000000000006
 31
0.0
  0
LINE
 62
5
  8
0
 10
202.00000000000003
 20
367.00000000000006
 30
0.0
 11
202.00000000000003
 21
367.00000000000006
 31
0.0
  0
LINE
 62
5
  8
0
 10
166.0
 20
408.00000000000006
 30
0.0
 11
179.00000000000003
 21
408.00000000000006
 31
0.0
  0
LINE
  6
DOTTED
 62
3
  8
0
 10
166.0
 20
408.00000000000006
 30
0.0
 11
166.0
 21
367.00000000000006
 31
0.0
  0
LINE
  6
DOTTED
 62
3
  8
0
 10
179.00000000000003
 20
367.00000000000006
 30
0.0
 11
179.00000000000003
 21
408.00000000000006
 31
0.0
  0
LINE
 62
5
  8
0
 10
147.00000000000003
 20
408.00000000000006
 30
0.0
 11
166.0
 21
408.00000000000006
 31
0.0
  0
LINE
  6
DOTTED
 62
3
  8
0
 10
147.00000000000003
 20
408.00000000000006
 30
0.0
 11
147.00000000000003
 21
367.00000000000006
 31
0.0
  0
LINE
 62
5
  8
0
 10
166.0
 20
367.00000000000006
 30
0.0
 11
147.00000000000003
 21
367.00000000000006
 31
0.0
  0
LINE
  6
DOTTED
 62
1
  8
0
 10
147.00000000000003
 20
408.00000000000006
 30
0.0
 11
134.00000000000003
 21
408.00000000000006
 31
0.0
  0
LINE
  6
DOTTED
 62
3
  8
0
 10
134.00000000000003
 20
408.00000000000006
 30
0.0
 11
134.00000000000003
 21
367.00000000000006
 31
0.0
  0
LINE
 62
5
  8
0
 10
147.00000000000003
 20
367.00000000000006
 30
0.0
 11
134.00000000000003
 21
367.00000000000006
 31
0.0
  0
LINE
  6
DOTTED
 62
1
  8
0
 10
147.00000000000003
 20
408.00000000000006
 30
0.0
 11
147.00000000000003
 21
430.00000000000006
 31
0.0
  0
LINE
  6
DOTTED
 62
1
  8
0
 10
147.00000000000003
 20
430.00000000000006
 30
0.0
 11
134.00000000000003
 21
430.00000000000006
 31
0.0
  0
LINE
  6
DOTTED
 62
1
  8
0
 10
134.00000000000003
 20
408.00000000000006
 30
0.0
 11
134.00000000000003
 21
430.00000000000006
 31
0.0
  0
LINE
 62
5
  8
0
 10
160.00000000000003
 20
408.00000000000006
 30
0.0
 11
147.00000000000003
 21
408.00000000000006
 31
0.0
  0
LINE
  6
DOTTED
 62
1
  8
0
 10
160.00000000000003
 20
408.00000000000006
 30
0.0
 11
160.00000000000003
 21
430.00000000000006
 31
0.0
  0
LINE
 62
5
  8
0
 10
147.00000000000003
 20
430.00000000000006
 30
0.0
 11
160.00000000000003
 21
430.00000000000006
 31
0.0
  0
LINE
 62
5
  8
0
 10
173.0
 20
408.00000000000006
 30
0.0
 11
160.00000000000003
 21
408.00000000000006
 31
0.0
  0
LINE
 62
5
  8
0
 10
173.0
 20
430.00000000000006
 30
0.0
 11
173.0
 21
408.00000000000006
 31
0.0
  0
LINE
 62
5
  8
0
 10
160.00000000000003
 20
430.00000000000006
 30
0.0
 11
173.0
 21
430.00000000000006
 31
0.0
  0
LINE
 62
5
  8
0
 10
147.00000000000003
 20
440.00000000000006
 30
0.0
 11
147.00000000000003
 21
430.00000000000006
 31
0.0
  0
LINE
 62
5
  8
0
 10
134.00000000000003
 20
440.00000000000006
 30
0.0
 11
147.00000000000003
 21
440.00000000000006
 31
0.0
  0
LINE
 62
5
  8
0
 10
134.00000000000003
 20
430.00000000000006
 30
0.0
 11
134.00000000000003
 21
440.00000000000006
 31
0.0
  0
LINE
 62
5
  8
0
 10
134.00000000000003
 20
408.00000000000006
 30
0.0
 11
121.00000000000001
 21
408.00000000000006
 31
0.0
  0
LINE
 62
5
  8
0
 10
121.00000000000001
 20
430.00000000000006
 30
0.0
 11
134.00000000000003
 21
430.00000000000006
 31
0.0
  0
LINE
  6
DOTTED
 62
1
  8
0
 10
121.00000000000001
 20
430.00000000000006
 30
0.0
 11
121.00000000000001
 21
408.00000000000006
 31
0.0
  0
LINE
 62
5
  8
0
 10
111.00000000000001
 20
430.00000000000006
 30
0.0
 11
121.00000000000001
 21
430.00000000000006
 31
0.0
  0
LINE
 62
5
  8
0
 10
111.00000000000001
 20
408.00000000000006
 30
0.0
 11
111.00000000000001
 21
430.00000000000006
 31
0.0
  0
LINE
 62
5
  8
0
 10
121.00000000000001
 20
408.00000000000006
 30
0.0
 11
111.00000000000001
 21
408.00000000000006
 31
0.0
  0
LINE
 62
5
  8
0
 10
115.00000000000001
 20
408.00000000000006
 30
0.0
 11
134.00000000000003
 21
408.00000000000006
 31
0.0
  0
LINE
 62
5
  8
0
 10
115.00000000000001
 20
367.00000000000006
 30
0.0
 11
115.00000000000001
 21
408.00000000000006
 31
0.0
  0
LINE
 62
5
  8
0
 10
134.00000000000003
 20
367.00000000000006
 30
0.0
 11
115.00000000000001
 21
367.00000000000006
 31
0.0
  0
LINE
 62
5
  8
0
 10
189.0
 20
367.00000000000006
 30
0.0
 11
179.00000000000003
 21
367.00000000000006
 31
0.0
  0
LINE
 62
5
  8
0
 10
189.0
 20
408.00000000000006
 30
0.0
 11
189.0
 21
367.00000000000006
 31
0.0
  0
LINE
 62
5
  8
0
 10
179.00000000000003
 20
408.00000000000006
 30
0.0
 11
189.0
 21
408.00000000000006
 31
0.0
  0
LINE
 62
5
  8
0
 10
166.0
 20
307.00000000000006
 30
0.0
 11
142.00000000000003
 21
307.00000000000006
 31
0.0
  0
LINE
 62
5
  8
0
 10
142.00000000000003
 20
367.00000000000006
 30
0.0
 11
166.0
 21
367.00000000000006
 31
0.0
  0
LINE
  6
DOTTED
 62
1
  8
0
 10
142.00000000000003
 20
367.00000000000006
 30
0.0
 11
142.00000000000003
 21
307.00000000000006
 31
0.0
  0
LINE
 62
5
  8
0
 10
132.0
 20
367.00000000000006
 30
0.0
 11
142.00000000000003
 21
367.00000000000006
 31
0.0
  0
LINE
 62
5
  8
0
 10
132.0
 20
307.00000000000006
 30
0.0
 11
132.0
 21
367.00000000000006
 31
0.0
  0
LINE
 62
5
  8
0
 10
142.00000000000003
 20
307.00000000000006
 30
0.0
 11
132.0
 21
307.00000000000006
 31
0.0
  0
LINE
 62
5
  8
0
 10
189.0
 20
266.00000000000006
 30
0.0
 11
179.00000000000003
 21
266.00000000000006
 31
0.0
  0
LINE
 62
5
  8
0
 10
189.0
 20
307.00000000000006
 30
0.0
 11
189.0
 21
266.00000000000006
 31
0.0
  0
LINE
 62
5
  8
0
 10
179.00000000000003
 20
307.00000000000006
 30
0.0
 11
189.0
 21
307.00000000000006
 31
0.0
  0
LINE
 62
5
  8
0
 10
70.00000000000001
 20
266.00000000000006
 30
0.0
 11
106.00000000000001
 21
266.00000000000006
 31
0.0
  0
LINE
 62
5
  8
0
 10
70.00000000000001
 20
201.00000000000003
 30
0.0
 11
70.00000000000001
 21
266.00000000000006
 31
0.0
  0
LINE
 62
5
  8
0
 10
106.00000000000001
 20
201.00000000000003
 30
0.0
 11
70.00000000000001
 21
201.00000000000003
 31
0.0
  0
LINE
 62
5
  8
0
 10
166.0
 20
266.00000000000006
 30
0.0
 11
202.00000000000003
 21
266.00000000000006
 31
0.0
  0
LINE
 62
5
  8
0
 10
202.00000000000003
 20
201.00000000000003
 30
0.0
 11
166.0
 21
201.00000000000003
 31
0.0
  0
LINE
  6
DOTTED
 62
1
  8
0
 10
202.00000000000003
 20
266.00000000000006
 30
0.0
 11
202.00000000000003
 21
201.00000000000003
 31
0.0
  0
LINE
 62
5
  8
0
 10
202.00000000000003
 20
266.00000000000006
 30
0.0
 11
262.0
 21
266.00000000000006
 31
0.0
  0
LINE
  6
DOTTED
 62
1
  8
0
 10
262.0
 20
201.00000000000003
 30
0.0
 11
262.0
 21
266.00000000000006
 31
0.0
  0
LINE
 62
5
  8
0
 10
202.00000000000003
 20
188.00000000000003
 30
0.0
 11
202.00000000000003
 21
201.00000000000003
 31
0.0
  0
LINE
 62
5
  8
0
 10
262.0
 20
188.00000000000003
 30
0.0
 11
202.00000000000003
 21
188.00000000000003
 31
0.0
  0
LINE
 62
5
  8
0
 10
262.0
 20
201.00000000000003
 30
0.0
 11
262.0
 21
188.00000000000003
 31
0.0
  0
LINE
 62
5
  8
0
 10
272.0
 20
201.00000000000003
 30
0.0
 11
262.0
 21
201.00000000000003
 31
0.0
  0
LINE
 62
5
  8
0
 10
272.0
 20
266.00000000000006
 30
0.0
 11
272.0
 21
201.00000000000003
 31
0.0
  0
LINE
 62
5
  8
0
 10
262.0
 20
266.00000000000006
 30
0.0
 11
272.0
 21
266.00000000000006
 31
0.0
  0
LINE
 62
5
  8
0
 10
70.00000000000001
 20
201.00000000000003
 30
0.0
 11
106.00000000000001
 21
201.00000000000003
 31
0.0
  0
LINE
  6
DOTTED
 62
1
  8
0
 10
70.00000000000001
 20
136.0
 30
0.0
 11
70.00000000000001
 21
201.00000000000003
 31
0.0
  0
LINE
 62
5
  8
0
 10
93.00000000000001
 20
136.0
 30
0.0
 11
70.00000000000001
 21
136.0
 31
0.0
  0
LINE
  6
DOTTED
 62
1
  8
0
 10
106.00000000000001
 20
136.0
 30
0.0
 11
93.00000000000001
 21
136.0
 31
0.0
  0
LINE
 62
5
  8
0
 10
106.00000000000001
 20
136.0
 30
0.0
 11
106.00000000000001
 21
136.0
 31
0.0
  0
LINE
 62
5
  8
0
 10
70.00000000000001
 20
136.0
 30
0.0
 11
70.00000000000001
 21
136.0
 31
0.0
  0
LINE
 62
5
  8
0
 10
106.00000000000001
 20
95.00000000000001
 30
0.0
 11
93.00000000000001
 21
95.00000000000001
 31
0.0
  0
LINE
  6
DOTTED
 62
3
  8
0
 10
106.00000000000001
 20
95.00000000000001
 30
0.0
 11
106.00000000000001
 21
136.0
 31
0.0
  0
LINE
  6
DOTTED
 62
3
  8
0
 10
93.00000000000001
 20
136.0
 30
0.0
 11
93.00000000000001
 21
95.00000000000001
 31
0.0
  0
LINE
 62
5
  8
0
 10
125.00000000000001
 20
95.00000000000001
 30
0.0
 11
106.00000000000001
 21
95.00000000000001
 31
0.0
  0
LINE
  6
DOTTED
 62
3
  8
0
 10
125.00000000000001
 20
95.00000000000001
 30
0.0
 11
125.00000000000001
 21
136.0
 31
0.0
  0
LINE
 62
5
  8
0
 10
106.00000000000001
 20
136.0
 30
0.0
 11
125.00000000000001
 21
136.0
 31
0.0
  0
LINE
  6
DOTTED
 62
1
  8
0
 10
125.00000000000001
 20
95.00000000000001
 30
0.0
 11
138.00000000000003
 21
95.00000000000001
 31
0.0
  0
LINE
  6
DOTTED
 62
3
  8
0
 10
138.00000000000003
 20
95.00000000000001
 30
0.0
 11
138.00000000000003
 21
136.0
 31
0.0
  0
LINE
 62
5
  8
0
 10
125.00000000000001
 20
136.0
 30
0.0
 11
138.00000000000003
 21
136.0
 31
0.0
  0
LINE
  6
DOTTED
 62
1
  8
0
 10
125.00000000000001
 20
95.00000000000001
 30
0.0
 11
125.00000000000001
 21
73.0
 31
0.0
  0
LINE
  6
DOTTED
 62
1
  8
0
 10
125.00000000000001
 20
73.0
 30
0.0
 11
138.00000000000003
 21
73.0
 31
0.0
  0
LINE
  6
DOTTED
 62
1
  8
0
 10
138.00000000000003
 20
95.00000000000001
 30
0.0
 11
138.00000000000003
 21
73.0
 31
0.0
  0
LINE
 62
5
  8
0
 10
112.00000000000001
 20
95.00000000000001
 30
0.0
 11
125.00000000000001
 21
95.00000000000001
 31
0.0
  0
LINE
  6
DOTTED
 62
1
  8
0
 10
112.00000000000001
 20
95.00000000000001
 30
0.0
 11
112.00000000000001
 21
73.0
 31
0.0
  0
LINE
 62
5
  8
0
 10
125.00000000000001
 20
73.0
 30
0.0
 11
112.00000000000001
 21
73.0
 31
0.0
  0
LINE
 62
5
  8
0
 10
99.0
 20
95.00000000000001
 30
0.0
 11
112.00000000000001
 21
95.00000000000001
 31
0.0
  0
LINE
 62
5
  8
0
 10
99.0
 20
73.0
 30
0.0
 11
99.0
 21
95.00000000000001
 31
0.0
  0
LINE
 62
5
  8
0
 10
112.00000000000001
 20
73.0
 30
0.0
 11
99.0
 21
73.0
 31
0.0
  0
LINE
  6
DOTTED
 62
1
  8
0
 10
138.00000000000003
 20
32.00000000000001
 30
0.0
 11
125.00000000000001
 21
32.00000000000001
 31
0.0
  0
LINE
  6
DOTTED
 62
3
  8
0
 10
138.00000000000003
 20
32.00000000000001
 30
0.0
 11
138.00000000000003
 21
73.0
 31
0.0
  0
LINE
  6
DOTTED
 62
3
  8
0
 10
125.00000000000001
 20
32.00000000000001
 30
0.0
 11
125.00000000000001
 21
73.0
 31
0.0
  0
LINE
  6
DOTTED
 62
1
  8
0
 10
125.00000000000001
 20
32.00000000000001
 30
0.0
 11
125.00000000000001
 21
10.000000000000002
 31
0.0
  0
LINE
  6
DOTTED
 62
1
  8
0
 10
125.00000000000001
 20
10.000000000000002
 30
0.0
 11
138.00000000000003
 21
10.000000000000002
 31
0.0
  0
LINE
  6
DOTTED
 62
1
  8
0
 10
138.00000000000003
 20
32.00000000000001
 30
0.0
 11
138.00000000000003
 21
10.000000000000002
 31
0.0
  0
LINE
 62
5
  8
0
 10
112.00000000000001
 20
32.00000000000001
 30
0.0
 11
125.00000000000001
 21
32.00000000000001
 31
0.0
  0
LINE
  6
DOTTED
 62
1
  8
0
 10
112.00000000000001
 20
32.00000000000001
 30
0.0
 11
112.00000000000001
 21
10.000000000000002
 31
0.0
  0
LINE
 62
5
  8
0
 10
125.00000000000001
 20
10.000000000000002
 30
0.0
 11
112.00000000000001
 21
10.000000000000002
 31
0.0
  0
LINE
 62
5
  8
0
 10
99.0
 20
32.00000000000001
 30
0.0
 11
112.00000000000001
 21
32.00000000000001
 31
0.0
  0
LINE
 62
5
  8
0
 10
99.0
 20
10.000000000000002
 30
0.0
 11
99.0
 21
32.00000000000001
 31
0.0
  0
LINE
 62
5
  8
0
 10
112.00000000000001
 20
10.000000000000002
 30
0.0
 11
99.0
 21
10.000000000000002
 31
0.0
  0
LINE
 62
5
  8
0
 10
125.00000000000001
 20
0.0
 30
0.0
 11
125.00000000000001
 21
10.000000000000002
 31
0.0
  0
LINE
 62
5
  8
0
 10
138.00000000000003
 20
0.0
 30
0.0
 11
125.00000000000001
 21
0.0
 31
0.0
  0
LINE
 62
5
  8
0
 10
138.00000000000003
 20
10.000000000000002
 30
0.0
 11
138.00000000000003
 21
0.0
 31
0.0
  0
LINE
 62
5
  8
0
 10
138.00000000000003
 20
32.00000000000001
 30
0.0
 11
151.00000000000003
 21
32.00000000000001
 31
0.0
  0
LINE
 62
5
  8
0
 10
151.00000000000003
 20
10.000000000000002
 30
0.0
 11
138.00000000000003
 21
10.000000000000002
 31
0.0
  0
LINE
  6
DOTTED
 62
1
  8
0
 10
151.00000000000003
 20
10.000000000000002
 30
0.0
 11
151.00000000000003
 21
32.00000000000001
 31
0.0
  0
LINE
 62
5
  8
0
 10
161.00000000000003
 20
10.000000000000002
 30
0.0
 11
151.00000000000003
 21
10.000000000000002
 31
0.0
  0
LINE
 62
5
  8
0
 10
161.00000000000003
 20
32.00000000000001
 30
0.0
 11
161.00000000000003
 21
10.000000000000002
 31
0.0
  0
LINE
 62
5
  8
0
 10
151.00000000000003
 20
32.00000000000001
 30
0.0
 11
161.00000000000003
 21
32.00000000000001
 31
0.0
  0
LINE
 62
5
  8
0
 10
157.0
 20
32.00000000000001
 30
0.0
 11
138.00000000000003
 21
32.00000000000001
 31
0.0
  0
LINE
 62
5
  8
0
 10
157.0
 20
73.0
 30
0.0
 11
157.0
 21
32.00000000000001
 31
0.0
  0
LINE
 62
5
  8
0
 10
138.00000000000003
 20
73.0
 30
0.0
 11
157.0
 21
73.0
 31
0.0
  0
LINE
 62
5
  8
0
 10
125.00000000000001
 20
32.00000000000001
 30
0.0
 11
106.00000000000001
 21
32.00000000000001
 31
0.0
  0
LINE
 62
5
  8
0
 10
106.00000000000001
 20
73.0
 30
0.0
 11
125.00000000000001
 21
73.0
 31
0.0
  0
LINE
  6
DOTTED
 62
3
  8
0
 10
106.00000000000001
 20
32.00000000000001
 30
0.0
 11
106.00000000000001
 21
73.0
 31
0.0
  0
LINE
 62
5
  8
0
 10
106.00000000000001
 20
32.00000000000001
 30
0.0
 11
93.00000000000001
 21
32.00000000000001
 31
0.0
  0
LINE
 62
5
  8
0
 10
93.00000000000001
 20
73.0
 30
0.0
 11
106.00000000000001
 21
73.0
 31
0.0
  0
LINE
  6
DOTTED
 62
3
  8
0
 10
93.00000000000001
 20
73.0
 30
0.0
 11
93.00000000000001
 21
32.00000000000001
 31
0.0
  0
LINE
 62
5
  8
0
 10
83.0
 20
73.0
 30
0.0
 11
93.00000000000001
 21
73.0
 31
0.0
  0
LINE
 62
5
  8
0
 10
83.0
 20
32.00000000000001
 30
0.0
 11
83.0
 21
73.0
 31
0.0
  0
LINE
 62
5
  8
0
 10
93.00000000000001
 20
32.00000000000001
 30
0.0
 11
83.0
 21
32.00000000000001
 31
0.0
  0
LINE
 62
5
  8
0
 10
138.00000000000003
 20
95.00000000000001
 30
0.0
 11
151.00000000000003
 21
95.00000000000001
 31
0.0
  0
LINE
 62
5
  8
0
 10
151.00000000000003
 20
73.0
 30
0.0
 11
138.00000000000003
 21
73.0
 31
0.0
  0
LINE
  6
DOTTED
 62
1
  8
0
 10
151.00000000000003
 20
73.0
 30
0.0
 11
151.00000000000003
 21
95.00000000000001
 31
0.0
  0
LINE
 62
5
  8
0
 10
161.00000000000003
 20
73.0
 30
0.0
 11
151.00000000000003
 21
73.0
 31
0.0
  0
LINE
 62
5
  8
0
 10
161.00000000000003
 20
95.00000000000001
 30
0.0
 11
161.00000000000003
 21
73.0
 31
0.0
  0
LINE
 62
5
  8
0
 10
151.00000000000003
 20
95.00000000000001
 30
0.0
 11
161.00000000000003
 21
95.00000000000001
 31
0.0
  0
LINE
 62
5
  8
0
 10
157.0
 20
95.00000000000001
 30
0.0
 11
138.00000000000003
 21
95.00000000000001
 31
0.0
  0
LINE
 62
5
  8
0
 10
157.0
 20
136.0
 30
0.0
 11
157.0
 21
95.00000000000001
 31
0.0
  0
LINE
 62
5
  8
0
 10
138.00000000000003
 20
136.0
 30
0.0
 11
157.0
 21
136.0
 31
0.0
  0
LINE
 62
5
  8
0
 10
83.0
 20
136.0
 30
0.0
 11
93.00000000000001
 21
136.0
 31
0.0
  0
LINE
 62
5
  8
0
 10
83.0
 20
95.00000000000001
 30
0.0
 11
83.0
 21
136.0
 31
0.0
  0
LINE
 62
5
  8
0
 10
93.00000000000001
 20
95.00000000000001
 30
0.0
 11
83.0
 21
95.00000000000001
 31
0.0
  0
LINE
 62
5
  8
0
 10
70.00000000000001
 20
136.0
 30
0.0
 11
10.000000000000002
 21
136.0
 31
0.0
  0
LINE
 62
5
  8
0
 10
10.000000000000002
 20
201.00000000000003
 30
0.0
 11
70.00000000000001
 21
201.00000000000003
 31
0.0
  0
LINE
  6
DOTTED
 62
1
  8
0
 10
10.000000000000002
 20
201.00000000000003
 30
0.0
 11
10.000000000000002
 21
136.0
 31
0.0
  0
LINE
 62
5
  8
0
 10
0.0
 20
201.00000000000003
 30
0.0
 11
10.000000000000002
 21
201.00000000000003
 31
0.0
  0
LINE
 62
5
  8
0
 10
0.0
 20
136.0
 30
0.0
 11
0.0
 21
201.00000000000003
 31
0.0
  0
LINE
 62
5
  8
0
 10
10.000000000000002
 20
136.0
 30
0.0
 11
0.0
 21
136.0
 31
0.0
  0
LINE
 62
5
  8
0
 10
194.33333333333337
 20
68.50000000000001
 30
0.0
 11
194.33333333333337
 21
73.50000000000001
 31
0.0
  0
LINE
 62
5
  8
0
 10
194.33333333333337
 20
73.50000000000001
 30
0.0
 11
186.66666666666666
 21
73.50000000000001
 31
0.0
  0
LINE
 62
5
  8
0
 10
186.66666666666666
 20
73.50000000000001
 30
0.0
 11
186.66666666666666
 21
68.50000000000001
 31
0.0
  0
LINE
 62
5
  8
0
 10
166.065
 20
141.0
 30
0.0
 11
178.93500000000003
 21
141.0
 31
0.0
  0
LINE
 62
5
  8
0
 10
178.93500000000003
 20
141.0
 30
0.0
 11
178.93500000000003
 21
164.0
 31
0.0
  0
LINE
 62
5
  8
0
 10
178.93500000000003
 20
164.0
 30
0.0
 11
166.065
 21
164.0
 31
0.0
  0
LINE
 62
5
  8
0
 10
166.065
 20
164.0
 30
0.0
 11
166.065
 21
141.0
 31
0.0
  0
LINE
 62
5
  8
0
 10
194.25000000000003
 20
159.88636363636363
 30
0.0
 11
194.25000000000003
 21
147.56818181818184
 31
0.0
  0
LINE
 62
5
  8
0
 10
194.25000000000003
 20
147.56818181818184
 30
0.0
 11
194.75000000000003
 21
147.56818181818184
 31
0.0
  0
LINE
 62
5
  8
0
 10
194.75000000000003
 20
147.56818181818184
 30
0.0
 11
194.75000000000003
 21
159.88636363636363
 31
0.0
  0
LINE
 62
5
  8
0
 10
194.75000000000003
 20
159.88636363636363
 30
0.0
 11
194.25000000000003
 21
159.88636363636363
 31
0.0
  0
LINE
 62
5
  8
0
 10
194.25000000000003
 20
189.43181818181822
 30
0.0
 11
194.25000000000003
 21
177.11363636363637
 31
0.0
  0
LINE
 62
5
  8
0
 10
194.25000000000003
 20
177.11363636363637
 30
0.0
 11
194.75000000000003
 21
177.11363636363637
 31
0.0
  0
LINE
 62
5
  8
0
 10
194.75000000000003
 20
177.11363636363637
 30
0.0
 11
194.75000000000003
 21
189.43181818181822
 31
0.0
  0
LINE
 62
5
  8
0
 10
194.75000000000003
 20
189.43181818181822
 30
0.0
 11
194.25000000000003
 21
189.43181818181822
 31
0.0
  0
LINE
 62
5
  8
0
 10
118.75000000000001
 20
224.50000000000003
 30
0.0
 11
115.75000000000001
 21
224.50000000000003
 31
0.0
  0
LINE
 62
5
  8
0
 10
115.75000000000001
 20
224.50000000000003
 30
0.0
 11
115.75000000000001
 21
221.50000000000003
 31
0.0
  0
LINE
 62
5
  8
0
 10
115.75000000000001
 20
221.50000000000003
 30
0.0
 11
118.75000000000001
 21
221.50000000000003
 31
0.0
  0
LINE
 62
5
  8
0
 10
118.75000000000001
 20
221.50000000000003
 30
0.0
 11
118.75000000000001
 21
224.50000000000003
 31
0.0
  0
LINE
 62
5
  8
0
 10
117.75000000000001
 20
203.50000000000003
 30
0.0
 11
116.75000000000001
 21
203.50000000000003
 31
0.0
  0
LINE
 62
5
  8
0
 10
116.75000000000001
 20
203.50000000000003
 30
0.0
 11
116.75000000000001
 21
202.5
 31
0.0
  0
LINE
 62
5
  8
0
 10
116.75000000000001
 20
202.5
 30
0.0
 11
117.75000000000001
 21
202.5
 31
0.0
  0
LINE
 62
5
  8
0
 10
117.75000000000001
 20
202.5
 30
0.0
 11
117.75000000000001
 21
203.50000000000003
 31
0.0
  0
LINE
 62
5
  8
0
 10
120.25000000000001
 20
223.50000000000003
 30
0.0
 11
119.25000000000001
 21
223.50000000000003
 31
0.0
  0
LINE
 62
5
  8
0
 10
119.25000000000001
 20
223.50000000000003
 30
0.0
 11
119.25000000000001
 21
222.50000000000003
 31
0.0
  0
LINE
 62
5
  8
0
 10
119.25000000000001
 20
222.50000000000003
 30
0.0
 11
120.25000000000001
 21
222.50000000000003
 31
0.0
  0
LINE
 62
5
  8
0
 10
120.25000000000001
 20
222.50000000000003
 30
0.0
 11
120.25000000000001
 21
223.50000000000003
 31
0.0
  0
LINE
 62
5
  8
0
 10
120.25000000000001
 20
203.50000000000003
 30
0.0
 11
119.25000000000001
 21
203.50000000000003
 31
0.0
  0
LINE
 62
5
  8
0
 10
119.25000000000001
 20
203.50000000000003
 30
0.0
 11
119.25000000000001
 21
202.5
 31
0.0
  0
LINE
 62
5
  8
0
 10
119.25000000000001
 20
202.5
 30
0.0
 11
120.25000000000001
 21
202.5
 31
0.0
  0
LINE
 62
5
  8
0
 10
120.25000000000001
 20
202.5
 30
0.0
 11
120.25000000000001
 21
203.50000000000003
 31
0.0
  0
LINE
 62
5
  8
0
 10
122.75000000000001
 20
223.50000000000003
 30
0.0
 11
121.75000000000001
 21
223.50000000000003
 31
0.0
  0
LINE
 62
5
  8
0
 10
121.75000000000001
 20
223.50000000000003
 30
0.0
 11
121.75000000000001
 21
222.50000000000003
 31
0.0
  0
LINE
 62
5
  8
0
 10
121.75000000000001
 20
222.50000000000003
 30
0.0
 11
122.75000000000001
 21
222.50000000000003
 31
0.0
  0
LINE
 62
5
  8
0
 10
122.75000000000001
 20
222.50000000000003
 30
0.0
 11
122.75000000000001
 21
223.50000000000003
 31
0.0
  0
LINE
 62
5
  8
0
 10
122.75000000000001
 20
203.50000000000003
 30
0.0
 11
121.75000000000001
 21
203.50000000000003
 31
0.0
  0
LINE
 62
5
  8
0
 10
121.75000000000001
 20
203.50000000000003
 30
0.0
 11
121.75000000000001
 21
202.5
 31
0.0
  0
LINE
 62
5
  8
0
 10
121.75000000000001
 20
202.5
 30
0.0
 11
122.75000000000001
 21
202.5
 31
0.0
  0
LINE
 62
5
  8
0
 10
122.75000000000001
 20
202.5
 30
0.0
 11
122.75000000000001
 21
203.50000000000003
 31
0.0
  0
LINE
 62
5
  8
0
 10
125.25000000000001
 20
223.50000000000003
 30
0.0
 11
124.25000000000001
 21
223.50000000000003
 31
0.0
  0
LINE
 62
5
  8
0
 10
124.25000000000001
 20
223.50000000000003
 30
0.0
 11
124.25000000000001
 21
222.50000000000003
 31
0.0
  0
LINE
 62
5
  8
0
 10
124.25000000000001
 20
222.50000000000003
 30
0.0
 11
125.25000000000001
 21
222.50000000000003
 31
0.0
  0
LINE
 62
5
  8
0
 10
125.25000000000001
 20
222.50000000000003
 30
0.0
 11
125.25000000000001
 21
223.50000000000003
 31
0.0
  0
LINE
 62
5
  8
0
 10
125.25000000000001
 20
203.50000000000003
 30
0.0
 11
124.25000000000001
 21
203.50000000000003
 31
0.0
  0
LINE
 62
5
  8
0
 10
124.25000000000001
 20
203.50000000000003
 30
0.0
 11
124.25000000000001
 21
202.5
 31
0.0
  0
LINE
 62
5
  8
0
 10
124.25000000000001
 20
202.5
 30
0.0
 11
125.25000000000001
 21
202.5
 31
0.0
  0
LINE
 62
5
  8
0
 10
125.25000000000001
 20
202.5
 30
0.0
 11
125.25000000000001
 21
203.50000000000003
 31
0.0
  0
LINE
 62
5
  8
0
 10
127.75000000000001
 20
223.50000000000003
 30
0.0
 11
126.75000000000001
 21
223.50000000000003
 31
0.0
  0
LINE
 62
5
  8
0
 10
126.75000000000001
 20
223.50000000000003
 30
0.0
 11
126.75000000000001
 21
222.50000000000003
 31
0.0
  0
LINE
 62
5
  8
0
 10
126.75000000000001
 20
222.50000000000003
 30
0.0
 11
127.75000000000001
 21
222.50000000000003
 31
0.0
  0
LINE
 62
5
  8
0
 10
127.75000000000001
 20
222.50000000000003
 30
0.0
 11
127.75000000000001
 21
223.50000000000003
 31
0.0
  0
LINE
 62
5
  8
0
 10
127.75000000000001
 20
203.50000000000003
 30
0.0
 11
126.75000000000001
 21
203.50000000000003
 31
0.0
  0
LINE
 62
5
  8
0
 10
126.75000000000001
 20
203.50000000000003
 30
0.0
 11
126.75000000000001
 21
202.5
 31
0.0
  0
LINE
 62
5
  8
0
 10
126.75000000000001
 20
202.5
 30
0.0
 11
127.75000000000001
 21
202.5
 31
0.0
  0
LINE
 62
5
  8
0
 10
127.75000000000001
 20
202.5
 30
0.0
 11
127.75000000000001
 21
203.50000000000003
 31
0.0
  0
LINE
 62
5
  8
0
 10
130.25000000000003
 20
223.50000000000003
 30
0.0
 11
129.25000000000003
 21
223.50000000000003
 31
0.0
  0
LINE
 62
5
  8
0
 10
129.25000000000003
 20
223.50000000000003
 30
0.0
 11
129.25000000000003
 21
222.50000000000003
 31
0.0
  0
LINE
 62
5
  8
0
 10
129.25000000000003
 20
222.50000000000003
 30
0.0
 11
130.25000000000003
 21
222.50000000000003
 31
0.0
  0
LINE
 62
5
  8
0
 10
130.25000000000003
 20
222.50000000000003
 30
0.0
 11
130.25000000000003
 21
223.50000000000003
 31
0.0
  0
LINE
 62
5
  8
0
 10
130.25000000000003
 20
203.50000000000003
 30
0.0
 11
129.25000000000003
 21
203.50000000000003
 31
0.0
  0
LINE
 62
5
  8
0
 10
129.25000000000003
 20
203.50000000000003
 30
0.0
 11
129.25000000000003
 21
202.5
 31
0.0
  0
LINE
 62
5
  8
0
 10
129.25000000000003
 20
202.5
 30
0.0
 11
130.25000000000003
 21
202.5
 31
0.0
  0
LINE
 62
5
  8
0
 10
130.25000000000003
 20
202.5
 30
0.0
 11
130.25000000000003
 21
203.50000000000003
 31
0.0
  0
LINE
 62
5
  8
0
 10
132.75000000000003
 20
223.50000000000003
 30
0.0
 11
131.75000000000003
 21
223.50000000000003
 31
0.0
  0
LINE
 62
5
  8
0
 10
131.75000000000003
 20
223.50000000000003
 30
0.0
 11
131.75000000000003
 21
222.50000000000003
 31
0.0
  0
LINE
 62
5
  8
0
 10
131.75000000000003
 20
222.50000000000003
 30
0.0
 11
132.75000000000003
 21
222.50000000000003
 31
0.0
  0
LINE
 62
5
  8
0
 10
132.75000000000003
 20
222.50000000000003
 30
0.0
 11
132.75000000000003
 21
223.50000000000003
 31
0.0
  0
LINE
 62
5
  8
0
 10
132.75000000000003
 20
203.50000000000003
 30
0.0
 11
131.75000000000003
 21
203.50000000000003
 31
0.0
  0
LINE
 62
5
  8
0
 10
131.75000000000003
 20
203.50000000000003
 30
0.0
 11
131.75000000000003
 21
202.5
 31
0.0
  0
LINE
 62
5
  8
0
 10
131.75000000000003
 20
202.5
 30
0.0
 11
132.75000000000003
 21
202.5
 31
0.0
  0
LINE
 62
5
  8
0
 10
132.75000000000003
 20
202.5
 30
0.0
 11
132.75000000000003
 21
203.50000000000003
 31
0.0
  0
LINE
 62
5
  8
0
 10
135.25000000000003
 20
223.50000000000003
 30
0.0
 11
134.25000000000003
 21
223.50000000000003
 31
0.0
  0
LINE
 62
5
  8
0
 10
134.25000000000003
 20
223.50000000000003
 30
0.0
 11
134.25000000000003
 21
222.50000000000003
 31
0.0
  0
LINE
 62
5
  8
0
 10
134.25000000000003
 20
222.50000000000003
 30
0.0
 11
135.25000000000003
 21
222.50000000000003
 31
0.0
  0
LINE
 62
5
  8
0
 10
135.25000000000003
 20
222.50000000000003
 30
0.0
 11
135.25000000000003
 21
223.50000000000003
 31
0.0
  0
LINE
 62
5
  8
0
 10
135.25000000000003
 20
203.50000000000003
 30
0.0
 11
134.25000000000003
 21
203.50000000000003
 31
0.0
  0
LINE
 62
5
  8
0
 10
134.25000000000003
 20
203.50000000000003
 30
0.0
 11
134.25000000000003
 21
202.5
 31
0.0
  0
LINE
 62
5
  8
0
 10
134.25000000000003
 20
202.5
 30
0.0
 11
135.25000000000003
 21
202.5
 31
0.0
  0
LINE
 62
5
  8
0
 10
135.25000000000003
 20
202.5
 30
0.0
 11
135.25000000000003
 21
203.50000000000003
 31
0.0
  0
LINE
 62
5
  8
0
 10
137.75000000000003
 20
223.50000000000003
 30
0.0
 11
136.75
 21
223.50000000000003
 31
0.0
  0
LINE
 62
5
  8
0
 10
136.75
 20
223.50000000000003
 30
0.0
 11
136.75
 21
222.50000000000003
 31
0.0
  0
LINE
 62
5
  8
0
 10
136.75
 20
222.50000000000003
 30
0.0
 11
137.75000000000003
 21
222.50000000000003
 31
0.0
  0
LINE
 62
5
  8
0
 10
137.75000000000003
 20
222.50000000000003
 30
0.0
 11
137.75000000000003
 21
223.50000000000003
 31
0.0
  0
LINE
 62
5
  8
0
 10
137.75000000000003
 20
203.50000000000003
 30
0.0
 11
136.75
 21
203.50000000000003
 31
0.0
  0
LINE
 62
5
  8
0
 10
136.75
 20
203.50000000000003
 30
0.0
 11
136.75
 21
202.5
 31
0.0
  0
LINE
 62
5
  8
0
 10
136.75
 20
202.5
 30
0.0
 11
137.75000000000003
 21
202.5
 31
0.0
  0
LINE
 62
5
  8
0
 10
137.75000000000003
 20
202.5
 30
0.0
 11
137.75000000000003
 21
203.50000000000003
 31
0.0
  0
LINE
 62
5
  8
0
 10
140.25000000000003
 20
223.50000000000003
 30
0.0
 11
139.25
 21
223.50000000000003
 31
0.0
  0
LINE
 62
5
  8
0
 10
139.25
 20
223.50000000000003
 30
0.0
 11
139.25
 21
222.50000000000003
 31
0.0
  0
LINE
 62
5
  8
0
 10
139.25
 20
222.50000000000003
 30
0.0
 11
140.25000000000003
 21
222.50000000000003
 31
0.0
  0
LINE
 62
5
  8
0
 10
140.25000000000003
 20
222.50000000000003
 30
0.0
 11
140.25000000000003
 21
223.50000000000003
 31
0.0
  0
LINE
 62
5
  8
0
 10
140.25000000000003
 20
203.50000000000003
 30
0.0
 11
139.25
 21
203.50000000000003
 31
0.0
  0
LINE
 62
5
  8
0
 10
139.25
 20
203.50000000000003
 30
0.0
 11
139.25
 21
202.5
 31
0.0
  0
LINE
 62
5
  8
0
 10
139.25
 20
202.5
 30
0.0
 11
140.25000000000003
 21
202.5
 31
0.0
  0
LINE
 62
5
  8
0
 10
140.25000000000003
 20
202.5
 30
0.0
 11
140.25000000000003
 21
203.50000000000003
 31
0.0
  0
LINE
 62
5
  8
0
 10
142.75000000000003
 20
223.50000000000003
 30
0.0
 11
141.75000000000003
 21
223.50000000000003
 31
0.0
  0
LINE
 62
5
  8
0
 10
141.75000000000003
 20
223.50000000000003
 30
0.0
 11
141.75000000000003
 21
222.50000000000003
 31
0.0
  0
LINE
 62
5
  8
0
 10
141.75000000000003
 20
222.50000000000003
 30
0.0
 11
142.75000000000003
 21
222.50000000000003
 31
0.0
  0
LINE
 62
5
  8
0
 10
142.75000000000003
 20
222.50000000000003
 30
0.0
 11
142.75000000000003
 21
223.50000000000003
 31
0.0
  0
LINE
 62
5
  8
0
 10
142.75000000000003
 20
203.50000000000003
 30
0.0
 11
141.75000000000003
 21
203.50000000000003
 31
0.0
  0
LINE
 62
5
  8
0
 10
141.75000000000003
 20
203.50000000000003
 30
0.0
 11
141.75000000000003
 21
202.5
 31
0.0
  0
LINE
 62
5
  8
0
 10
141.75000000000003
 20
202.5
 30
0.0
 11
142.75000000000003
 21
202.5
 31
0.0
  0
LINE
 62
5
  8
0
 10
142.75000000000003
 20
202.5
 30
0.0
 11
142.75000000000003
 21
203.50000000000003
 31
0.0
  0
LINE
 62
5
  8
0
 10
145.25
 20
223.50000000000003
 30
0.0
 11
144.25000000000003
 21
223.50000000000003
 31
0.0
  0
LINE
 62
5
  8
0
 10
144.25000000000003
 20
223.50000000000003
 30
0.0
 11
144.25000000000003
 21
222.50000000000003
 31
0.0
  0
LINE
 62
5
  8
0
 10
144.25000000000003
 20
222.50000000000003
 30
0.0
 11
145.25
 21
222.50000000000003
 31
0.0
  0
LINE
 62
5
  8
0
 10
145.25
 20
222.50000000000003
 30
0.0
 11
145.25
 21
223.50000000000003
 31
0.0
  0
LINE
 62
5
  8
0
 10
145.25
 20
203.50000000000003
 30
0.0
 11
144.25000000000003
 21
203.50000000000003
 31
0.0
  0
LINE
 62
5
  8
0
 10
144.25000000000003
 20
203.50000000000003
 30
0.0
 11
144.25000000000003
 21
202.5
 31
0.0
  0
LINE
 62
5
  8
0
 10
144.25000000000003
 20
202.5
 30
0.0
 11
145.25
 21
202.5
 31
0.0
  0
LINE
 62
5
  8
0
 10
145.25
 20
202.5
 30
0.0
 11
145.25
 21
203.50000000000003
 31
0.0
  0
LINE
 62
5
  8
0
 10
147.75
 20
223.50000000000003
 30
0.0
 11
146.75000000000003
 21
223.50000000000003
 31
0.0
  0
LINE
 62
5
  8
0
 10
146.75000000000003
 20
223.50000000000003
 30
0.0
 11
146.75000000000003
 21
222.50000000000003
 31
0.0
  0
LINE
 62
5
  8
0
 10
146.75000000000003
 20
222.50000000000003
 30
0.0
 11
147.75
 21
222.50000000000003
 31
0.0
  0
LINE
 62
5
  8
0
 10
147.75
 20
222.50000000000003
 30
0.0
 11
147.75
 21
223.50000000000003
 31
0.0
  0
LINE
 62
5
  8
0
 10
147.75
 20
203.50000000000003
 30
0.0
 11
146.75000000000003
 21
203.50000000000003
 31
0.0
  0
LINE
 62
5
  8
0
 10
146.75000000000003
 20
203.50000000000003
 30
0.0
 11
146.75000000000003
 21
202.5
 31
0.0
  0
LINE
 62
5
  8
0
 10
146.75000000000003
 20
202.5
 30
0.0
 11
147.75
 21
202.5
 31
0.0
  0
LINE
 62
5
  8
0
 10
147.75
 20
202.5
 30
0.0
 11
147.75
 21
203.50000000000003
 31
0.0
  0
LINE
 62
5
  8
0
 10
150.25
 20
223.50000000000003
 30
0.0
 11
149.25000000000003
 21
223.50000000000003
 31
0.0
  0
LINE
 62
5
  8
0
 10
149.25000000000003
 20
223.50000000000003
 30
0.0
 11
149.25000000000003
 21
222.50000000000003
 31
0.0
  0
LINE
 62
5
  8
0
 10
149.25000000000003
 20
222.50000000000003
 30
0.0
 11
150.25
 21
222.50000000000003
 31
0.0
  0
LINE
 62
5
  8
0
 10
150.25
 20
222.50000000000003
 30
0.0
 11
150.25
 21
223.50000000000003
 31
0.0
  0
LINE
 62
5
  8
0
 10
150.25
 20
203.50000000000003
 30
0.0
 11
149.25000000000003
 21
203.50000000000003
 31
0.0
  0
LINE
 62
5
  8
0
 10
149.25000000000003
 20
203.50000000000003
 30
0.0
 11
149.25000000000003
 21
202.5
 31
0.0
  0
LINE
 62
5
  8
0
 10
149.25000000000003
 20
202.5
 30
0.0
 11
150.25
 21
202.5
 31
0.0
  0
LINE
 62
5
  8
0
 10
150.25
 20
202.5
 30
0.0
 11
150.25
 21
203.50000000000003
 31
0.0
  0
LINE
 62
5
  8
0
 10
152.75
 20
223.50000000000003
 30
0.0
 11
151.75000000000003
 21
223.50000000000003
 31
0.0
  0
LINE
 62
5
  8
0
 10
151.75000000000003
 20
223.50000000000003
 30
0.0
 11
151.75000000000003
 21
222.50000000000003
 31
0.0
  0
LINE
 62
5
  8
0
 10
151.75000000000003
 20
222.50000000000003
 30
0.0
 11
152.75
 21
222.50000000000003
 31
0.0
  0
LINE
 62
5
  8
0
 10
152.75
 20
222.50000000000003
 30
0.0
 11
152.75
 21
223.50000000000003
 31
0.0
  0
LINE
 62
5
  8
0
 10
152.75
 20
203.50000000000003
 30
0.0
 11
151.75000000000003
 21
203.50000000000003
 31
0.0
  0
LINE
 62
5
  8
0
 10
151.75000000000003
 20
203.50000000000003
 30
0.0
 11
151.75000000000003
 21
202.5
 31
0.0
  0
LINE
 62
5
  8
0
 10
151.75000000000003
 20
202.5
 30
0.0
 11
152.75
 21
202.5
 31
0.0
  0
LINE
 62
5
  8
0
 10
152.75
 20
202.5
 30
0.0
 11
152.75
 21
203.50000000000003
 31
0.0
  0
LINE
 62
5
  8
0
 10
155.25000000000003
 20
223.50000000000003
 30
0.0
 11
154.25000000000003
 21
223.50000000000003
 31
0.0
  0
LINE
 62
5
  8
0
 10
154.25000000000003
 20
223.50000000000003
 30
0.0
 11
154.25000000000003
 21
222.50000000000003
 31
0.0
  0
LINE
 62
5
  8
0
 10
154.25000000000003
 20
222.50000000000003
 30
0.0
 11
155.25000000000003
 21
222.50000000000003
 31
0.0
  0
LINE
 62
5
  8
0
 10
155.25000000000003
 20
222.50000000000003
 30
0.0
 11
155.25000000000003
 21
223.50000000000003
 31
0.0
  0
LINE
 62
5
  8
0
 10
156.25000000000003
 20
204.50000000000003
 30
0.0
 11
153.25000000000003
 21
204.50000000000003
 31
0.0
  0
LINE
 62
5
  8
0
 10
153.25000000000003
 20
204.50000000000003
 30
0.0
 11
153.25000000000003
 21
201.50000000000003
 31
0.0
  0
LINE
 62
5
  8
0
 10
153.25000000000003
 20
201.50000000000003
 30
0.0
 11
156.25000000000003
 21
201.50000000000003
 31
0.0
  0
LINE
 62
5
  8
0
 10
156.25000000000003
 20
201.50000000000003
 30
0.0
 11
156.25000000000003
 21
204.50000000000003
 31
0.0
  0
LINE
 62
5
  8
0
 10
142.91666666666669
 20
273.75
 30
0.0
 11
142.91666666666666
 21
268.25000000000006
 31
0.0
  0
LINE
 62
5
  8
0
 10
142.91666666666666
 20
268.25000000000006
 30
0.0
 11
142.41666666666669
 21
268.25000000000006
 31
0.0
  0
LINE
 62
5
  8
0
 10
142.41666666666669
 20
268.25000000000006
 30
0.0
 11
142.4166666666667
 21
273.75
 31
0.0
  0
LINE
 62
5
  8
0
 10
142.4166666666667
 20
273.75
 30
0.0
 11
142.91666666666669
 21
273.75
 31
0.0
  0
LINE
 62
5
  8
0
 10
122.75000000000001
 20
279.4166666666667
 30
0.0
 11
122.75000000000001
 21
293.5833333333334
 31
0.0
  0
LINE
 62
5
  8
0
 10
122.75000000000001
 20
293.5833333333334
 30
0.0
 11
122.25000000000001
 21
293.5833333333334
 31
0.0
  0
LINE
 62
5
  8
0
 10
122.25000000000001
 20
293.5833333333334
 30
0.0
 11
122.25000000000001
 21
279.4166666666667
 31
0.0
  0
LINE
 62
5
  8
0
 10
122.25000000000001
 20
279.4166666666667
 30
0.0
 11
122.75000000000001
 21
279.4166666666667
 31
0.0
  0
LINE
 62
5
  8
0
 10
178.93500000000003
 20
294.00000000000006
 30
0.0
 11
166.065
 21
294.00000000000006
 31
0.0
  0
LINE
 62
5
  8
0
 10
166.065
 20
294.00000000000006
 30
0.0
 11
166.065
 21
271.00000000000006
 31
0.0
  0
LINE
 62
5
  8
0
 10
166.065
 20
271.00000000000006
 30
0.0
 11
178.93500000000003
 21
271.00000000000006
 31
0.0
  0
LINE
 62
5
  8
0
 10
178.93500000000003
 20
271.00000000000006
 30
0.0
 11
178.93500000000003
 21
294.00000000000006
 31
0.0
  0
LINE
 62
5
  8
0
 10
179.11428571428573
 20
331.00000000000006
 30
0.0
 11
179.11428571428573
 21
313.00000000000006
 31
0.0
  0
LINE
 62
5
  8
0
 10
179.11428571428573
 20
313.00000000000006
 30
0.0
 11
199.6857142857143
 21
313.00000000000006
 31
0.0
  0
LINE
 62
5
  8
0
 10
199.6857142857143
 20
313.00000000000006
 30
0.0
 11
199.6857142857143
 21
331.00000000000006
 31
0.0
  0
LINE
 62
5
  8
0
 10
199.6857142857143
 20
331.00000000000006
 30
0.0
 11
179.11428571428573
 21
331.00000000000006
 31
0.0
  0
LINE
 62
5
  8
0
 10
202.5
 20
319.75000000000006
 30
0.0
 11
202.5
 21
316.75000000000006
 31
0.0
  0
LINE
 62
5
  8
0
 10
202.5
 20
316.75000000000006
 30
0.0
 11
205.50000000000003
 21
316.75000000000006
 31
0.0
  0
LINE
 62
5
  8
0
 10
205.50000000000003
 20
316.75000000000006
 30
0.0
 11
205.50000000000003
 21
319.75000000000006
 31
0.0
  0
LINE
 62
5
  8
0
 10
205.50000000000003
 20
319.75000000000006
 30
0.0
 11
202.5
 21
319.75000000000006
 31
0.0
  0
LINE
 62
5
  8
0
 10
223.50000000000003
 20
318.75
 30
0.0
 11
223.50000000000003
 21
317.75
 31
0.0
  0
LINE
 62
5
  8
0
 10
223.50000000000003
 20
317.75
 30
0.0
 11
224.50000000000003
 21
317.75
 31
0.0
  0
LINE
 62
5
  8
0
 10
224.50000000000003
 20
317.75
 30
0.0
 11
224.50000000000003
 21
318.75
 31
0.0
  0
LINE
 62
5
  8
0
 10
224.50000000000003
 20
318.75
 30
0.0
 11
223.50000000000003
 21
318.75
 31
0.0
  0
LINE
 62
5
  8
0
 10
203.50000000000003
 20
321.25000000000006
 30
0.0
 11
203.50000000000003
 21
320.25000000000006
 31
0.0
  0
LINE
 62
5
  8
0
 10
203.50000000000003
 20
320.25000000000006
 30
0.0
 11
204.50000000000003
 21
320.25000000000006
 31
0.0
  0
LINE
 62
5
  8
0
 10
204.50000000000003
 20
320.25000000000006
 30
0.0
 11
204.50000000000003
 21
321.25000000000006
 31
0.0
  0
LINE
 62
5
  8
0
 10
204.50000000000003
 20
321.25000000000006
 30
0.0
 11
203.50000000000003
 21
321.25000000000006
 31
0.0
  0
LINE
 62
5
  8
0
 10
223.50000000000003
 20
321.25000000000006
 30
0.0
 11
223.50000000000003
 21
320.25000000000006
 31
0.0
  0
LINE
 62
5
  8
0
 10
223.50000000000003
 20
320.25000000000006
 30
0.0
 11
224.50000000000003
 21
320.25000000000006
 31
0.0
  0
LINE
 62
5
  8
0
 10
224.50000000000003
 20
320.25000000000006
 30
0.0
 11
224.50000000000003
 21
321.25000000000006
 31
0.0
  0
LINE
 62
5
  8
0
 10
224.50000000000003
 20
321.25000000000006
 30
0.0
 11
223.50000000000003
 21
321.25000000000006
 31
0.0
  0
LINE
 62
5
  8
0
 10
203.50000000000003
 20
323.75
 30
0.0
 11
203.50000000000003
 21
322.75
 31
0.0
  0
LINE
 62
5
  8
0
 10
203.50000000000003
 20
322.75
 30
0.0
 11
204.50000000000003
 21
322.75
 31
0.0
  0
LINE
 62
5
  8
0
 10
204.50000000000003
 20
322.75
 30
0.0
 11
204.50000000000003
 21
323.75
 31
0.0
  0
LINE
 62
5
  8
0
 10
204.50000000000003
 20
323.75
 30
0.0
 11
203.50000000000003
 21
323.75
 31
0.0
  0
LINE
 62
5
  8
0
 10
223.50000000000003
 20
323.75
 30
0.0
 11
223.50000000000003
 21
322.75
 31
0.0
  0
LINE
 62
5
  8
0
 10
223.50000000000003
 20
322.75
 30
0.0
 11
224.50000000000003
 21
322.75
 31
0.0
  0
LINE
 62
5
  8
0
 10
224.50000000000003
 20
322.75
 30
0.0
 11
224.50000000000003
 21
323.75
 31
0.0
  0
LINE
 62
5
  8
0
 10
224.50000000000003
 20
323.75
 30
0.0
 11
223.50000000000003
 21
323.75
 31
0.0
  0
LINE
 62
5
  8
0
 10
203.50000000000003
 20
326.25000000000006
 30
0.0
 11
203.50000000000003
 21
325.25000000000006
 31
0.0
  0
LINE
 62
5
  8
0
 10
203.50000000000003
 20
325.25000000000006
 30
0.0
 11
204.50000000000003
 21
325.25000000000006
 31
0.0
  0
LINE
 62
5
  8
0
 10
204.50000000000003
 20
325.25000000000006
 30
0.0
 11
204.50000000000003
 21
326.25000000000006
 31
0.0
  0
LINE
 62
5
  8
0
 10
204.50000000000003
 20
326.25000000000006
 30
0.0
 11
203.50000000000003
 21
326.25000000000006
 31
0.0
  0
LINE
 62
5
  8
0
 10
223.50000000000003
 20
326.25000000000006
 30
0.0
 11
223.50000000000003
 21
325.25000000000006
 31
0.0
  0
LINE
 62
5
  8
0
 10
223.50000000000003
 20
325.25000000000006
 30
0.0
 11
224.50000000000003
 21
325.25000000000006
 31
0.0
  0
LINE
 62
5
  8
0
 10
224.50000000000003
 20
325.25000000000006
 30
0.0
 11
224.50000000000003
 21
326.25000000000006
 31
0.0
  0
LINE
 62
5
  8
0
 10
224.50000000000003
 20
326.25000000000006
 30
0.0
 11
223.50000000000003
 21
326.25000000000006
 31
0.0
  0
LINE
 62
5
  8
0
 10
203.50000000000003
 20
328.75000000000006
 30
0.0
 11
203.50000000000003
 21
327.75
 31
0.0
  0
LINE
 62
5
  8
0
 10
203.50000000000003
 20
327.75
 30
0.0
 11
204.50000000000003
 21
327.75
 31
0.0
  0
LINE
 62
5
  8
0
 10
204.50000000000003
 20
327.75
 30
0.0
 11
204.50000000000003
 21
328.75000000000006
 31
0.0
  0
LINE
 62
5
  8
0
 10
204.50000000000003
 20
328.75000000000006
 30
0.0
 11
203.50000000000003
 21
328.75000000000006
 31
0.0
  0
LINE
 62
5
  8
0
 10
223.50000000000003
 20
328.75000000000006
 30
0.0
 11
223.50000000000003
 21
327.75
 31
0.0
  0
LINE
 62
5
  8
0
 10
223.50000000000003
 20
327.75
 30
0.0
 11
224.50000000000003
 21
327.75
 31
0.0
  0
LINE
 62
5
  8
0
 10
224.50000000000003
 20
327.75
 30
0.0
 11
224.50000000000003
 21
328.75000000000006
 31
0.0
  0
LINE
 62
5
  8
0
 10
224.50000000000003
 20
328.75000000000006
 30
0.0
 11
223.50000000000003
 21
328.75000000000006
 31
0.0
  0
LINE
 62
5
  8
0
 10
203.50000000000003
 20
331.25000000000006
 30
0.0
 11
203.50000000000003
 21
330.25000000000006
 31
0.0
  0
LINE
 62
5
  8
0
 10
203.50000000000003
 20
330.25000000000006
 30
0.0
 11
204.50000000000003
 21
330.25000000000006
 31
0.0
  0
LINE
 62
5
  8
0
 10
204.50000000000003
 20
330.25000000000006
 30
0.0
 11
204.50000000000003
 21
331.25000000000006
 31
0.0
  0
LINE
 62
5
  8
0
 10
204.50000000000003
 20
331.25000000000006
 30
0.0
 11
203.50000000000003
 21
331.25000000000006
 31
0.0
  0
LINE
 62
5
  8
0
 10
223.50000000000003
 20
331.25000000000006
 30
0.0
 11
223.50000000000003
 21
330.25000000000006
 31
0.0
  0
LINE
 62
5
  8
0
 10
223.50000000000003
 20
330.25000000000006
 30
0.0
 11
224.50000000000003
 21
330.25000000000006
 31
0.0
  0
LINE
 62
5
  8
0
 10
224.50000000000003
 20
330.25000000000006
 30
0.0
 11
224.50000000000003
 21
331.25000000000006
 31
0.0
  0
LINE
 62
5
  8
0
 10
224.50000000000003
 20
331.25000000000006
 30
0.0
 11
223.50000000000003
 21
331.25000000000006
 31
0.0
  0
LINE
 62
5
  8
0
 10
203.50000000000003
 20
333.75000000000006
 30
0.0
 11
203.50000000000003
 21
332.75
 31
0.0
  0
LINE
 62
5
  8
0
 10
203.50000000000003
 20
332.75
 30
0.0
 11
204.50000000000003
 21
332.75
 31
0.0
  0
LINE
 62
5
  8
0
 10
204.50000000000003
 20
332.75
 30
0.0
 11
204.50000000000003
 21
333.75000000000006
 31
0.0
  0
LINE
 62
5
  8
0
 10
204.50000000000003
 20
333.75000000000006
 30
0.0
 11
203.50000000000003
 21
333.75000000000006
 31
0.0
  0
LINE
 62
5
  8
0
 10
223.50000000000003
 20
333.75000000000006
 30
0.0
 11
223.50000000000003
 21
332.75
 31
0.0
  0
LINE
 62
5
  8
0
 10
223.50000000000003
 20
332.75
 30
0.0
 11
224.50000000000003
 21
332.75
 31
0.0
  0
LINE
 62
5
  8
0
 10
224.50000000000003
 20
332.75
 30
0.0
 11
224.50000000000003
 21
333.75000000000006
 31
0.0
  0
LINE
 62
5
  8
0
 10
224.50000000000003
 20
333.75000000000006
 30
0.0
 11
223.50000000000003
 21
333.75000000000006
 31
0.0
  0
LINE
 62
5
  8
0
 10
203.50000000000003
 20
336.25
 30
0.0
 11
203.50000000000003
 21
335.25000000000006
 31
0.0
  0
LINE
 62
5
  8
0
 10
203.50000000000003
 20
335.25000000000006
 30
0.0
 11
204.50000000000003
 21
335.25000000000006
 31
0.0
  0
LINE
 62
5
  8
0
 10
204.50000000000003
 20
335.25000000000006
 30
0.0
 11
204.50000000000003
 21
336.25
 31
0.0
  0
LINE
 62
5
  8
0
 10
204.50000000000003
 20
336.25
 30
0.0
 11
203.50000000000003
 21
336.25
 31
0.0
  0
LINE
 62
5
  8
0
 10
223.50000000000003
 20
336.25
 30
0.0
 11
223.50000000000003
 21
335.25000000000006
 31
0.0
  0
LINE
 62
5
  8
0
 10
223.50000000000003
 20
335.25000000000006
 30
0.0
 11
224.50000000000003
 21
335.25000000000006
 31
0.0
  0
LINE
 62
5
  8
0
 10
224.50000000000003
 20
335.25000000000006
 30
0.0
 11
224.50000000000003
 21
336.25
 31
0.0
  0
LINE
 62
5
  8
0
 10
224.50000000000003
 20
336.25
 30
0.0
 11
223.50000000000003
 21
336.25
 31
0.0
  0
LINE
 62
5
  8
0
 10
203.50000000000003
 20
338.75000000000006
 30
0.0
 11
203.50000000000003
 21
337.75000000000006
 31
0.0
  0
LINE
 62
5
  8
0
 10
203.50000000000003
 20
337.75000000000006
 30
0.0
 11
204.50000000000003
 21
337.75000000000006
 31
0.0
  0
LINE
 62
5
  8
0
 10
204.50000000000003
 20
337.75000000000006
 30
0.0
 11
204.50000000000003
 21
338.75000000000006
 31
0.0
  0
LINE
 62
5
  8
0
 10
204.50000000000003
 20
338.75000000000006
 30
0.0
 11
203.50000000000003
 21
338.75000000000006
 31
0.0
  0
LINE
 62
5
  8
0
 10
223.50000000000003
 20
338.75000000000006
 30
0.0
 11
223.50000000000003
 21
337.75000000000006
 31
0.0
  0
LINE
 62
5
  8
0
 10
223.50000000000003
 20
337.75000000000006
 30
0.0
 11
224.50000000000003
 21
337.75000000000006
 31
0.0
  0
LINE
 62
5
  8
0
 10
224.50000000000003
 20
337.75000000000006
 30
0.0
 11
224.50000000000003
 21
338.75000000000006
 31
0.0
  0
LINE
 62
5
  8
0
 10
224.50000000000003
 20
338.75000000000006
 30
0.0
 11
223.50000000000003
 21
338.75000000000006
 31
0.0
  0
LINE
 62
5
  8
0
 10
203.50000000000003
 20
341.25
 30
0.0
 11
203.50000000000003
 21
340.25000000000006
 31
0.0
  0
LINE
 62
5
  8
0
 10
203.50000000000003
 20
340.25000000000006
 30
0.0
 11
204.50000000000003
 21
340.25000000000006
 31
0.0
  0
LINE
 62
5
  8
0
 10
204.50000000000003
 20
340.25000000000006
 30
0.0
 11
204.50000000000003
 21
341.25
 31
0.0
  0
LINE
 62
5
  8
0
 10
204.50000000000003
 20
341.25
 30
0.0
 11
203.50000000000003
 21
341.25
 31
0.0
  0
LINE
 62
5
  8
0
 10
223.50000000000003
 20
341.25
 30
0.0
 11
223.50000000000003
 21
340.25000000000006
 31
0.0
  0
LINE
 62
5
  8
0
 10
223.50000000000003
 20
340.25000000000006
 30
0.0
 11
224.50000000000003
 21
340.25000000000006
 31
0.0
  0
LINE
 62
5
  8
0
 10
224.50000000000003
 20
340.25000000000006
 30
0.0
 11
224.50000000000003
 21
341.25
 31
0.0
  0
LINE
 62
5
  8
0
 10
224.50000000000003
 20
341.25
 30
0.0
 11
223.50000000000003
 21
341.25
 31
0.0
  0
LINE
 62
5
  8
0
 10
203.50000000000003
 20
343.75000000000006
 30
0.0
 11
203.50000000000003
 21
342.75000000000006
 31
0.0
  0
LINE
 62
5
  8
0
 10
203.50000000000003
 20
342.75000000000006
 30
0.0
 11
204.50000000000003
 21
342.75000000000006
 31
0.0
  0
LINE
 62
5
  8
0
 10
204.50000000000003
 20
342.75000000000006
 30
0.0
 11
204.50000000000003
 21
343.75000000000006
 31
0.0
  0
LINE
 62
5
  8
0
 10
204.50000000000003
 20
343.75000000000006
 30
0.0
 11
203.50000000000003
 21
343.75000000000006
 31
0.0
  0
LINE
 62
5
  8
0
 10
223.50000000000003
 20
343.75000000000006
 30
0.0
 11
223.50000000000003
 21
342.75000000000006
 31
0.0
  0
LINE
 62
5
  8
0
 10
223.50000000000003
 20
342.75000000000006
 30
0.0
 11
224.50000000000003
 21
342.75000000000006
 31
0.0
  0
LINE
 62
5
  8
0
 10
224.50000000000003
 20
342.75000000000006
 30
0.0
 11
224.50000000000003
 21
343.75000000000006
 31
0.0
  0
LINE
 62
5
  8
0
 10
224.50000000000003
 20
343.75000000000006
 30
0.0
 11
223.50000000000003
 21
343.75000000000006
 31
0.0
  0
LINE
 62
5
  8
0
 10
203.50000000000003
 20
346.25
 30
0.0
 11
203.50000000000003
 21
345.25
 31
0.0
  0
LINE
 62
5
  8
0
 10
203.50000000000003
 20
345.25
 30
0.0
 11
204.50000000000003
 21
345.25
 31
0.0
  0
LINE
 62
5
  8
0
 10
204.50000000000003
 20
345.25
 30
0.0
 11
204.50000000000003
 21
346.25
 31
0.0
  0
LINE
 62
5
  8
0
 10
204.50000000000003
 20
346.25
 30
0.0
 11
203.50000000000003
 21
346.25
 31
0.0
  0
LINE
 62
5
  8
0
 10
223.50000000000003
 20
346.25
 30
0.0
 11
223.50000000000003
 21
345.25
 31
0.0
  0
LINE
 62
5
  8
0
 10
223.50000000000003
 20
345.25
 30
0.0
 11
224.50000000000003
 21
345.25
 31
0.0
  0
LINE
 62
5
  8
0
 10
224.50000000000003
 20
345.25
 30
0.0
 11
224.50000000000003
 21
346.25
 31
0.0
  0
LINE
 62
5
  8
0
 10
224.50000000000003
 20
346.25
 30
0.0
 11
223.50000000000003
 21
346.25
 31
0.0
  0
LINE
 62
5
  8
0
 10
203.50000000000003
 20
348.75000000000006
 30
0.0
 11
203.50000000000003
 21
347.75000000000006
 31
0.0
  0
LINE
 62
5
  8
0
 10
203.50000000000003
 20
347.75000000000006
 30
0.0
 11
204.50000000000003
 21
347.75000000000006
 31
0.0
  0
LINE
 62
5
  8
0
 10
204.50000000000003
 20
347.75000000000006
 30
0.0
 11
204.50000000000003
 21
348.75000000000006
 31
0.0
  0
LINE
 62
5
  8
0
 10
204.50000000000003
 20
348.75000000000006
 30
0.0
 11
203.50000000000003
 21
348.75000000000006
 31
0.0
  0
LINE
 62
5
  8
0
 10
223.50000000000003
 20
348.75000000000006
 30
0.0
 11
223.50000000000003
 21
347.75000000000006
 31
0.0
  0
LINE
 62
5
  8
0
 10
223.50000000000003
 20
347.75000000000006
 30
0.0
 11
224.50000000000003
 21
347.75000000000006
 31
0.0
  0
LINE
 62
5
  8
0
 10
224.50000000000003
 20
347.75000000000006
 30
0.0
 11
224.50000000000003
 21
348.75000000000006
 31
0.0
  0
LINE
 62
5
  8
0
 10
224.50000000000003
 20
348.75000000000006
 30
0.0
 11
223.50000000000003
 21
348.75000000000006
 31
0.0
  0
LINE
 62
5
  8
0
 10
203.50000000000003
 20
351.25000000000006
 30
0.0
 11
203.50000000000003
 21
350.25
 31
0.0
  0
LINE
 62
5
  8
0
 10
203.50000000000003
 20
350.25
 30
0.0
 11
204.50000000000003
 21
350.25
 31
0.0
  0
LINE
 62
5
  8
0
 10
204.50000000000003
 20
350.25
 30
0.0
 11
204.50000000000003
 21
351.25000000000006
 31
0.0
  0
LINE
 62
5
  8
0
 10
204.50000000000003
 20
351.25000000000006
 30
0.0
 11
203.50000000000003
 21
351.25000000000006
 31
0.0
  0
LINE
 62
5
  8
0
 10
223.50000000000003
 20
351.25000000000006
 30
0.0
 11
223.50000000000003
 21
350.25
 31
0.0
  0
LINE
 62
5
  8
0
 10
223.50000000000003
 20
350.25
 30
0.0
 11
224.50000000000003
 21
350.25
 31
0.0
  0
LINE
 62
5
  8
0
 10
224.50000000000003
 20
350.25
 30
0.0
 11
224.50000000000003
 21
351.25000000000006
 31
0.0
  0
LINE
 62
5
  8
0
 10
224.50000000000003
 20
351.25000000000006
 30
0.0
 11
223.50000000000003
 21
351.25000000000006
 31
0.0
  0
LINE
 62
5
  8
0
 10
203.50000000000003
 20
353.75000000000006
 30
0.0
 11
203.50000000000003
 21
352.75000000000006
 31
0.0
  0
LINE
 62
5
  8
0
 10
203.50000000000003
 20
352.75000000000006
 30
0.0
 11
204.50000000000003
 21
352.75000000000006
 31
0.0
  0
LINE
 62
5
  8
0
 10
204.50000000000003
 20
352.75000000000006
 30
0.0
 11
204.50000000000003
 21
353.75000000000006
 31
0.0
  0
LINE
 62
5
  8
0
 10
204.50000000000003
 20
353.75000000000006
 30
0.0
 11
203.50000000000003
 21
353.75000000000006
 31
0.0
  0
LINE
 62
5
  8
0
 10
223.50000000000003
 20
353.75000000000006
 30
0.0
 11
223.50000000000003
 21
352.75000000000006
 31
0.0
  0
LINE
 62
5
  8
0
 10
223.50000000000003
 20
352.75000000000006
 30
0.0
 11
224.50000000000003
 21
352.75000000000006
 31
0.0
  0
LINE
 62
5
  8
0
 10
224.50000000000003
 20
352.75000000000006
 30
0.0
 11
224.50000000000003
 21
353.75000000000006
 31
0.0
  0
LINE
 62
5
  8
0
 10
224.50000000000003
 20
353.75000000000006
 30
0.0
 11
223.50000000000003
 21
353.75000000000006
 31
0.0
  0
LINE
 62
5
  8
0
 10
203.50000000000003
 20
356.25000000000006
 30
0.0
 11
203.50000000000003
 21
355.25
 31
0.0
  0
LINE
 62
5
  8
0
 10
203.50000000000003
 20
355.25
 30
0.0
 11
204.50000000000003
 21
355.25
 31
0.0
  0
LINE
 62
5
  8
0
 10
204.50000000000003
 20
355.25
 30
0.0
 11
204.50000000000003
 21
356.25000000000006
 31
0.0
  0
LINE
 62
5
  8
0
 10
204.50000000000003
 20
356.25000000000006
 30
0.0
 11
203.50000000000003
 21
356.25000000000006
 31
0.0
  0
LINE
 62
5
  8
0
 10
222.50000000000003
 20
357.25000000000006
 30
0.0
 11
222.50000000000003
 21
354.25000000000006
 31
0.0
  0
LINE
 62
5
  8
0
 10
222.50000000000003
 20
354.25000000000006
 30
0.0
 11
225.50000000000003
 21
354.25000000000006
 31
0.0
  0
LINE
 62
5
  8
0
 10
225.50000000000003
 20
354.25000000000006
 30
0.0
 11
225.50000000000003
 21
357.25000000000006
 31
0.0
  0
LINE
 62
5
  8
0
 10
225.50000000000003
 20
357.25000000000006
 30
0.0
 11
222.50000000000003
 21
357.25000000000006
 31
0.0
  0
LINE
 62
5
  8
0
 10
231.55428571428573
 20
324.3
 30
0.0
 11
231.55428571428573
 21
311.3
 31
0.0
  0
LINE
 62
5
  8
0
 10
231.55428571428573
 20
311.3
 30
0.0
 11
252.1257142857143
 21
311.3
 31
0.0
  0
LINE
 62
5
  8
0
 10
252.1257142857143
 20
311.3
 30
0.0
 11
252.1257142857143
 21
324.3
 31
0.0
  0
LINE
 62
5
  8
0
 10
252.1257142857143
 20
324.3
 30
0.0
 11
231.55428571428573
 21
324.3
 31
0.0
  0
LINE
 62
5
  8
0
 10
254.25000000000003
 20
347.25000000000006
 30
0.0
 11
254.25000000000003
 21
326.75000000000006
 31
0.0
  0
LINE
 62
5
  8
0
 10
254.25000000000003
 20
326.75000000000006
 30
0.0
 11
254.75000000000006
 21
326.75000000000006
 31
0.0
  0
LINE
 62
5
  8
0
 10
254.75000000000006
 20
326.75000000000006
 30
0.0
 11
254.75000000000006
 21
347.25000000000006
 31
0.0
  0
LINE
 62
5
  8
0
 10
254.75000000000006
 20
347.25000000000006
 30
0.0
 11
254.25000000000003
 21
347.25000000000006
 31
0.0
  0
LINE
 62
5
  8
0
 10
178.93500000000003
 20
403.00000000000006
 30
0.0
 11
166.065
 21
403.00000000000006
 31
0.0
  0
LINE
 62
5
  8
0
 10
166.065
 20
403.00000000000006
 30
0.0
 11
166.065
 21
380.00000000000006
 31
0.0
  0
LINE
 62
5
  8
0
 10
166.065
 20
380.00000000000006
 30
0.0
 11
178.93500000000003
 21
380.00000000000006
 31
0.0
  0
LINE
 62
5
  8
0
 10
178.93500000000003
 20
380.00000000000006
 30
0.0
 11
178.93500000000003
 21
403.00000000000006
 31
0.0
  0
LINE
 62
5
  8
0
 10
165.25000000000003
 20
422.9166666666667
 30
0.0
 11
165.25000000000003
 21
415.08333333333337
 31
0.0
  0
LINE
 62
5
  8
0
 10
165.25000000000003
 20
415.08333333333337
 30
0.0
 11
165.75
 21
415.08333333333337
 31
0.0
  0
LINE
 62
5
  8
0
 10
165.75
 20
415.08333333333337
 30
0.0
 11
165.75
 21
422.9166666666667
 31
0.0
  0
LINE
 62
5
  8
0
 10
165.75
 20
422.9166666666667
 30
0.0
 11
165.25000000000003
 21
422.9166666666667
 31
0.0
  0
LINE
 62
5
  8
0
 10
142.66666666666669
 20
432.5
 30
0.0
 11
138.33333333333334
 21
432.5
 31
0.0
  0
LINE
 62
5
  8
0
 10
138.33333333333334
 20
432.5
 30
0.0
 11
138.33333333333334
 21
437.50000000000006
 31
0.0
  0
LINE
 62
5
  8
0
 10
138.33333333333334
 20
437.50000000000006
 30
0.0
 11
142.66666666666669
 21
437.50000000000006
 31
0.0
  0
LINE
 62
5
  8
0
 10
113.50000000000001
 20
415.33333333333337
 30
0.0
 11
118.50000000000001
 21
415.33333333333337
 31
0.0
  0
LINE
 62
5
  8
0
 10
118.50000000000001
 20
415.33333333333337
 30
0.0
 11
118.50000000000001
 21
422.66666666666674
 31
0.0
  0
LINE
 62
5
  8
0
 10
118.50000000000001
 20
422.66666666666674
 30
0.0
 11
113.50000000000001
 21
422.66666666666674
 31
0.0
  0
LINE
 62
5
  8
0
 10
122.75000000000001
 20
380.41666666666674
 30
0.0
 11
122.75000000000001
 21
394.58333333333337
 31
0.0
  0
LINE
 62
5
  8
0
 10
122.75000000000001
 20
394.58333333333337
 30
0.0
 11
122.25000000000001
 21
394.58333333333337
 31
0.0
  0
LINE
 62
5
  8
0
 10
122.25000000000001
 20
394.58333333333337
 30
0.0
 11
122.25000000000001
 21
380.41666666666674
 31
0.0
  0
LINE
 62
5
  8
0
 10
122.25000000000001
 20
380.41666666666674
 30
0.0
 11
122.75000000000001
 21
380.41666666666674
 31
0.0
  0
LINE
 62
5
  8
0
 10
186.5
 20
394.33333333333337
 30
0.0
 11
186.5
 21
399.33333333333337
 31
0.0
  0
LINE
 62
5
  8
0
 10
186.5
 20
399.33333333333337
 30
0.0
 11
181.50000000000003
 21
394.33333333333337
 31
0.0
  0
LINE
 62
5
  8
0
 10
181.50000000000003
 20
394.33333333333337
 30
0.0
 11
181.50000000000003
 21
380.66666666666674
 31
0.0
  0
LINE
 62
5
  8
0
 10
181.50000000000003
 20
380.66666666666674
 30
0.0
 11
186.5
 21
375.66666666666674
 31
0.0
  0
LINE
 62
5
  8
0
 10
186.5
 20
375.66666666666674
 30
0.0
 11
186.5
 21
380.66666666666674
 31
0.0
  0
LINE
 62
5
  8
0
 10
142.50000000000003
 20
319.75000000000006
 30
0.0
 11
142.50000000000003
 21
316.75000000000006
 31
0.0
  0
LINE
 62
5
  8
0
 10
142.50000000000003
 20
316.75000000000006
 30
0.0
 11
145.5
 21
316.75000000000006
 31
0.0
  0
LINE
 62
5
  8
0
 10
145.5
 20
316.75000000000006
 30
0.0
 11
145.5
 21
319.75000000000006
 31
0.0
  0
LINE
 62
5
  8
0
 10
145.5
 20
319.75000000000006
 30
0.0
 11
142.50000000000003
 21
319.75000000000006
 31
0.0
  0
LINE
 62
5
  8
0
 10
163.5
 20
318.75
 30
0.0
 11
163.5
 21
317.75
 31
0.0
  0
LINE
 62
5
  8
0
 10
163.5
 20
317.75
 30
0.0
 11
164.50000000000003
 21
317.75
 31
0.0
  0
LINE
 62
5
  8
0
 10
164.50000000000003
 20
317.75
 30
0.0
 11
164.50000000000003
 21
318.75
 31
0.0
  0
LINE
 62
5
  8
0
 10
164.50000000000003
 20
318.75
 30
0.0
 11
163.5
 21
318.75
 31
0.0
  0
LINE
 62
5
  8
0
 10
143.5
 20
321.25000000000006
 30
0.0
 11
143.5
 21
320.25000000000006
 31
0.0
  0
LINE
 62
5
  8
0
 10
143.5
 20
320.25000000000006
 30
0.0
 11
144.50000000000003
 21
320.25000000000006
 31
0.0
  0
LINE
 62
5
  8
0
 10
144.50000000000003
 20
320.25000000000006
 30
0.0
 11
144.50000000000003
 21
321.25000000000006
 31
0.0
  0
LINE
 62
5
  8
0
 10
144.50000000000003
 20
321.25000000000006
 30
0.0
 11
143.5
 21
321.25000000000006
 31
0.0
  0
LINE
 62
5
  8
0
 10
163.5
 20
321.25000000000006
 30
0.0
 11
163.5
 21
320.25000000000006
 31
0.0
  0
LINE
 62
5
  8
0
 10
163.5
 20
320.25000000000006
 30
0.0
 11
164.50000000000003
 21
320.25000000000006
 31
0.0
  0
LINE
 62
5
  8
0
 10
164.50000000000003
 20
320.25000000000006
 30
0.0
 11
164.50000000000003
 21
321.25000000000006
 31
0.0
  0
LINE
 62
5
  8
0
 10
164.50000000000003
 20
321.25000000000006
 30
0.0
 11
163.5
 21
321.25000000000006
 31
0.0
  0
LINE
 62
5
  8
0
 10
143.5
 20
323.75
 30
0.0
 11
143.5
 21
322.75
 31
0.0
  0
LINE
 62
5
  8
0
 10
143.5
 20
322.75
 30
0.0
 11
144.50000000000003
 21
322.75
 31
0.0
  0
LINE
 62
5
  8
0
 10
144.50000000000003
 20
322.75
 30
0.0
 11
144.50000000000003
 21
323.75
 31
0.0
  0
LINE
 62
5
  8
0
 10
144.50000000000003
 20
323.75
 30
0.0
 11
143.5
 21
323.75
 31
0.0
  0
LINE
 62
5
  8
0
 10
163.5
 20
323.75
 30
0.0
 11
163.5
 21
322.75
 31
0.0
  0
LINE
 62
5
  8
0
 10
163.5
 20
322.75
 30
0.0
 11
164.50000000000003
 21
322.75
 31
0.0
  0
LINE
 62
5
  8
0
 10
164.50000000000003
 20
322.75
 30
0.0
 11
164.50000000000003
 21
323.75
 31
0.0
  0
LINE
 62
5
  8
0
 10
164.50000000000003
 20
323.75
 30
0.0
 11
163.5
 21
323.75
 31
0.0
  0
LINE
 62
5
  8
0
 10
143.5
 20
326.25000000000006
 30
0.0
 11
143.5
 21
325.25000000000006
 31
0.0
  0
LINE
 62
5
  8
0
 10
143.5
 20
325.25000000000006
 30
0.0
 11
144.50000000000003
 21
325.25000000000006
 31
0.0
  0
LINE
 62
5
  8
0
 10
144.50000000000003
 20
325.25000000000006
 30
0.0
 11
144.50000000000003
 21
326.25000000000006
 31
0.0
  0
LINE
 62
5
  8
0
 10
144.50000000000003
 20
326.25000000000006
 30
0.0
 11
143.5
 21
326.25000000000006
 31
0.0
  0
LINE
 62
5
  8
0
 10
163.5
 20
326.25000000000006
 30
0.0
 11
163.5
 21
325.25000000000006
 31
0.0
  0
LINE
 62
5
  8
0
 10
163.5
 20
325.25000000000006
 30
0.0
 11
164.50000000000003
 21
325.25000000000006
 31
0.0
  0
LINE
 62
5
  8
0
 10
164.50000000000003
 20
325.25000000000006
 30
0.0
 11
164.50000000000003
 21
326.25000000000006
 31
0.0
  0
LINE
 62
5
  8
0
 10
164.50000000000003
 20
326.25000000000006
 30
0.0
 11
163.5
 21
326.25000000000006
 31
0.0
  0
LINE
 62
5
  8
0
 10
143.5
 20
328.75000000000006
 30
0.0
 11
143.5
 21
327.75
 31
0.0
  0
LINE
 62
5
  8
0
 10
143.5
 20
327.75
 30
0.0
 11
144.50000000000003
 21
327.75
 31
0.0
  0
LINE
 62
5
  8
0
 10
144.50000000000003
 20
327.75
 30
0.0
 11
144.50000000000003
 21
328.75000000000006
 31
0.0
  0
LINE
 62
5
  8
0
 10
144.50000000000003
 20
328.75000000000006
 30
0.0
 11
143.5
 21
328.75000000000006
 31
0.0
  0
LINE
 62
5
  8
0
 10
163.5
 20
328.75000000000006
 30
0.0
 11
163.5
 21
327.75
 31
0.0
  0
LINE
 62
5
  8
0
 10
163.5
 20
327.75
 30
0.0
 11
164.50000000000003
 21
327.75
 31
0.0
  0
LINE
 62
5
  8
0
 10
164.50000000000003
 20
327.75
 30
0.0
 11
164.50000000000003
 21
328.75000000000006
 31
0.0
  0
LINE
 62
5
  8
0
 10
164.50000000000003
 20
328.75000000000006
 30
0.0
 11
163.5
 21
328.75000000000006
 31
0.0
  0
LINE
 62
5
  8
0
 10
143.5
 20
331.25000000000006
 30
0.0
 11
143.5
 21
330.25000000000006
 31
0.0
  0
LINE
 62
5
  8
0
 10
143.5
 20
330.25000000000006
 30
0.0
 11
144.50000000000003
 21
330.25000000000006
 31
0.0
  0
LINE
 62
5
  8
0
 10
144.50000000000003
 20
330.25000000000006
 30
0.0
 11
144.50000000000003
 21
331.25000000000006
 31
0.0
  0
LINE
 62
5
  8
0
 10
144.50000000000003
 20
331.25000000000006
 30
0.0
 11
143.5
 21
331.25000000000006
 31
0.0
  0
LINE
 62
5
  8
0
 10
163.5
 20
331.25000000000006
 30
0.0
 11
163.5
 21
330.25000000000006
 31
0.0
  0
LINE
 62
5
  8
0
 10
163.5
 20
330.25000000000006
 30
0.0
 11
164.50000000000003
 21
330.25000000000006
 31
0.0
  0
LINE
 62
5
  8
0
 10
164.50000000000003
 20
330.25000000000006
 30
0.0
 11
164.50000000000003
 21
331.25000000000006
 31
0.0
  0
LINE
 62
5
  8
0
 10
164.50000000000003
 20
331.25000000000006
 30
0.0
 11
163.5
 21
331.25000000000006
 31
0.0
  0
LINE
 62
5
  8
0
 10
143.5
 20
333.75000000000006
 30
0.0
 11
143.5
 21
332.75
 31
0.0
  0
LINE
 62
5
  8
0
 10
143.5
 20
332.75
 30
0.0
 11
144.50000000000003
 21
332.75
 31
0.0
  0
LINE
 62
5
  8
0
 10
144.50000000000003
 20
332.75
 30
0.0
 11
144.50000000000003
 21
333.75000000000006
 31
0.0
  0
LINE
 62
5
  8
0
 10
144.50000000000003
 20
333.75000000000006
 30
0.0
 11
143.5
 21
333.75000000000006
 31
0.0
  0
LINE
 62
5
  8
0
 10
163.5
 20
333.75000000000006
 30
0.0
 11
163.5
 21
332.75
 31
0.0
  0
LINE
 62
5
  8
0
 10
163.5
 20
332.75
 30
0.0
 11
164.50000000000003
 21
332.75
 31
0.0
  0
LINE
 62
5
  8
0
 10
164.50000000000003
 20
332.75
 30
0.0
 11
164.50000000000003
 21
333.75000000000006
 31
0.0
  0
LINE
 62
5
  8
0
 10
164.50000000000003
 20
333.75000000000006
 30
0.0
 11
163.5
 21
333.75000000000006
 31
0.0
  0
LINE
 62
5
  8
0
 10
143.5
 20
336.25
 30
0.0
 11
143.5
 21
335.25000000000006
 31
0.0
  0
LINE
 62
5
  8
0
 10
143.5
 20
335.25000000000006
 30
0.0
 11
144.50000000000003
 21
335.25000000000006
 31
0.0
  0
LINE
 62
5
  8
0
 10
144.50000000000003
 20
335.25000000000006
 30
0.0
 11
144.50000000000003
 21
336.25
 31
0.0
  0
LINE
 62
5
  8
0
 10
144.50000000000003
 20
336.25
 30
0.0
 11
143.5
 21
336.25
 31
0.0
  0
LINE
 62
5
  8
0
 10
163.5
 20
336.25
 30
0.0
 11
163.5
 21
335.25000000000006
 31
0.0
  0
LINE
 62
5
  8
0
 10
163.5
 20
335.25000000000006
 30
0.0
 11
164.50000000000003
 21
335.25000000000006
 31
0.0
  0
LINE
 62
5
  8
0
 10
164.50000000000003
 20
335.25000000000006
 30
0.0
 11
164.50000000000003
 21
336.25
 31
0.0
  0
LINE
 62
5
  8
0
 10
164.50000000000003
 20
336.25
 30
0.0
 11
163.5
 21
336.25
 31
0.0
  0
LINE
 62
5
  8
0
 10
143.5
 20
338.75000000000006
 30
0.0
 11
143.5
 21
337.75000000000006
 31
0.0
  0
LINE
 62
5
  8
0
 10
143.5
 20
337.75000000000006
 30
0.0
 11
144.50000000000003
 21
337.75000000000006
 31
0.0
  0
LINE
 62
5
  8
0
 10
144.50000000000003
 20
337.75000000000006
 30
0.0
 11
144.50000000000003
 21
338.75000000000006
 31
0.0
  0
LINE
 62
5
  8
0
 10
144.50000000000003
 20
338.75000000000006
 30
0.0
 11
143.5
 21
338.75000000000006
 31
0.0
  0
LINE
 62
5
  8
0
 10
163.5
 20
338.75000000000006
 30
0.0
 11
163.5
 21
337.75000000000006
 31
0.0
  0
LINE
 62
5
  8
0
 10
163.5
 20
337.75000000000006
 30
0.0
 11
164.50000000000003
 21
337.75000000000006
 31
0.0
  0
LINE
 62
5
  8
0
 10
164.50000000000003
 20
337.75000000000006
 30
0.0
 11
164.50000000000003
 21
338.75000000000006
 31
0.0
  0
LINE
 62
5
  8
0
 10
164.50000000000003
 20
338.75000000000006
 30
0.0
 11
163.5
 21
338.75000000000006
 31
0.0
  0
LINE
 62
5
  8
0
 10
143.5
 20
341.25
 30
0.0
 11
143.5
 21
340.25000000000006
 31
0.0
  0
LINE
 62
5
  8
0
 10
143.5
 20
340.25000000000006
 30
0.0
 11
144.50000000000003
 21
340.25000000000006
 31
0.0
  0
LINE
 62
5
  8
0
 10
144.50000000000003
 20
340.25000000000006
 30
0.0
 11
144.50000000000003
 21
341.25
 31
0.0
  0
LINE
 62
5
  8
0
 10
144.50000000000003
 20
341.25
 30
0.0
 11
143.5
 21
341.25
 31
0.0
  0
LINE
 62
5
  8
0
 10
163.5
 20
341.25
 30
0.0
 11
163.5
 21
340.25000000000006
 31
0.0
  0
LINE
 62
5
  8
0
 10
163.5
 20
340.25000000000006
 30
0.0
 11
164.50000000000003
 21
340.25000000000006
 31
0.0
  0
LINE
 62
5
  8
0
 10
164.50000000000003
 20
340.25000000000006
 30
0.0
 11
164.50000000000003
 21
341.25
 31
0.0
  0
LINE
 62
5
  8
0
 10
164.50000000000003
 20
341.25
 30
0.0
 11
163.5
 21
341.25
 31
0.0
  0
LINE
 62
5
  8
0
 10
143.5
 20
343.75000000000006
 30
0.0
 11
143.5
 21
342.75000000000006
 31
0.0
  0
LINE
 62
5
  8
0
 10
143.5
 20
342.75000000000006
 30
0.0
 11
144.50000000000003
 21
342.75000000000006
 31
0.0
  0
LINE
 62
5
  8
0
 10
144.50000000000003
 20
342.75000000000006
 30
0.0
 11
144.50000000000003
 21
343.75000000000006
 31
0.0
  0
LINE
 62
5
  8
0
 10
144.50000000000003
 20
343.75000000000006
 30
0.0
 11
143.5
 21
343.75000000000006
 31
0.0
  0
LINE
 62
5
  8
0
 10
163.5
 20
343.75000000000006
 30
0.0
 11
163.5
 21
342.75000000000006
 31
0.0
  0
LINE
 62
5
  8
0
 10
163.5
 20
342.75000000000006
 30
0.0
 11
164.50000000000003
 21
342.75000000000006
 31
0.0
  0
LINE
 62
5
  8
0
 10
164.50000000000003
 20
342.75000000000006
 30
0.0
 11
164.50000000000003
 21
343.75000000000006
 31
0.0
  0
LINE
 62
5
  8
0
 10
164.50000000000003
 20
343.75000000000006
 30
0.0
 11
163.5
 21
343.75000000000006
 31
0.0
  0
LINE
 62
5
  8
0
 10
143.5
 20
346.25
 30
0.0
 11
143.5
 21
345.25
 31
0.0
  0
LINE
 62
5
  8
0
 10
143.5
 20
345.25
 30
0.0
 11
144.50000000000003
 21
345.25
 31
0.0
  0
LINE
 62
5
  8
0
 10
144.50000000000003
 20
345.25
 30
0.0
 11
144.50000000000003
 21
346.25
 31
0.0
  0
LINE
 62
5
  8
0
 10
144.50000000000003
 20
346.25
 30
0.0
 11
143.5
 21
346.25
 31
0.0
  0
LINE
 62
5
  8
0
 10
163.5
 20
346.25
 30
0.0
 11
163.5
 21
345.25
 31
0.0
  0
LINE
 62
5
  8
0
 10
163.5
 20
345.25
 30
0.0
 11
164.50000000000003
 21
345.25
 31
0.0
  0
LINE
 62
5
  8
0
 10
164.50000000000003
 20
345.25
 30
0.0
 11
164.50000000000003
 21
346.25
 31
0.0
  0
LINE
 62
5
  8
0
 10
164.50000000000003
 20
346.25
 30
0.0
 11
163.5
 21
346.25
 31
0.0
  0
LINE
 62
5
  8
0
 10
143.5
 20
348.75000000000006
 30
0.0
 11
143.5
 21
347.75000000000006
 31
0.0
  0
LINE
 62
5
  8
0
 10
143.5
 20
347.75000000000006
 30
0.0
 11
144.50000000000003
 21
347.75000000000006
 31
0.0
  0
LINE
 62
5
  8
0
 10
144.50000000000003
 20
347.75000000000006
 30
0.0
 11
144.50000000000003
 21
348.75000000000006
 31
0.0
  0
LINE
 62
5
  8
0
 10
144.50000000000003
 20
348.75000000000006
 30
0.0
 11
143.5
 21
348.75000000000006
 31
0.0
  0
LINE
 62
5
  8
0
 10
163.5
 20
348.75000000000006
 30
0.0
 11
163.5
 21
347.75000000000006
 31
0.0
  0
LINE
 62
5
  8
0
 10
163.5
 20
347.75000000000006
 30
0.0
 11
164.50000000000003
 21
347.75000000000006
 31
0.0
  0
LINE
 62
5
  8
0
 10
164.50000000000003
 20
347.75000000000006
 30
0.0
 11
164.50000000000003
 21
348.75000000000006
 31
0.0
  0
LINE
 62
5
  8
0
 10
164.50000000000003
 20
348.75000000000006
 30
0.0
 11
163.5
 21
348.75000000000006
 31
0.0
  0
LINE
 62
5
  8
0
 10
143.5
 20
351.25000000000006
 30
0.0
 11
143.5
 21
350.25
 31
0.0
  0
LINE
 62
5
  8
0
 10
143.5
 20
350.25
 30
0.0
 11
144.50000000000003
 21
350.25
 31
0.0
  0
LINE
 62
5
  8
0
 10
144.50000000000003
 20
350.25
 30
0.0
 11
144.50000000000003
 21
351.25000000000006
 31
0.0
  0
LINE
 62
5
  8
0
 10
144.50000000000003
 20
351.25000000000006
 30
0.0
 11
143.5
 21
351.25000000000006
 31
0.0
  0
LINE
 62
5
  8
0
 10
163.5
 20
351.25000000000006
 30
0.0
 11
163.5
 21
350.25
 31
0.0
  0
LINE
 62
5
  8
0
 10
163.5
 20
350.25
 30
0.0
 11
164.50000000000003
 21
350.25
 31
0.0
  0
LINE
 62
5
  8
0
 10
164.50000000000003
 20
350.25
 30
0.0
 11
164.50000000000003
 21
351.25000000000006
 31
0.0
  0
LINE
 62
5
  8
0
 10
164.50000000000003
 20
351.25000000000006
 30
0.0
 11
163.5
 21
351.25000000000006
 31
0.0
  0
LINE
 62
5
  8
0
 10
143.5
 20
353.75000000000006
 30
0.0
 11
143.5
 21
352.75000000000006
 31
0.0
  0
LINE
 62
5
  8
0
 10
143.5
 20
352.75000000000006
 30
0.0
 11
144.50000000000003
 21
352.75000000000006
 31
0.0
  0
LINE
 62
5
  8
0
 10
144.50000000000003
 20
352.75000000000006
 30
0.0
 11
144.50000000000003
 21
353.75000000000006
 31
0.0
  0
LINE
 62
5
  8
0
 10
144.50000000000003
 20
353.75000000000006
 30
0.0
 11
143.5
 21
353.75000000000006
 31
0.0
  0
LINE
 62
5
  8
0
 10
163.5
 20
353.75000000000006
 30
0.0
 11
163.5
 21
352.75000000000006
 31
0.0
  0
LINE
 62
5
  8
0
 10
163.5
 20
352.75000000000006
 30
0.0
 11
164.50000000000003
 21
352.75000000000006
 31
0.0
  0
LINE
 62
5
  8
0
 10
164.50000000000003
 20
352.75000000000006
 30
0.0
 11
164.50000000000003
 21
353.75000000000006
 31
0.0
  0
LINE
 62
5
  8
0
 10
164.50000000000003
 20
353.75000000000006
 30
0.0
 11
163.5
 21
353.75000000000006
 31
0.0
  0
LINE
 62
5
  8
0
 10
143.5
 20
356.25000000000006
 30
0.0
 11
143.5
 21
355.25
 31
0.0
  0
LINE
 62
5
  8
0
 10
143.5
 20
355.25
 30
0.0
 11
144.50000000000003
 21
355.25
 31
0.0
  0
LINE
 62
5
  8
0
 10
144.50000000000003
 20
355.25
 30
0.0
 11
144.50000000000003
 21
356.25000000000006
 31
0.0
  0
LINE
 62
5
  8
0
 10
144.50000000000003
 20
356.25000000000006
 30
0.0
 11
143.5
 21
356.25000000000006
 31
0.0
  0
LINE
 62
5
  8
0
 10
162.50000000000003
 20
357.25000000000006
 30
0.0
 11
162.50000000000003
 21
354.25000000000006
 31
0.0
  0
LINE
 62
5
  8
0
 10
162.50000000000003
 20
354.25000000000006
 30
0.0
 11
165.50000000000003
 21
354.25000000000006
 31
0.0
  0
LINE
 62
5
  8
0
 10
165.50000000000003
 20
354.25000000000006
 30
0.0
 11
165.50000000000003
 21
357.25000000000006
 31
0.0
  0
LINE
 62
5
  8
0
 10
165.50000000000003
 20
357.25000000000006
 30
0.0
 11
162.50000000000003
 21
357.25000000000006
 31
0.0
  0
LINE
 62
5
  8
0
 10
134.5
 20
327.0
 30
0.0
 11
134.5
 21
322.00000000000006
 31
0.0
  0
LINE
 62
5
  8
0
 10
134.5
 20
322.00000000000006
 30
0.0
 11
139.50000000000003
 21
327.0
 31
0.0
  0
LINE
 62
5
  8
0
 10
139.50000000000003
 20
327.0
 30
0.0
 11
139.50000000000003
 21
347.00000000000006
 31
0.0
  0
LINE
 62
5
  8
0
 10
139.50000000000003
 20
347.00000000000006
 30
0.0
 11
134.5
 21
352.00000000000006
 31
0.0
  0
LINE
 62
5
  8
0
 10
134.5
 20
352.00000000000006
 30
0.0
 11
134.5
 21
347.00000000000006
 31
0.0
  0
LINE
 62
5
  8
0
 10
186.5
 20
293.3333333333334
 30
0.0
 11
186.5
 21
298.3333333333334
 31
0.0
  0
LINE
 62
5
  8
0
 10
186.5
 20
298.3333333333334
 30
0.0
 11
181.50000000000003
 21
293.3333333333334
 31
0.0
  0
LINE
 62
5
  8
0
 10
181.50000000000003
 20
293.3333333333334
 30
0.0
 11
181.50000000000003
 21
279.6666666666667
 31
0.0
  0
LINE
 62
5
  8
0
 10
181.50000000000003
 20
279.6666666666667
 30
0.0
 11
186.5
 21
274.66666666666674
 31
0.0
  0
LINE
 62
5
  8
0
 10
186.5
 20
274.66666666666674
 30
0.0
 11
186.5
 21
279.6666666666667
 31
0.0
  0
LINE
 62
5
  8
0
 10
98.44000000000001
 20
205.48000000000005
 30
0.0
 11
98.44000000000001
 21
219.52
 31
0.0
  0
LINE
 62
5
  8
0
 10
98.44000000000001
 20
219.52
 30
0.0
 11
80.44000000000001
 21
219.52
 31
0.0
  0
LINE
 62
5
  8
0
 10
80.44000000000001
 20
219.52
 30
0.0
 11
80.44000000000001
 21
205.48000000000002
 31
0.0
  0
LINE
 62
5
  8
0
 10
80.44000000000001
 20
205.48000000000002
 30
0.0
 11
98.44000000000001
 21
205.48000000000005
 31
0.0
  0
LINE
 62
5
  8
0
 10
105.93500000000002
 20
261.00000000000006
 30
0.0
 11
93.06500000000001
 21
261.00000000000006
 31
0.0
  0
LINE
 62
5
  8
0
 10
93.06500000000001
 20
261.00000000000006
 30
0.0
 11
93.06500000000001
 21
238.00000000000003
 31
0.0
  0
LINE
 62
5
  8
0
 10
93.06500000000001
 20
238.00000000000003
 30
0.0
 11
105.93500000000002
 21
238.00000000000003
 31
0.0
  0
LINE
 62
5
  8
0
 10
105.93500000000002
 20
238.00000000000003
 30
0.0
 11
105.93500000000002
 21
261.00000000000006
 31
0.0
  0
LINE
 62
5
  8
0
 10
77.75000000000001
 20
242.1136363636364
 30
0.0
 11
77.75000000000001
 21
254.43181818181822
 31
0.0
  0
LINE
 62
5
  8
0
 10
77.75000000000001
 20
254.43181818181822
 30
0.0
 11
77.25
 21
254.43181818181822
 31
0.0
  0
LINE
 62
5
  8
0
 10
77.25
 20
254.43181818181822
 30
0.0
 11
77.25
 21
242.1136363636364
 31
0.0
  0
LINE
 62
5
  8
0
 10
77.25
 20
242.1136363636364
 30
0.0
 11
77.75000000000001
 21
242.1136363636364
 31
0.0
  0
LINE
 62
5
  8
0
 10
77.75000000000001
 20
212.56818181818184
 30
0.0
 11
77.75000000000001
 21
224.88636363636365
 31
0.0
  0
LINE
 62
5
  8
0
 10
77.75000000000001
 20
224.88636363636365
 30
0.0
 11
77.25
 21
224.88636363636365
 31
0.0
  0
LINE
 62
5
  8
0
 10
77.25
 20
224.88636363636365
 30
0.0
 11
77.25
 21
212.56818181818184
 31
0.0
  0
LINE
 62
5
  8
0
 10
77.25
 20
212.56818181818184
 30
0.0
 11
77.75000000000001
 21
212.56818181818184
 31
0.0
  0
LINE
 62
5
  8
0
 10
200.20000000000002
 20
205.48000000000005
 30
0.0
 11
200.20000000000002
 21
219.52
 31
0.0
  0
LINE
 62
5
  8
0
 10
200.20000000000002
 20
219.52
 30
0.0
 11
175.0
 21
219.52
 31
0.0
  0
LINE
 62
5
  8
0
 10
175.0
 20
219.52
 30
0.0
 11
175.0
 21
205.48000000000002
 31
0.0
  0
LINE
 62
5
  8
0
 10
175.0
 20
205.48000000000002
 30
0.0
 11
200.20000000000002
 21
205.48000000000005
 31
0.0
  0
LINE
 62
5
  8
0
 10
166.065
 20
238.00000000000003
 30
0.0
 11
178.93500000000003
 21
238.00000000000003
 31
0.0
  0
LINE
 62
5
  8
0
 10
178.93500000000003
 20
238.00000000000003
 30
0.0
 11
178.93500000000003
 21
261.00000000000006
 31
0.0
  0
LINE
 62
5
  8
0
 10
178.93500000000003
 20
261.00000000000006
 30
0.0
 11
166.065
 21
261.00000000000006
 31
0.0
  0
LINE
 62
5
  8
0
 10
166.065
 20
261.00000000000006
 30
0.0
 11
166.065
 21
238.00000000000003
 31
0.0
  0
LINE
 62
5
  8
0
 10
214.75000000000003
 20
224.50000000000003
 30
0.0
 11
211.75
 21
224.50000000000003
 31
0.0
  0
LINE
 62
5
  8
0
 10
211.75
 20
224.50000000000003
 30
0.0
 11
211.75
 21
221.50000000000003
 31
0.0
  0
LINE
 62
5
  8
0
 10
211.75
 20
221.50000000000003
 30
0.0
 11
214.75000000000003
 21
221.50000000000003
 31
0.0
  0
LINE
 62
5
  8
0
 10
214.75000000000003
 20
221.50000000000003
 30
0.0
 11
214.75000000000003
 21
224.50000000000003
 31
0.0
  0
LINE
 62
5
  8
0
 10
213.75
 20
203.50000000000003
 30
0.0
 11
212.75000000000003
 21
203.50000000000003
 31
0.0
  0
LINE
 62
5
  8
0
 10
212.75000000000003
 20
203.50000000000003
 30
0.0
 11
212.75000000000003
 21
202.5
 31
0.0
  0
LINE
 62
5
  8
0
 10
212.75000000000003
 20
202.5
 30
0.0
 11
213.75
 21
202.5
 31
0.0
  0
LINE
 62
5
  8
0
 10
213.75
 20
202.5
 30
0.0
 11
213.75
 21
203.50000000000003
 31
0.0
  0
LINE
 62
5
  8
0
 10
216.25
 20
223.50000000000003
 30
0.0
 11
215.25000000000003
 21
223.50000000000003
 31
0.0
  0
LINE
 62
5
  8
0
 10
215.25000000000003
 20
223.50000000000003
 30
0.0
 11
215.25000000000003
 21
222.50000000000003
 31
0.0
  0
LINE
 62
5
  8
0
 10
215.25000000000003
 20
222.50000000000003
 30
0.0
 11
216.25
 21
222.50000000000003
 31
0.0
  0
LINE
 62
5
  8
0
 10
216.25
 20
222.50000000000003
 30
0.0
 11
216.25
 21
223.50000000000003
 31
0.0
  0
LINE
 62
5
  8
0
 10
216.25
 20
203.50000000000003
 30
0.0
 11
215.25000000000003
 21
203.50000000000003
 31
0.0
  0
LINE
 62
5
  8
0
 10
215.25000000000003
 20
203.50000000000003
 30
0.0
 11
215.25000000000003
 21
202.5
 31
0.0
  0
LINE
 62
5
  8
0
 10
215.25000000000003
 20
202.5
 30
0.0
 11
216.25
 21
202.5
 31
0.0
  0
LINE
 62
5
  8
0
 10
216.25
 20
202.5
 30
0.0
 11
216.25
 21
203.50000000000003
 31
0.0
  0
LINE
 62
5
  8
0
 10
218.75000000000003
 20
223.50000000000003
 30
0.0
 11
217.75000000000003
 21
223.50000000000003
 31
0.0
  0
LINE
 62
5
  8
0
 10
217.75000000000003
 20
223.50000000000003
 30
0.0
 11
217.75000000000003
 21
222.50000000000003
 31
0.0
  0
LINE
 62
5
  8
0
 10
217.75000000000003
 20
222.50000000000003
 30
0.0
 11
218.75000000000003
 21
222.50000000000003
 31
0.0
  0
LINE
 62
5
  8
0
 10
218.75000000000003
 20
222.50000000000003
 30
0.0
 11
218.75000000000003
 21
223.50000000000003
 31
0.0
  0
LINE
 62
5
  8
0
 10
218.75000000000003
 20
203.50000000000003
 30
0.0
 11
217.75000000000003
 21
203.50000000000003
 31
0.0
  0
LINE
 62
5
  8
0
 10
217.75000000000003
 20
203.50000000000003
 30
0.0
 11
217.75000000000003
 21
202.5
 31
0.0
  0
LINE
 62
5
  8
0
 10
217.75000000000003
 20
202.5
 30
0.0
 11
218.75000000000003
 21
202.5
 31
0.0
  0
LINE
 62
5
  8
0
 10
218.75000000000003
 20
202.5
 30
0.0
 11
218.75000000000003
 21
203.50000000000003
 31
0.0
  0
LINE
 62
5
  8
0
 10
221.25000000000003
 20
223.50000000000003
 30
0.0
 11
220.25000000000003
 21
223.50000000000003
 31
0.0
  0
LINE
 62
5
  8
0
 10
220.25000000000003
 20
223.50000000000003
 30
0.0
 11
220.25000000000003
 21
222.50000000000003
 31
0.0
  0
LINE
 62
5
  8
0
 10
220.25000000000003
 20
222.50000000000003
 30
0.0
 11
221.25000000000003
 21
222.50000000000003
 31
0.0
  0
LINE
 62
5
  8
0
 10
221.25000000000003
 20
222.50000000000003
 30
0.0
 11
221.25000000000003
 21
223.50000000000003
 31
0.0
  0
LINE
 62
5
  8
0
 10
221.25000000000003
 20
203.50000000000003
 30
0.0
 11
220.25000000000003
 21
203.50000000000003
 31
0.0
  0
LINE
 62
5
  8
0
 10
220.25000000000003
 20
203.50000000000003
 30
0.0
 11
220.25000000000003
 21
202.5
 31
0.0
  0
LINE
 62
5
  8
0
 10
220.25000000000003
 20
202.5
 30
0.0
 11
221.25000000000003
 21
202.5
 31
0.0
  0
LINE
 62
5
  8
0
 10
221.25000000000003
 20
202.5
 30
0.0
 11
221.25000000000003
 21
203.50000000000003
 31
0.0
  0
LINE
 62
5
  8
0
 10
223.75000000000003
 20
223.50000000000003
 30
0.0
 11
222.75000000000003
 21
223.50000000000003
 31
0.0
  0
LINE
 62
5
  8
0
 10
222.75000000000003
 20
223.50000000000003
 30
0.0
 11
222.75000000000003
 21
222.50000000000003
 31
0.0
  0
LINE
 62
5
  8
0
 10
222.75000000000003
 20
222.50000000000003
 30
0.0
 11
223.75000000000003
 21
222.50000000000003
 31
0.0
  0
LINE
 62
5
  8
0
 10
223.75000000000003
 20
222.50000000000003
 30
0.0
 11
223.75000000000003
 21
223.50000000000003
 31
0.0
  0
LINE
 62
5
  8
0
 10
223.75000000000003
 20
203.50000000000003
 30
0.0
 11
222.75000000000003
 21
203.50000000000003
 31
0.0
  0
LINE
 62
5
  8
0
 10
222.75000000000003
 20
203.50000000000003
 30
0.0
 11
222.75000000000003
 21
202.5
 31
0.0
  0
LINE
 62
5
  8
0
 10
222.75000000000003
 20
202.5
 30
0.0
 11
223.75000000000003
 21
202.5
 31
0.0
  0
LINE
 62
5
  8
0
 10
223.75000000000003
 20
202.5
 30
0.0
 11
223.75000000000003
 21
203.50000000000003
 31
0.0
  0
LINE
 62
5
  8
0
 10
226.25000000000003
 20
223.50000000000003
 30
0.0
 11
225.25
 21
223.50000000000003
 31
0.0
  0
LINE
 62
5
  8
0
 10
225.25
 20
223.50000000000003
 30
0.0
 11
225.25
 21
222.50000000000003
 31
0.0
  0
LINE
 62
5
  8
0
 10
225.25
 20
222.50000000000003
 30
0.0
 11
226.25000000000003
 21
222.50000000000003
 31
0.0
  0
LINE
 62
5
  8
0
 10
226.25000000000003
 20
222.50000000000003
 30
0.0
 11
226.25000000000003
 21
223.50000000000003
 31
0.0
  0
LINE
 62
5
  8
0
 10
226.25000000000003
 20
203.50000000000003
 30
0.0
 11
225.25
 21
203.50000000000003
 31
0.0
  0
LINE
 62
5
  8
0
 10
225.25
 20
203.50000000000003
 30
0.0
 11
225.25
 21
202.5
 31
0.0
  0
LINE
 62
5
  8
0
 10
225.25
 20
202.5
 30
0.0
 11
226.25000000000003
 21
202.5
 31
0.0
  0
LINE
 62
5
  8
0
 10
226.25000000000003
 20
202.5
 30
0.0
 11
226.25000000000003
 21
203.50000000000003
 31
0.0
  0
LINE
 62
5
  8
0
 10
228.75000000000003
 20
223.50000000000003
 30
0.0
 11
227.75000000000003
 21
223.50000000000003
 31
0.0
  0
LINE
 62
5
  8
0
 10
227.75000000000003
 20
223.50000000000003
 30
0.0
 11
227.75000000000003
 21
222.50000000000003
 31
0.0
  0
LINE
 62
5
  8
0
 10
227.75000000000003
 20
222.50000000000003
 30
0.0
 11
228.75000000000003
 21
222.50000000000003
 31
0.0
  0
LINE
 62
5
  8
0
 10
228.75000000000003
 20
222.50000000000003
 30
0.0
 11
228.75000000000003
 21
223.50000000000003
 31
0.0
  0
LINE
 62
5
  8
0
 10
228.75000000000003
 20
203.50000000000003
 30
0.0
 11
227.75000000000003
 21
203.50000000000003
 31
0.0
  0
LINE
 62
5
  8
0
 10
227.75000000000003
 20
203.50000000000003
 30
0.0
 11
227.75000000000003
 21
202.5
 31
0.0
  0
LINE
 62
5
  8
0
 10
227.75000000000003
 20
202.5
 30
0.0
 11
228.75000000000003
 21
202.5
 31
0.0
  0
LINE
 62
5
  8
0
 10
228.75000000000003
 20
202.5
 30
0.0
 11
228.75000000000003
 21
203.50000000000003
 31
0.0
  0
LINE
 62
5
  8
0
 10
231.25000000000003
 20
223.50000000000003
 30
0.0
 11
230.25000000000003
 21
223.50000000000003
 31
0.0
  0
LINE
 62
5
  8
0
 10
230.25000000000003
 20
223.50000000000003
 30
0.0
 11
230.25000000000003
 21
222.50000000000003
 31
0.0
  0
LINE
 62
5
  8
0
 10
230.25000000000003
 20
222.50000000000003
 30
0.0
 11
231.25000000000003
 21
222.50000000000003
 31
0.0
  0
LINE
 62
5
  8
0
 10
231.25000000000003
 20
222.50000000000003
 30
0.0
 11
231.25000000000003
 21
223.50000000000003
 31
0.0
  0
LINE
 62
5
  8
0
 10
231.25000000000003
 20
203.50000000000003
 30
0.0
 11
230.25000000000003
 21
203.50000000000003
 31
0.0
  0
LINE
 62
5
  8
0
 10
230.25000000000003
 20
203.50000000000003
 30
0.0
 11
230.25000000000003
 21
202.5
 31
0.0
  0
LINE
 62
5
  8
0
 10
230.25000000000003
 20
202.5
 30
0.0
 11
231.25000000000003
 21
202.5
 31
0.0
  0
LINE
 62
5
  8
0
 10
231.25000000000003
 20
202.5
 30
0.0
 11
231.25000000000003
 21
203.50000000000003
 31
0.0
  0
LINE
 62
5
  8
0
 10
233.75000000000003
 20
223.50000000000003
 30
0.0
 11
232.75000000000003
 21
223.50000000000003
 31
0.0
  0
LINE
 62
5
  8
0
 10
232.75000000000003
 20
223.50000000000003
 30
0.0
 11
232.75000000000003
 21
222.50000000000003
 31
0.0
  0
LINE
 62
5
  8
0
 10
232.75000000000003
 20
222.50000000000003
 30
0.0
 11
233.75000000000003
 21
222.50000000000003
 31
0.0
  0
LINE
 62
5
  8
0
 10
233.75000000000003
 20
222.50000000000003
 30
0.0
 11
233.75000000000003
 21
223.50000000000003
 31
0.0
  0
LINE
 62
5
  8
0
 10
233.75000000000003
 20
203.50000000000003
 30
0.0
 11
232.75000000000003
 21
203.50000000000003
 31
0.0
  0
LINE
 62
5
  8
0
 10
232.75000000000003
 20
203.50000000000003
 30
0.0
 11
232.75000000000003
 21
202.5
 31
0.0
  0
LINE
 62
5
  8
0
 10
232.75000000000003
 20
202.5
 30
0.0
 11
233.75000000000003
 21
202.5
 31
0.0
  0
LINE
 62
5
  8
0
 10
233.75000000000003
 20
202.5
 30
0.0
 11
233.75000000000003
 21
203.50000000000003
 31
0.0
  0
LINE
 62
5
  8
0
 10
236.25000000000003
 20
223.50000000000003
 30
0.0
 11
235.25000000000003
 21
223.50000000000003
 31
0.0
  0
LINE
 62
5
  8
0
 10
235.25000000000003
 20
223.50000000000003
 30
0.0
 11
235.25000000000003
 21
222.50000000000003
 31
0.0
  0
LINE
 62
5
  8
0
 10
235.25000000000003
 20
222.50000000000003
 30
0.0
 11
236.25000000000003
 21
222.50000000000003
 31
0.0
  0
LINE
 62
5
  8
0
 10
236.25000000000003
 20
222.50000000000003
 30
0.0
 11
236.25000000000003
 21
223.50000000000003
 31
0.0
  0
LINE
 62
5
  8
0
 10
236.25000000000003
 20
203.50000000000003
 30
0.0
 11
235.25000000000003
 21
203.50000000000003
 31
0.0
  0
LINE
 62
5
  8
0
 10
235.25000000000003
 20
203.50000000000003
 30
0.0
 11
235.25000000000003
 21
202.5
 31
0.0
  0
LINE
 62
5
  8
0
 10
235.25000000000003
 20
202.5
 30
0.0
 11
236.25000000000003
 21
202.5
 31
0.0
  0
LINE
 62
5
  8
0
 10
236.25000000000003
 20
202.5
 30
0.0
 11
236.25000000000003
 21
203.50000000000003
 31
0.0
  0
LINE
 62
5
  8
0
 10
238.75000000000003
 20
223.50000000000003
 30
0.0
 11
237.75000000000003
 21
223.50000000000003
 31
0.0
  0
LINE
 62
5
  8
0
 10
237.75000000000003
 20
223.50000000000003
 30
0.0
 11
237.75000000000003
 21
222.50000000000003
 31
0.0
  0
LINE
 62
5
  8
0
 10
237.75000000000003
 20
222.50000000000003
 30
0.0
 11
238.75000000000003
 21
222.50000000000003
 31
0.0
  0
LINE
 62
5
  8
0
 10
238.75000000000003
 20
222.50000000000003
 30
0.0
 11
238.75000000000003
 21
223.50000000000003
 31
0.0
  0
LINE
 62
5
  8
0
 10
238.75000000000003
 20
203.50000000000003
 30
0.0
 11
237.75000000000003
 21
203.50000000000003
 31
0.0
  0
LINE
 62
5
  8
0
 10
237.75000000000003
 20
203.50000000000003
 30
0.0
 11
237.75000000000003
 21
202.5
 31
0.0
  0
LINE
 62
5
  8
0
 10
237.75000000000003
 20
202.5
 30
0.0
 11
238.75000000000003
 21
202.5
 31
0.0
  0
LINE
 62
5
  8
0
 10
238.75000000000003
 20
202.5
 30
0.0
 11
238.75000000000003
 21
203.50000000000003
 31
0.0
  0
LINE
 62
5
  8
0
 10
241.25000000000003
 20
223.50000000000003
 30
0.0
 11
240.25000000000003
 21
223.50000000000003
 31
0.0
  0
LINE
 62
5
  8
0
 10
240.25000000000003
 20
223.50000000000003
 30
0.0
 11
240.25000000000003
 21
222.50000000000003
 31
0.0
  0
LINE
 62
5
  8
0
 10
240.25000000000003
 20
222.50000000000003
 30
0.0
 11
241.25000000000003
 21
222.50000000000003
 31
0.0
  0
LINE
 62
5
  8
0
 10
241.25000000000003
 20
222.50000000000003
 30
0.0
 11
241.25000000000003
 21
223.50000000000003
 31
0.0
  0
LINE
 62
5
  8
0
 10
241.25000000000003
 20
203.50000000000003
 30
0.0
 11
240.25000000000003
 21
203.50000000000003
 31
0.0
  0
LINE
 62
5
  8
0
 10
240.25000000000003
 20
203.50000000000003
 30
0.0
 11
240.25000000000003
 21
202.5
 31
0.0
  0
LINE
 62
5
  8
0
 10
240.25000000000003
 20
202.5
 30
0.0
 11
241.25000000000003
 21
202.5
 31
0.0
  0
LINE
 62
5
  8
0
 10
241.25000000000003
 20
202.5
 30
0.0
 11
241.25000000000003
 21
203.50000000000003
 31
0.0
  0
LINE
 62
5
  8
0
 10
243.75000000000003
 20
223.50000000000003
 30
0.0
 11
242.75000000000003
 21
223.50000000000003
 31
0.0
  0
LINE
 62
5
  8
0
 10
242.75000000000003
 20
223.50000000000003
 30
0.0
 11
242.75000000000003
 21
222.50000000000003
 31
0.0
  0
LINE
 62
5
  8
0
 10
242.75000000000003
 20
222.50000000000003
 30
0.0
 11
243.75000000000003
 21
222.50000000000003
 31
0.0
  0
LINE
 62
5
  8
0
 10
243.75000000000003
 20
222.50000000000003
 30
0.0
 11
243.75000000000003
 21
223.50000000000003
 31
0.0
  0
LINE
 62
5
  8
0
 10
243.75000000000003
 20
203.50000000000003
 30
0.0
 11
242.75000000000003
 21
203.50000000000003
 31
0.0
  0
LINE
 62
5
  8
0
 10
242.75000000000003
 20
203.50000000000003
 30
0.0
 11
242.75000000000003
 21
202.5
 31
0.0
  0
LINE
 62
5
  8
0
 10
242.75000000000003
 20
202.5
 30
0.0
 11
243.75000000000003
 21
202.5
 31
0.0
  0
LINE
 62
5
  8
0
 10
243.75000000000003
 20
202.5
 30
0.0
 11
243.75000000000003
 21
203.50000000000003
 31
0.0
  0
LINE
 62
5
  8
0
 10
246.25000000000003
 20
223.50000000000003
 30
0.0
 11
245.25000000000003
 21
223.50000000000003
 31
0.0
  0
LINE
 62
5
  8
0
 10
245.25000000000003
 20
223.50000000000003
 30
0.0
 11
245.25000000000003
 21
222.50000000000003
 31
0.0
  0
LINE
 62
5
  8
0
 10
245.25000000000003
 20
222.50000000000003
 30
0.0
 11
246.25000000000003
 21
222.50000000000003
 31
0.0
  0
LINE
 62
5
  8
0
 10
246.25000000000003
 20
222.50000000000003
 30
0.0
 11
246.25000000000003
 21
223.50000000000003
 31
0.0
  0
LINE
 62
5
  8
0
 10
246.25000000000003
 20
203.50000000000003
 30
0.0
 11
245.25000000000003
 21
203.50000000000003
 31
0.0
  0
LINE
 62
5
  8
0
 10
245.25000000000003
 20
203.50000000000003
 30
0.0
 11
245.25000000000003
 21
202.5
 31
0.0
  0
LINE
 62
5
  8
0
 10
245.25000000000003
 20
202.5
 30
0.0
 11
246.25000000000003
 21
202.5
 31
0.0
  0
LINE
 62
5
  8
0
 10
246.25000000000003
 20
202.5
 30
0.0
 11
246.25000000000003
 21
203.50000000000003
 31
0.0
  0
LINE
 62
5
  8
0
 10
248.75000000000003
 20
223.50000000000003
 30
0.0
 11
247.75000000000003
 21
223.50000000000003
 31
0.0
  0
LINE
 62
5
  8
0
 10
247.75000000000003
 20
223.50000000000003
 30
0.0
 11
247.75000000000003
 21
222.50000000000003
 31
0.0
  0
LINE
 62
5
  8
0
 10
247.75000000000003
 20
222.50000000000003
 30
0.0
 11
248.75000000000003
 21
222.50000000000003
 31
0.0
  0
LINE
 62
5
  8
0
 10
248.75000000000003
 20
222.50000000000003
 30
0.0
 11
248.75000000000003
 21
223.50000000000003
 31
0.0
  0
LINE
 62
5
  8
0
 10
248.75000000000003
 20
203.50000000000003
 30
0.0
 11
247.75000000000003
 21
203.50000000000003
 31
0.0
  0
LINE
 62
5
  8
0
 10
247.75000000000003
 20
203.50000000000003
 30
0.0
 11
247.75000000000003
 21
202.5
 31
0.0
  0
LINE
 62
5
  8
0
 10
247.75000000000003
 20
202.5
 30
0.0
 11
248.75000000000003
 21
202.5
 31
0.0
  0
LINE
 62
5
  8
0
 10
248.75000000000003
 20
202.5
 30
0.0
 11
248.75000000000003
 21
203.50000000000003
 31
0.0
  0
LINE
 62
5
  8
0
 10
251.25000000000003
 20
223.50000000000003
 30
0.0
 11
250.25000000000006
 21
223.50000000000003
 31
0.0
  0
LINE
 62
5
  8
0
 10
250.25000000000006
 20
223.50000000000003
 30
0.0
 11
250.25000000000006
 21
222.50000000000003
 31
0.0
  0
LINE
 62
5
  8
0
 10
250.25000000000006
 20
222.50000000000003
 30
0.0
 11
251.25000000000003
 21
222.50000000000003
 31
0.0
  0
LINE
 62
5
  8
0
 10
251.25000000000003
 20
222.50000000000003
 30
0.0
 11
251.25000000000003
 21
223.50000000000003
 31
0.0
  0
LINE
 62
5
  8
0
 10
252.25000000000003
 20
204.50000000000003
 30
0.0
 11
249.25000000000003
 21
204.50000000000003
 31
0.0
  0
LINE
 62
5
  8
0
 10
249.25000000000003
 20
204.50000000000003
 30
0.0
 11
249.25000000000003
 21
201.50000000000003
 31
0.0
  0
LINE
 62
5
  8
0
 10
249.25000000000003
 20
201.50000000000003
 30
0.0
 11
252.25000000000003
 21
201.50000000000003
 31
0.0
  0
LINE
 62
5
  8
0
 10
252.25000000000003
 20
201.50000000000003
 30
0.0
 11
252.25000000000003
 21
204.50000000000003
 31
0.0
  0
LINE
 62
5
  8
0
 10
242.00000000000003
 20
191.25
 30
0.0
 11
248.50000000000003
 21
191.25
 31
0.0
  0
LINE
 62
5
  8
0
 10
248.50000000000003
 20
191.25
 30
0.0
 11
242.00000000000003
 21
197.75
 31
0.0
  0
LINE
 62
5
  8
0
 10
242.00000000000003
 20
197.75
 30
0.0
 11
222.00000000000003
 21
197.75
 31
0.0
  0
LINE
 62
5
  8
0
 10
222.00000000000003
 20
197.75
 30
0.0
 11
215.50000000000003
 21
191.25
 31
0.0
  0
LINE
 62
5
  8
0
 10
215.50000000000003
 20
191.25
 30
0.0
 11
222.00000000000003
 21
191.25
 31
0.0
  0
LINE
 62
5
  8
0
 10
269.50000000000006
 20
254.18181818181822
 30
0.0
 11
264.5
 21
254.18181818181822
 31
0.0
  0
LINE
 62
5
  8
0
 10
264.5
 20
254.18181818181822
 30
0.0
 11
264.5
 21
242.3636363636364
 31
0.0
  0
LINE
 62
5
  8
0
 10
264.5
 20
242.3636363636364
 30
0.0
 11
269.50000000000006
 21
242.3636363636364
 31
0.0
  0
LINE
 62
5
  8
0
 10
269.50000000000006
 20
224.63636363636365
 30
0.0
 11
264.5
 21
224.63636363636365
 31
0.0
  0
LINE
 62
5
  8
0
 10
264.5
 20
224.63636363636365
 30
0.0
 11
264.5
 21
212.81818181818184
 31
0.0
  0
LINE
 62
5
  8
0
 10
264.5
 20
212.81818181818184
 30
0.0
 11
269.50000000000006
 21
212.81818181818184
 31
0.0
  0
LINE
 62
5
  8
0
 10
105.93500000000002
 20
164.0
 30
0.0
 11
93.06500000000001
 21
164.0
 31
0.0
  0
LINE
 62
5
  8
0
 10
93.06500000000001
 20
164.0
 30
0.0
 11
93.06500000000001
 21
141.0
 31
0.0
  0
LINE
 62
5
  8
0
 10
93.06500000000001
 20
141.0
 30
0.0
 11
105.93500000000002
 21
141.0
 31
0.0
  0
LINE
 62
5
  8
0
 10
105.93500000000002
 20
141.0
 30
0.0
 11
105.93500000000002
 21
164.0
 31
0.0
  0
LINE
 62
5
  8
0
 10
85.58333333333336
 20
143.75
 30
0.0
 11
77.41666666666667
 21
143.75
 31
0.0
  0
LINE
 62
5
  8
0
 10
77.41666666666667
 20
143.75
 30
0.0
 11
77.41666666666667
 21
143.25
 31
0.0
  0
LINE
 62
5
  8
0
 10
77.41666666666667
 20
143.25
 30
0.0
 11
85.58333333333336
 21
143.25
 31
0.0
  0
LINE
 62
5
  8
0
 10
85.58333333333336
 20
143.25
 30
0.0
 11
85.58333333333336
 21
143.75
 31
0.0
  0
LINE
 62
5
  8
0
 10
93.06500000000001
 20
108.00000000000001
 30
0.0
 11
105.93500000000002
 21
108.00000000000001
 31
0.0
  0
LINE
 62
5
  8
0
 10
105.93500000000002
 20
108.00000000000001
 30
0.0
 11
105.93500000000002
 21
131.0
 31
0.0
  0
LINE
 62
5
  8
0
 10
105.93500000000002
 20
131.0
 30
0.0
 11
93.06500000000001
 21
131.0
 31
0.0
  0
LINE
 62
5
  8
0
 10
93.06500000000001
 20
131.0
 30
0.0
 11
93.06500000000001
 21
108.00000000000001
 31
0.0
  0
LINE
 62
5
  8
0
 10
129.08333333333331
 20
128.25000000000003
 30
0.0
 11
129.08333333333337
 21
133.75000000000003
 31
0.0
  0
LINE
 62
5
  8
0
 10
129.08333333333337
 20
133.75000000000003
 30
0.0
 11
129.58333333333337
 21
133.75000000000003
 31
0.0
  0
LINE
 62
5
  8
0
 10
129.58333333333337
 20
133.75000000000003
 30
0.0
 11
129.58333333333334
 21
128.25000000000003
 31
0.0
  0
LINE
 62
5
  8
0
 10
129.58333333333334
 20
128.25000000000003
 30
0.0
 11
129.08333333333331
 21
128.25000000000003
 31
0.0
  0
LINE
 62
5
  8
0
 10
106.75000000000001
 20
80.08333333333336
 30
0.0
 11
106.75000000000001
 21
87.91666666666669
 31
0.0
  0
LINE
 62
5
  8
0
 10
106.75000000000001
 20
87.91666666666669
 30
0.0
 11
106.25000000000001
 21
87.91666666666669
 31
0.0
  0
LINE
 62
5
  8
0
 10
106.25000000000001
 20
87.91666666666669
 30
0.0
 11
106.25000000000001
 21
80.08333333333336
 31
0.0
  0
LINE
 62
5
  8
0
 10
106.25000000000001
 20
80.08333333333336
 30
0.0
 11
106.75000000000001
 21
80.08333333333336
 31
0.0
  0
LINE
 62
5
  8
0
 10
106.75000000000001
 20
17.08333333333333
 30
0.0
 11
106.75000000000001
 21
24.916666666666675
 31
0.0
  0
LINE
 62
5
  8
0
 10
106.75000000000001
 20
24.916666666666675
 30
0.0
 11
106.25000000000001
 21
24.916666666666675
 31
0.0
  0
LINE
 62
5
  8
0
 10
106.25000000000001
 20
24.916666666666675
 30
0.0
 11
106.25000000000001
 21
17.08333333333333
 31
0.0
  0
LINE
 62
5
  8
0
 10
106.25000000000001
 20
17.08333333333333
 30
0.0
 11
106.75000000000001
 21
17.08333333333333
 31
0.0
  0
LINE
 62
5
  8
0
 10
129.33333333333337
 20
7.500000000000001
 30
0.0
 11
133.6666666666667
 21
7.500000000000001
 31
0.0
  0
LINE
 62
5
  8
0
 10
133.6666666666667
 20
7.500000000000001
 30
0.0
 11
133.66666666666669
 21
2.5000000000000004
 31
0.0
  0
LINE
 62
5
  8
0
 10
133.66666666666669
 20
2.5000000000000004
 30
0.0
 11
129.33333333333337
 21
2.5000000000000004
 31
0.0
  0
LINE
 62
5
  8
0
 10
158.50000000000003
 20
24.666666666666675
 30
0.0
 11
153.50000000000003
 21
24.666666666666675
 31
0.0
  0
LINE
 62
5
  8
0
 10
153.50000000000003
 20
24.666666666666675
 30
0.0
 11
153.50000000000003
 21
17.333333333333343
 31
0.0
  0
LINE
 62
5
  8
0
 10
153.50000000000003
 20
17.333333333333343
 30
0.0
 11
158.50000000000003
 21
17.33333333333333
 31
0.0
  0
LINE
 62
5
  8
0
 10
149.25000000000003
 20
59.583333333333336
 30
0.0
 11
149.25000000000003
 21
45.41666666666667
 31
0.0
  0
LINE
 62
5
  8
0
 10
149.25000000000003
 20
45.41666666666667
 30
0.0
 11
149.75
 21
45.41666666666667
 31
0.0
  0
LINE
 62
5
  8
0
 10
149.75
 20
45.41666666666667
 30
0.0
 11
149.75
 21
59.583333333333336
 31
0.0
  0
LINE
 62
5
  8
0
 10
149.75
 20
59.583333333333336
 30
0.0
 11
149.25000000000003
 21
59.583333333333336
 31
0.0
  0
LINE
 62
5
  8
0
 10
93.06500000000001
 20
37.0
 30
0.0
 11
105.93500000000002
 21
37.0
 31
0.0
  0
LINE
 62
5
  8
0
 10
105.93500000000002
 20
37.0
 30
0.0
 11
105.93500000000002
 21
60.00000000000001
 31
0.0
  0
LINE
 62
5
  8
0
 10
105.93500000000002
 20
60.00000000000001
 30
0.0
 11
93.06500000000001
 21
60.00000000000001
 31
0.0
  0
LINE
 62
5
  8
0
 10
93.06500000000001
 20
60.00000000000001
 30
0.0
 11
93.06500000000001
 21
37.0
 31
0.0
  0
LINE
 62
5
  8
0
 10
85.50000000000001
 20
45.66666666666667
 30
0.0
 11
85.50000000000001
 21
40.666666666666664
 31
0.0
  0
LINE
 62
5
  8
0
 10
85.50000000000001
 20
40.666666666666664
 30
0.0
 11
90.50000000000001
 21
45.66666666666667
 31
0.0
  0
LINE
 62
5
  8
0
 10
90.50000000000001
 20
45.66666666666667
 30
0.0
 11
90.50000000000001
 21
59.333333333333336
 31
0.0
  0
LINE
 62
5
  8
0
 10
90.50000000000001
 20
59.333333333333336
 30
0.0
 11
85.50000000000001
 21
64.33333333333333
 31
0.0
  0
LINE
 62
5
  8
0
 10
85.50000000000001
 20
64.33333333333333
 30
0.0
 11
85.50000000000001
 21
59.333333333333336
 31
0.0
  0
LINE
 62
5
  8
0
 10
158.50000000000003
 20
87.66666666666667
 30
0.0
 11
153.50000000000003
 21
87.66666666666667
 31
0.0
  0
LINE
 62
5
  8
0
 10
153.50000000000003
 20
87.66666666666667
 30
0.0
 11
153.50000000000003
 21
80.33333333333336
 31
0.0
  0
LINE
 62
5
  8
0
 10
153.50000000000003
 20
80.33333333333336
 30
0.0
 11
158.50000000000003
 21
80.33333333333336
 31
0.0
  0
LINE
 62
5
  8
0
 10
149.25000000000003
 20
122.58333333333334
 30
0.0
 11
149.25000000000003
 21
108.41666666666667
 31
0.0
  0
LINE
 62
5
  8
0
 10
149.25000000000003
 20
108.41666666666667
 30
0.0
 11
149.75
 21
108.41666666666667
 31
0.0
  0
LINE
 62
5
  8
0
 10
149.75
 20
108.41666666666667
 30
0.0
 11
149.75
 21
122.58333333333334
 31
0.0
  0
LINE
 62
5
  8
0
 10
149.75
 20
122.58333333333334
 30
0.0
 11
149.25000000000003
 21
122.58333333333334
 31
0.0
  0
LINE
 62
5
  8
0
 10
85.50000000000001
 20
108.66666666666667
 30
0.0
 11
85.50000000000001
 21
103.66666666666667
 31
0.0
  0
LINE
 62
5
  8
0
 10
85.50000000000001
 20
103.66666666666667
 30
0.0
 11
90.50000000000001
 21
108.66666666666667
 31
0.0
  0
LINE
 62
5
  8
0
 10
90.50000000000001
 20
108.66666666666667
 30
0.0
 11
90.50000000000001
 21
122.33333333333334
 31
0.0
  0
LINE
 62
5
  8
0
 10
90.50000000000001
 20
122.33333333333334
 30
0.0
 11
85.50000000000001
 21
127.33333333333334
 31
0.0
  0
LINE
 62
5
  8
0
 10
85.50000000000001
 20
127.33333333333334
 30
0.0
 11
85.50000000000001
 21
122.33333333333334
 31
0.0
  0
LINE
 62
5
  8
0
 10
29.750000000000004
 20
191.0
 30
0.0
 11
50.25000000000001
 21
191.0
 31
0.0
  0
LINE
 62
5
  8
0
 10
50.25000000000001
 20
191.0
 30
0.0
 11
50.25000000000001
 21
191.50000000000003
 31
0.0
  0
LINE
 62
5
  8
0
 10
50.25000000000001
 20
191.50000000000003
 30
0.0
 11
29.750000000000004
 21
191.50000000000003
 31
0.0
  0
LINE
 62
5
  8
0
 10
29.750000000000004
 20
191.50000000000003
 30
0.0
 11
29.750000000000004
 21
191.0
 31
0.0
  0
LINE
 62
5
  8
0
 10
2.5000000000000004
 20
147.8181818181818
 30
0.0
 11
7.500000000000001
 21
147.8181818181818
 31
0.0
  0
LINE
 62
5
  8
0
 10
7.500000000000001
 20
147.8181818181818
 30
0.0
 11
7.500000000000001
 21
159.63636363636363
 31
0.0
  0
LINE
 62
5
  8
0
 10
7.500000000000001
 20
159.63636363636363
 30
0.0
 11
2.5000000000000004
 21
159.63636363636363
 31
0.0
  0
LINE
 62
5
  8
0
 10
2.5000000000000004
 20
177.3636363636364
 30
0.0
 11
7.500000000000001
 21
177.3636363636364
 31
0.0
  0
LINE
 62
5
  8
0
 10
7.500000000000001
 20
177.3636363636364
 30
0.0
 11
7.500000000000001
 21
189.18181818181822
 31
0.0
  0
LINE
 62
5
  8
0
 10
7.500000000000001
 20
189.18181818181822
 30
0.0
 11
2.5000000000000004
 21
189.18181818181822
 31
0.0
  0
LINE
 62
5
  8
0
 10
282.0
 20
106.00000000000001
 30
0.0
 11
282.0
 21
106.00000000000001
 31
0.0
  0
LINE
 62
5
  8
0
 10
282.0
 20
106.00000000000001
 30
0.0
 11
282.0
 21
106.00000000000001
 31
0.0
  0
LINE
 62
5
  8
0
 10
282.0
 20
106.00000000000001
 30
0.0
 11
282.0
 21
106.00000000000001
 31
0.0
  0
LINE
 62
5
  8
0
 10
282.0
 20
106.00000000000001
 30
0.0
 11
282.0
 21
106.00000000000001
 31
0.0
  0
LINE
 62
5
  8
0
 10
345.33333333333337
 20
106.00000000000001
 30
0.0
 11
345.0050224158704
 21
101.82841426559385
 31
0.0
  0
LINE
 62
5
  8
0
 10
345.0050224158704
 20
110.17158573440616
 30
0.0
 11
345.33333333333337
 21
106.00000000000001
 31
0.0
  0
LINE
 62
5
  8
0
 10
344.0281737678708
 20
114.24045318333195
 30
0.0
 11
345.0050224158704
 21
110.17158573440616
 31
0.0
  0
LINE
 62
5
  8
0
 10
342.4268406450232
 20
118.10641332638792
 30
0.0
 11
344.0281737678708
 21
114.24045318333195
 31
0.0
  0
LINE
 62
5
  8
0
 10
340.24045318333197
 20
121.67427339446597
 30
0.0
 11
342.4268406450232
 21
118.10641332638792
 31
0.0
  0
LINE
 62
5
  8
0
 10
337.522847498308
 20
124.85618083164128
 30
0.0
 11
340.24045318333197
 21
121.67427339446597
 31
0.0
  0
LINE
 62
5
  8
0
 10
334.3409400611327
 20
127.57378651666528
 30
0.0
 11
337.522847498308
 21
124.85618083164128
 31
0.0
  0
LINE
 62
5
  8
0
 10
330.7730799930546
 20
129.7601739783565
 30
0.0
 11
334.3409400611327
 21
127.57378651666528
 31
0.0
  0
LINE
 62
5
  8
0
 10
326.9071198499986
 20
131.36150710120413
 30
0.0
 11
330.7730799930546
 21
129.7601739783565
 31
0.0
  0
LINE
 62
5
  8
0
 10
322.83825240107285
 20
132.33835574920369
 30
0.0
 11
326.9071198499986
 21
131.36150710120413
 31
0.0
  0
LINE
 62
5
  8
0
 10
318.6666666666667
 20
132.66666666666669
 30
0.0
 11
322.83825240107285
 21
132.33835574920369
 31
0.0
  0
LINE
 62
5
  8
0
 10
314.4950809322606
 20
132.33835574920369
 30
0.0
 11
318.6666666666667
 21
132.66666666666669
 31
0.0
  0
LINE
 62
5
  8
0
 10
310.42621348333483
 20
131.36150710120413
 30
0.0
 11
314.4950809322606
 21
132.33835574920369
 31
0.0
  0
LINE
 62
5
  8
0
 10
306.5602533402788
 20
129.7601739783565
 30
0.0
 11
310.42621348333483
 21
131.36150710120413
 31
0.0
  0
LINE
 62
5
  8
0
 10
302.9923932722008
 20
127.57378651666528
 30
0.0
 11
306.5602533402788
 21
129.7601739783565
 31
0.0
  0
LINE
 62
5
  8
0
 10
299.8104858350255
 20
124.85618083164128
 30
0.0
 11
302.9923932722008
 21
127.57378651666528
 31
0.0
  0
LINE
 62
5
  8
0
 10
297.09288015000146
 20
121.67427339446597
 30
0.0
 11
299.8104858350255
 21
124.85618083164128
 31
0.0
  0
LINE
 62
5
  8
0
 10
294.9064926883102
 20
118.10641332638794
 30
0.0
 11
297.09288015000146
 21
121.67427339446597
 31
0.0
  0
LINE
 62
5
  8
0
 10
293.3051595654626
 20
114.24045318333195
 30
0.0
 11
294.9064926883102
 21
118.10641332638794
 31
0.0
  0
LINE
 62
5
  8
0
 10
292.328310917463
 20
110.17158573440618
 30
0.0
 11
293.3051595654626
 21
114.24045318333195
 31
0.0
  0
LINE
 62
5
  8
0
 10
292.0
 20
106.00000000000001
 30
0.0
 11
292.328310917463
 21
110.17158573440618
 31
0.0
  0
LINE
 62
5
  8
0
 10
292.328310917463
 20
101.82841426559385
 30
0.0
 11
292.0
 21
106.00000000000001
 31
0.0
  0
LINE
 62
5
  8
0
 10
293.3051595654626
 20
97.75954681666809
 30
0.0
 11
292.328310917463
 21
101.82841426559385
 31
0.0
  0
LINE
 62
5
  8
0
 10
294.9064926883102
 20
93.8935866736121
 30
0.0
 11
293.3051595654626
 21
97.75954681666809
 31
0.0
  0
LINE
 62
5
  8
0
 10
297.09288015000146
 20
90.32572660553406
 30
0.0
 11
294.9064926883102
 21
93.8935866736121
 31
0.0
  0
LINE
 62
5
  8
0
 10
299.8104858350255
 20
87.14381916835873
 30
0.0
 11
297.09288015000146
 21
90.32572660553406
 31
0.0
  0
LINE
 62
5
  8
0
 10
302.9923932722008
 20
84.42621348333473
 30
0.0
 11
299.8104858350255
 21
87.14381916835873
 31
0.0
  0
LINE
 62
5
  8
0
 10
306.5602533402788
 20
82.23982602164354
 30
0.0
 11
302.9923932722008
 21
84.42621348333473
 31
0.0
  0
LINE
 62
5
  8
0
 10
310.42621348333483
 20
80.63849289879592
 30
0.0
 11
306.5602533402788
 21
82.23982602164354
 31
0.0
  0
LINE
 62
5
  8
0
 10
314.4950809322606
 20
79.66164425079634
 30
0.0
 11
310.42621348333483
 21
80.63849289879592
 31
0.0
  0
LINE
 62
5
  8
0
 10
318.6666666666667
 20
79.33333333333336
 30
0.0
 11
314.4950809322606
 21
79.66164425079634
 31
0.0
  0
LINE
 62
5
  8
0
 10
322.83825240107285
 20
79.66164425079634
 30
0.0
 11
318.6666666666667
 21
79.33333333333336
 31
0.0
  0
LINE
 62
5
  8
0
 10
326.9071198499986
 20
80.63849289879592
 30
0.0
 11
322.83825240107285
 21
79.66164425079634
 31
0.0
  0
LINE
 62
5
  8
0
 10
330.7730799930546
 20
82.23982602164354
 30
0.0
 11
326.9071198499986
 21
80.63849289879592
 31
0.0
  0
LINE
 62
5
  8
0
 10
334.3409400611327
 20
84.42621348333473
 30
0.0
 11
330.7730799930546
 21
82.23982602164354
 31
0.0
  0
LINE
 62
5
  8
0
 10
337.522847498308
 20
87.14381916835873
 30
0.0
 11
334.3409400611327
 21
84.42621348333473
 31
0.0
  0
LINE
 62
5
  8
0
 10
340.24045318333197
 20
90.32572660553404
 30
0.0
 11
337.522847498308
 21
87.14381916835873
 31
0.0
  0
LINE
 62
5
  8
0
 10
342.4268406450232
 20
93.89358667361209
 30
0.0
 11
340.24045318333197
 21
90.32572660553404
 31
0.0
  0
LINE
 62
5
  8
0
 10
344.0281737678708
 20
97.75954681666808
 30
0.0
 11
342.4268406450232
 21
93.89358667361209
 31
0.0
  0
LINE
 62
5
  8
0
 10
345.0050224158704
 20
101.82841426559385
 30
0.0
 11
344.0281737678708
 21
97.75954681666808
 31
0.0
  0
LINE
 62
5
  8
0
 10
355.33333333333337
 20
106.00000000000001
 30
0.0
 11
355.33333333333337
 21
106.00000000000001
 31
0.0
  0
LINE
 62
5
  8
0
 10
355.33333333333337
 20
106.00000000000001
 30
0.0
 11
355.33333333333337
 21
106.00000000000001
 31
0.0
  0
LINE
 62
5
  8
0
 10
355.33333333333337
 20
106.00000000000001
 30
0.0
 11
355.33333333333337
 21
106.00000000000001
 31
0.0
  0
LINE
 62
5
  8
0
 10
355.33333333333337
 20
106.00000000000001
 30
0.0
 11
355.33333333333337
 21
106.00000000000001
 31
0.0
  0
LINE
 62
5
  8
0
 10
418.6666666666668
 20
106.00000000000001
 30
0.0
 11
418.3383557492038
 21
101.82841426559385
 31
0.0
  0
LINE
 62
5
  8
0
 10
418.3383557492038
 20
110.17158573440616
 30
0.0
 11
418.6666666666668
 21
106.00000000000001
 31
0.0
  0
LINE
 62
5
  8
0
 10
417.3615071012042
 20
114.24045318333195
 30
0.0
 11
418.3383557492038
 21
110.17158573440616
 31
0.0
  0
LINE
 62
5
  8
0
 10
415.7601739783566
 20
118.10641332638792
 30
0.0
 11
417.3615071012042
 21
114.24045318333195
 31
0.0
  0
LINE
 62
5
  8
0
 10
413.57378651666534
 20
121.67427339446597
 30
0.0
 11
415.7601739783566
 21
118.10641332638792
 31
0.0
  0
LINE
 62
5
  8
0
 10
410.8561808316413
 20
124.85618083164128
 30
0.0
 11
413.57378651666534
 21
121.67427339446597
 31
0.0
  0
LINE
 62
5
  8
0
 10
407.67427339446607
 20
127.57378651666528
 30
0.0
 11
410.8561808316413
 21
124.85618083164128
 31
0.0
  0
LINE
 62
5
  8
0
 10
404.106413326388
 20
129.7601739783565
 30
0.0
 11
407.67427339446607
 21
127.57378651666528
 31
0.0
  0
LINE
 62
5
  8
0
 10
400.24045318333197
 20
131.36150710120413
 30
0.0
 11
404.106413326388
 21
129.7601739783565
 31
0.0
  0
LINE
 62
5
  8
0
 10
396.1715857344062
 20
132.33835574920369
 30
0.0
 11
400.24045318333197
 21
131.36150710120413
 31
0.0
  0
LINE
 62
5
  8
0
 10
392.0000000000001
 20
132.66666666666669
 30
0.0
 11
396.1715857344062
 21
132.33835574920369
 31
0.0
  0
LINE
 62
5
  8
0
 10
387.82841426559395
 20
132.33835574920369
 30
0.0
 11
392.0000000000001
 21
132.66666666666669
 31
0.0
  0
LINE
 62
5
  8
0
 10
383.7595468166682
 20
131.36150710120413
 30
0.0
 11
387.82841426559395
 21
132.33835574920369
 31
0.0
  0
LINE
 62
5
  8
0
 10
379.8935866736122
 20
129.7601739783565
 30
0.0
 11
383.7595468166682
 21
131.36150710120413
 31
0.0
  0
LINE
 62
5
  8
0
 10
376.32572660553416
 20
127.57378651666528
 30
0.0
 11
379.8935866736122
 21
129.7601739783565
 31
0.0
  0
LINE
 62
5
  8
0
 10
373.14381916835885
 20
124.85618083164128
 30
0.0
 11
376.32572660553416
 21
127.57378651666528
 31
0.0
  0
LINE
 62
5
  8
0
 10
370.42621348333483
 20
121.67427339446597
 30
0.0
 11
373.14381916835885
 21
124.85618083164128
 31
0.0
  0
LINE
 62
5
  8
0
 10
368.2398260216436
 20
118.10641332638794
 30
0.0
 11
370.42621348333483
 21
121.67427339446597
 31
0.0
  0
LINE
 62
5
  8
0
 10
366.638492898796
 20
114.24045318333195
 30
0.0
 11
368.2398260216436
 21
118.10641332638794
 31
0.0
  0
LINE
 62
5
  8
0
 10
365.66164425079637
 20
110.17158573440618
 30
0.0
 11
366.638492898796
 21
114.24045318333195
 31
0.0
  0
LINE
 62
5
  8
0
 10
365.3333333333334
 20
106.00000000000001
 30
0.0
 11
365.66164425079637
 21
110.17158573440618
 31
0.0
  0
LINE
 62
5
  8
0
 10
365.66164425079637
 20
101.82841426559385
 30
0.0
 11
365.3333333333334
 21
106.00000000000001
 31
0.0
  0
LINE
 62
5
  8
0
 10
366.638492898796
 20
97.75954681666809
 30
0.0
 11
365.66164425079637
 21
101.82841426559385
 31
0.0
  0
LINE
 62
5
  8
0
 10
368.2398260216436
 20
93.8935866736121
 30
0.0
 11
366.638492898796
 21
97.75954681666809
 31
0.0
  0
LINE
 62
5
  8
0
 10
370.42621348333483
 20
90.32572660553406
 30
0.0
 11
368.2398260216436
 21
93.8935866736121
 31
0.0
  0
LINE
 62
5
  8
0
 10
373.14381916835885
 20
87.14381916835873
 30
0.0
 11
370.42621348333483
 21
90.32572660553406
 31
0.0
  0
LINE
 62
5
  8
0
 10
376.32572660553416
 20
84.42621348333473
 30
0.0
 11
373.14381916835885
 21
87.14381916835873
 31
0.0
  0
LINE
 62
5
  8
0
 10
379.8935866736122
 20
82.23982602164354
 30
0.0
 11
376.32572660553416
 21
84.42621348333473
 31
0.0
  0
LINE
 62
5
  8
0
 10
383.7595468166682
 20
80.63849289879592
 30
0.0
 11
379.8935866736122
 21
82.23982602164354
 31
0.0
  0
LINE
 62
5
  8
0
 10
387.82841426559395
 20
79.66164425079634
 30
0.0
 11
383.7595468166682
 21
80.63849289879592
 31
0.0
  0
LINE
 62
5
  8
0
 10
392.0000000000001
 20
79.33333333333336
 30
0.0
 11
387.82841426559395
 21
79.66164425079634
 31
0.0
  0
LINE
 62
5
  8
0
 10
396.1715857344062
 20
79.66164425079634
 30
0.0
 11
392.0000000000001
 21
79.33333333333336
 31
0.0
  0
LINE
 62
5
  8
0
 10
400.24045318333197
 20
80.63849289879592
 30
0.0
 11
396.1715857344062
 21
79.66164425079634
 31
0.0
  0
LINE
 62
5
  8
0
 10
404.106413326388
 20
82.23982602164354
 30
0.0
 11
400.24045318333197
 21
80.63849289879592
 31
0.0
  0
LINE
 62
5
  8
0
 10
407.67427339446607
 20
84.42621348333473
 30
0.0
 11
404.106413326388
 21
82.23982602164354
 31
0.0
  0
LINE
 62
5
  8
0
 10
410.8561808316413
 20
87.14381916835873
 30
0.0
 11
407.67427339446607
 21
84.42621348333473
 31
0.0
  0
LINE
 62
5
  8
0
 10
413.57378651666534
 20
90.32572660553404
 30
0.0
 11
410.8561808316413
 21
87.14381916835873
 31
0.0
  0
LINE
 62
5
  8
0
 10
415.7601739783566
 20
93.89358667361209
 30
0.0
 11
413.57378651666534
 21
90.32572660553404
 31
0.0
  0
LINE
 62
5
  8
0
 10
417.3615071012042
 20
97.75954681666808
 30
0.0
 11
415.7601739783566
 21
93.89358667361209
 31
0.0
  0
LINE
 62
5
  8
0
 10
418.3383557492038
 20
101.82841426559385
 30
0.0
 11
417.3615071012042
 21
97.75954681666808
 31
0.0
  0
LINE
 62
5
  8
0
 10
428.6666666666668
 20
106.00000000000001
 30
0.0
 11
428.6666666666668
 21
106.00000000000001
 31
0.0
  0
LINE
 62
5
  8
0
 10
428.6666666666668
 20
106.00000000000001
 30
0.0
 11
428.6666666666668
 21
106.00000000000001
 31
0.0
  0
LINE
 62
5
  8
0
 10
428.6666666666668
 20
106.00000000000001
 30
0.0
 11
428.6666666666668
 21
106.00000000000001
 31
0.0
  0
LINE
 62
5
  8
0
 10
428.6666666666668
 20
106.00000000000001
 30
0.0
 11
428.6666666666668
 21
106.00000000000001
 31
0.0
  0
LINE
 62
5
  8
0
 10
492.00000000000017
 20
106.00000000000001
 30
0.0
 11
491.67168908253717
 21
101.82841426559385
 31
0.0
  0
LINE
 62
5
  8
0
 10
491.67168908253717
 20
110.17158573440616
 30
0.0
 11
492.00000000000017
 21
106.00000000000001
 31
0.0
  0
LINE
 62
5
  8
0
 10
490.6948404345376
 20
114.24045318333195
 30
0.0
 11
491.67168908253717
 21
110.17158573440616
 31
0.0
  0
LINE
 62
5
  8
0
 10
489.09350731168996
 20
118.10641332638792
 30
0.0
 11
490.6948404345376
 21
114.24045318333195
 31
0.0
  0
LINE
 62
5
  8
0
 10
486.90711984999876
 20
121.67427339446597
 30
0.0
 11
489.09350731168996
 21
118.10641332638792
 31
0.0
  0
LINE
 62
5
  8
0
 10
484.18951416497475
 20
124.85618083164128
 30
0.0
 11
486.90711984999876
 21
121.67427339446597
 31
0.0
  0
LINE
 62
5
  8
0
 10
481.00760672779944
 20
127.57378651666528
 30
0.0
 11
484.18951416497475
 21
124.85618083164128
 31
0.0
  0
LINE
 62
5
  8
0
 10
477.4397466597214
 20
129.7601739783565
 30
0.0
 11
481.00760672779944
 21
127.57378651666528
 31
0.0
  0
LINE
 62
5
  8
0
 10
473.5737865166654
 20
131.36150710120413
 30
0.0
 11
477.4397466597214
 21
129.7601739783565
 31
0.0
  0
LINE
 62
5
  8
0
 10
469.50491906773965
 20
132.33835574920369
 30
0.0
 11
473.5737865166654
 21
131.36150710120413
 31
0.0
  0
LINE
 62
5
  8
0
 10
465.3333333333335
 20
132.66666666666669
 30
0.0
 11
469.50491906773965
 21
132.33835574920369
 31
0.0
  0
LINE
 62
5
  8
0
 10
461.1617475989273
 20
132.33835574920369
 30
0.0
 11
465.3333333333335
 21
132.66666666666669
 31
0.0
  0
LINE
 62
5
  8
0
 10
457.0928801500016
 20
131.36150710120413
 30
0.0
 11
461.1617475989273
 21
132.33835574920369
 31
0.0
  0
LINE
 62
5
  8
0
 10
453.2269200069456
 20
129.7601739783565
 30
0.0
 11
457.0928801500016
 21
131.36150710120413
 31
0.0
  0
LINE
 62
5
  8
0
 10
449.65905993886753
 20
127.57378651666528
 30
0.0
 11
453.2269200069456
 21
129.7601739783565
 31
0.0
  0
LINE
 62
5
  8
0
 10
446.4771525016922
 20
124.85618083164128
 30
0.0
 11
449.65905993886753
 21
127.57378651666528
 31
0.0
  0
LINE
 62
5
  8
0
 10
443.7595468166682
 20
121.67427339446597
 30
0.0
 11
446.4771525016922
 21
124.85618083164128
 31
0.0
  0
LINE
 62
5
  8
0
 10
441.573159354977
 20
118.10641332638794
 30
0.0
 11
443.7595468166682
 21
121.67427339446597
 31
0.0
  0
LINE
 62
5
  8
0
 10
439.9718262321294
 20
114.24045318333195
 30
0.0
 11
441.573159354977
 21
118.10641332638794
 31
0.0
  0
LINE
 62
5
  8
0
 10
438.9949775841298
 20
110.17158573440618
 30
0.0
 11
439.9718262321294
 21
114.24045318333195
 31
0.0
  0
LINE
 62
5
  8
0
 10
438.6666666666668
 20
106.00000000000001
 30
0.0
 11
438.9949775841298
 21
110.17158573440618
 31
0.0
  0
LINE
 62
5
  8
0
 10
438.9949775841298
 20
101.82841426559385
 30
0.0
 11
438.6666666666668
 21
106.00000000000001
 31
0.0
  0
LINE
 62
5
  8
0
 10
439.9718262321294
 20
97.75954681666809
 30
0.0
 11
438.9949775841298
 21
101.82841426559385
 31
0.0
  0
LINE
 62
5
  8
0
 10
441.573159354977
 20
93.8935866736121
 30
0.0
 11
439.9718262321294
 21
97.75954681666809
 31
0.0
  0
LINE
 62
5
  8
0
 10
443.7595468166682
 20
90.32572660553406
 30
0.0
 11
441.573159354977
 21
93.8935866736121
 31
0.0
  0
LINE
 62
5
  8
0
 10
446.4771525016922
 20
87.14381916835873
 30
0.0
 11
443.7595468166682
 21
90.32572660553406
 31
0.0
  0
LINE
 62
5
  8
0
 10
449.65905993886753
 20
84.42621348333473
 30
0.0
 11
446.4771525016922
 21
87.14381916835873
 31
0.0
  0
LINE
 62
5
  8
0
 10
453.2269200069456
 20
82.23982602164354
 30
0.0
 11
449.65905993886753
 21
84.42621348333473
 31
0.0
  0
LINE
 62
5
  8
0
 10
457.0928801500016
 20
80.63849289879592
 30
0.0
 11
453.2269200069456
 21
82.23982602164354
 31
0.0
  0
LINE
 62
5
  8
0
 10
461.1617475989273
 20
79.66164425079634
 30
0.0
 11
457.0928801500016
 21
80.63849289879592
 31
0.0
  0
LINE
 62
5
  8
0
 10
465.3333333333335
 20
79.33333333333336
 30
0.0
 11
461.1617475989273
 21
79.66164425079634
 31
0.0
  0
LINE
 62
5
  8
0
 10
469.50491906773965
 20
79.66164425079634
 30
0.0
 11
465.3333333333335
 21
79.33333333333336
 31
0.0
  0
LINE
 62
5
  8
0
 10
473.5737865166654
 20
80.63849289879592
 30
0.0
 11
469.50491906773965
 21
79.66164425079634
 31
0.0
  0
LINE
 62
5
  8
0
 10
477.4397466597214
 20
82.23982602164354
 30
0.0
 11
473.5737865166654
 21
80.63849289879592
 31
0.0
  0
LINE
 62
5
  8
0
 10
481.00760672779944
 20
84.42621348333473
 30
0.0
 11
477.4397466597214
 21
82.23982602164354
 31
0.0
  0
LINE
 62
5
  8
0
 10
484.18951416497475
 20
87.14381916835873
 30
0.0
 11
481.00760672779944
 21
84.42621348333473
 31
0.0
  0
LINE
 62
5
  8
0
 10
486.90711984999876
 20
90.32572660553404
 30
0.0
 11
484.18951416497475
 21
87.14381916835873
 31
0.0
  0
LINE
 62
5
  8
0
 10
489.09350731168996
 20
93.89358667361209
 30
0.0
 11
486.90711984999876
 21
90.32572660553404
 31
0.0
  0
LINE
 62
5
  8
0
 10
490.6948404345376
 20
97.75954681666808
 30
0.0
 11
489.09350731168996
 21
93.89358667361209
 31
0.0
  0
LINE
 62
5
  8
0
 10
491.67168908253717
 20
101.82841426559385
 30
0.0
 11
490.6948404345376
 21
97.75954681666808
 31
0.0
  0
LINE
 62
5
  8
0
 10
502.00000000000017
 20
106.00000000000001
 30
0.0
 11
502.00000000000017
 21
106.00000000000001
 31
0.0
  0
LINE
 62
5
  8
0
 10
502.00000000000017
 20
106.00000000000001
 30
0.0
 11
502.00000000000017
 21
106.00000000000001
 31
0.0
  0
LINE
 62
5
  8
0
 10
502.00000000000017
 20
106.00000000000001
 30
0.0
 11
502.00000000000017
 21
106.00000000000001
 31
0.0
  0
LINE
 62
5
  8
0
 10
502.00000000000017
 20
106.00000000000001
 30
0.0
 11
502.00000000000017
 21
106.00000000000001
 31
0.0
  0
LINE
 62
5
  8
0
 10
565.3333333333334
 20
106.00000000000001
 30
0.0
 11
565.0050224158704
 21
101.82841426559385
 31
0.0
  0
LINE
 62
5
  8
0
 10
565.0050224158704
 20
110.17158573440616
 30
0.0
 11
565.3333333333334
 21
106.00000000000001
 31
0.0
  0
LINE
 62
5
  8
0
 10
564.0281737678708
 20
114.24045318333195
 30
0.0
 11
565.0050224158704
 21
110.17158573440616
 31
0.0
  0
LINE
 62
5
  8
0
 10
562.4268406450233
 20
118.10641332638792
 30
0.0
 11
564.0281737678708
 21
114.24045318333195
 31
0.0
  0
LINE
 62
5
  8
0
 10
560.2404531833321
 20
121.67427339446597
 30
0.0
 11
562.4268406450233
 21
118.10641332638792
 31
0.0
  0
LINE
 62
5
  8
0
 10
557.5228474983081
 20
124.85618083164128
 30
0.0
 11
560.2404531833321
 21
121.67427339446597
 31
0.0
  0
LINE
 62
5
  8
0
 10
554.3409400611328
 20
127.57378651666528
 30
0.0
 11
557.5228474983081
 21
124.85618083164128
 31
0.0
  0
LINE
 62
5
  8
0
 10
550.7730799930548
 20
129.7601739783565
 30
0.0
 11
554.3409400611328
 21
127.57378651666528
 31
0.0
  0
LINE
 62
5
  8
0
 10
546.9071198499987
 20
131.36150710120413
 30
0.0
 11
550.7730799930548
 21
129.7601739783565
 31
0.0
  0
LINE
 62
5
  8
0
 10
542.838252401073
 20
132.33835574920369
 30
0.0
 11
546.9071198499987
 21
131.36150710120413
 31
0.0
  0
LINE
 62
5
  8
0
 10
538.6666666666669
 20
132.66666666666669
 30
0.0
 11
542.838252401073
 21
132.33835574920369
 31
0.0
  0
LINE
 62
5
  8
0
 10
534.4950809322607
 20
132.33835574920369
 30
0.0
 11
538.6666666666669
 21
132.66666666666669
 31
0.0
  0
LINE
 62
5
  8
0
 10
530.4262134833349
 20
131.36150710120413
 30
0.0
 11
534.4950809322607
 21
132.33835574920369
 31
0.0
  0
LINE
 62
5
  8
0
 10
526.5602533402789
 20
129.7601739783565
 30
0.0
 11
530.4262134833349
 21
131.36150710120413
 31
0.0
  0
LINE
 62
5
  8
0
 10
522.992393272201
 20
127.57378651666528
 30
0.0
 11
526.5602533402789
 21
129.7601739783565
 31
0.0
  0
LINE
 62
5
  8
0
 10
519.8104858350256
 20
124.85618083164128
 30
0.0
 11
522.992393272201
 21
127.57378651666528
 31
0.0
  0
LINE
 62
5
  8
0
 10
517.0928801500016
 20
121.67427339446597
 30
0.0
 11
519.8104858350256
 21
124.85618083164128
 31
0.0
  0
LINE
 62
5
  8
0
 10
514.9064926883103
 20
118.10641332638794
 30
0.0
 11
517.0928801500016
 21
121.67427339446597
 31
0.0
  0
LINE
 62
5
  8
0
 10
513.3051595654628
 20
114.24045318333195
 30
0.0
 11
514.9064926883103
 21
118.10641332638794
 31
0.0
  0
LINE
 62
5
  8
0
 10
512.3283109174631
 20
110.17158573440618
 30
0.0
 11
513.3051595654628
 21
114.24045318333195
 31
0.0
  0
LINE
 62
5
  8
0
 10
512.0000000000002
 20
106.00000000000001
 30
0.0
 11
512.3283109174631
 21
110.17158573440618
 31
0.0
  0
LINE
 62
5
  8
0
 10
512.3283109174631
 20
101.82841426559385
 30
0.0
 11
512.0000000000002
 21
106.00000000000001
 31
0.0
  0
LINE
 62
5
  8
0
 10
513.3051595654628
 20
97.75954681666809
 30
0.0
 11
512.3283109174631
 21
101.82841426559385
 31
0.0
  0
LINE
 62
5
  8
0
 10
514.9064926883102
 20
93.8935866736121
 30
0.0
 11
513.3051595654628
 21
97.75954681666809
 31
0.0
  0
LINE
 62
5
  8
0
 10
517.0928801500016
 20
90.32572660553406
 30
0.0
 11
514.9064926883102
 21
93.8935866736121
 31
0.0
  0
LINE
 62
5
  8
0
 10
519.8104858350256
 20
87.14381916835873
 30
0.0
 11
517.0928801500016
 21
90.32572660553406
 31
0.0
  0
LINE
 62
5
  8
0
 10
522.992393272201
 20
84.42621348333473
 30
0.0
 11
519.8104858350256
 21
87.14381916835873
 31
0.0
  0
LINE
 62
5
  8
0
 10
526.5602533402789
 20
82.23982602164354
 30
0.0
 11
522.992393272201
 21
84.42621348333473
 31
0.0
  0
LINE
 62
5
  8
0
 10
530.4262134833349
 20
80.63849289879592
 30
0.0
 11
526.5602533402789
 21
82.23982602164354
 31
0.0
  0
LINE
 62
5
  8
0
 10
534.4950809322607
 20
79.66164425079634
 30
0.0
 11
530.4262134833349
 21
80.63849289879592
 31
0.0
  0
LINE
 62
5
  8
0
 10
538.6666666666669
 20
79.33333333333336
 30
0.0
 11
534.4950809322607
 21
79.66164425079634
 31
0.0
  0
LINE
 62
5
  8
0
 10
542.838252401073
 20
79.66164425079634
 30
0.0
 11
538.6666666666669
 21
79.33333333333336
 31
0.0
  0
LINE
 62
5
  8
0
 10
546.9071198499987
 20
80.63849289879592
 30
0.0
 11
542.838252401073
 21
79.66164425079634
 31
0.0
  0
LINE
 62
5
  8
0
 10
550.7730799930548
 20
82.23982602164354
 30
0.0
 11
546.9071198499987
 21
80.63849289879592
 31
0.0
  0
LINE
 62
5
  8
0
 10
554.3409400611328
 20
84.42621348333473
 30
0.0
 11
550.7730799930548
 21
82.23982602164354
 31
0.0
  0
LINE
 62
5
  8
0
 10
557.5228474983081
 20
87.14381916835873
 30
0.0
 11
554.3409400611328
 21
84.42621348333473
 31
0.0
  0
LINE
 62
5
  8
0
 10
560.2404531833321
 20
90.32572660553404
 30
0.0
 11
557.5228474983081
 21
87.14381916835873
 31
0.0
  0
LINE
 62
5
  8
0
 10
562.4268406450232
 20
93.89358667361209
 30
0.0
 11
560.2404531833321
 21
90.32572660553404
 31
0.0
  0
LINE
 62
5
  8
0
 10
564.0281737678708
 20
97.75954681666808
 30
0.0
 11
562.4268406450232
 21
93.89358667361209
 31
0.0
  0
LINE
 62
5
  8
0
 10
565.0050224158704
 20
101.82841426559385
 30
0.0
 11
564.0281737678708
 21
97.75954681666808
 31
0.0
  0
ENDSEC
  0
EOF
