  0
SECTION
  2
HEADER
  9
$ACADVER
  1
AC1009
  9
$INSBASE
 10
0.0
 20
0.0
 30
0.0
  9
$EXTMIN
 10
0.0
 20
0.0
 30
0.0
  9
$EXTMAX
 10
100.0
 20
100.0
 30
0.0
  9
$UNITMODE
 70
0
  9
$AUNITS
 70
0
  9
$ANGBASE
 50
0.0
  9
$ANGDIR
 70
0
  0
ENDSEC
  0
SECTION
  2
TABLES
  0
TABLE
  2
LTYPE
 70
20
  0
LTYPE
  2
CONTINUOUS
 70
0
  3
Solid
 72
65
 73
0
 40
0.0
  0
LTYPE
  2
CENTER
 70
0
  3
Center ____ _ ____ _ ____ _ ____ _ ____ _ ____
 72
65
 73
4
 40
2.0
 49
1.25
 49
-0.25
 49
0.25
 49
-0.25
  0
LTYPE
  2
CENTERX2
 70
0
  3
Center (2x) ________  __  ________  __  ________
 72
65
 73
4
 40
3.5
 49
2.5
 49
-0.25
 49
0.5
 49
-0.25
  0
LTYPE
  2
CENTER2
 70
0
  3
Center (.5x) ____ _ ____ _ ____ _ ____ _ ____
 72
65
 73
4
 40
1.0
 49
0.625
 49
-0.125
 49
0.125
 49
-0.125
  0
LTYPE
  2
DASHED
 70
0
  3
Dashed __ __ __ __ __ __ __ __ __ __ __ __ __ _
 72
65
 73
2
 40
0.6
 49
0.5
 49
-0.1
  0
LTYPE
  2
DASHEDX2
 70
0
  3
Dashed (2x) ____  ____  ____  ____  ____  ____
 72
65
 73
2
 40
1.2
 49
1.0
 49
-0.2
  0
LTYPE
  2
DASHED2
 70
0
  3
Dashed (.5x) _ _ _ _ _ _ _ _ _ _ _ _ _ _
 72
65
 73
2
 40
0.3
 49
0.25
 49
-0.05
  0
LTYPE
  2
PHANTOM
 70
0
  3
Phantom ______  __  __  ______  __  __  ______
 72
65
 73
6
 40
2.5
 49
1.25
 49
-0.25
 49
0.25
 49
-0.25
 49
0.25
 49
-0.25
  0
LTYPE
  2
PHANTOMX2
 70
0
  3
Phantom (2x)____________    ____    ____    ____________
 72
65
 73
6
 40
4.25
 49
2.5
 49
-0.25
 49
0.5
 49
-0.25
 49
0.5
 49
-0.25
  0
LTYPE
  2
PHANTOM2
 70
0
  3
Phantom (.5x) ___ _ _ ___ _ _ ___ _ _ ___ _ _ ___
 72
65
 73
6
 40
1.25
 49
0.625
 49
-0.125
 49
0.125
 49
-0.125
 49
0.125
 49
-0.125
  0
LTYPE
  2
DASHDOT
 70
0
  3
Dash dot __ . __ . __ . __ . __ . __ . __ . __
 72
65
 73
4
 40
1.4
 49
1.0
 49
-0.2
 49
0.0
 49
-0.2
  0
LTYPE
  2
DASHDOTX2
 70
0
  3
Dash dot (2x) ____  .  ____  .  ____  .  ____
 72
65
 73
4
 40
2.4
 49
2.0
 49
-0.2
 49
0.0
 49
-0.2
  0
LTYPE
  2
DASHDOT2
 70
0
  3
Dash dot (.5x) _ . _ . _ . _ . _ . _ . _ . _
 72
65
 73
4
 40
0.7
 49
0.5
 49
-0.1
 49
0.0
 49
-0.1
  0
LTYPE
  2
DOT
 70
0
  3
Dot .  .  .  .  .  .  .  .  .  .  .  .  .  .  .  .
 72
65
 73
2
 40
0.2
 49
0.0
 49
-0.2
  0
LTYPE
  2
DOTX2
 70
0
  3
Dot (2x) .    .    .    .    .    .    .    . 
 72
65
 73
2
 40
0.4
 49
0.0
 49
-0.4
  0
LTYPE
  2
DOT2
 70
0
  3
Dot (.5) . . . . . . . . . . . . . . . . . . . 
 72
65
 73
2
 40
0.1
 49
0.0
 49
-0.1
  0
LTYPE
  2
DIVIDE
 70
0
  3
Divide __ . . __ . . __ . . __ . . __ . . __
 72
65
 73
6
 40
1.6
 49
1.0
 49
-0.2
 49
0.0
 49
-0.2
 49
0.0
 49
-0.2
  0
LTYPE
  2
DIVIDEX2
 70
0
  3
Divide (2x) ____  . .  ____  . .  ____  . .  ____
 72
65
 73
6
 40
2.6
 49
2.0
 49
-0.2
 49
0.0
 49
-0.2
 49
0.0
 49
-0.2
  0
LTYPE
  2
DIVIDE2
 70
0
  3
Divide(.5x) _ . _ . _ . _ . _ . _ . _ . _
 72
65
 73
6
 40
0.8
 49
0.5
 49
-0.1
 49
0.0
 49
-0.1
 49
0.0
 49
-0.1
  0
LTYPE
  2
DOTTED
 70
0
  3

 72
65
 73
2
 40
1.0
 49
0.0
 49
-1.0
  0
ENDTAB
  0
TABLE
  2
LAYER
 70
5
  0
LAYER
  2
DIMENSIONS
 70
0
 62
1
  6
CONTINUOUS
  0
LAYER
  2
TABLEBACKGROUND
 70
0
 62
1
  6
CONTINUOUS
  0
LAYER
  2
TABLECONTENT
 70
0
 62
1
  6
CONTINUOUS
  0
LAYER
  2
TABLEGRID
 70
0
 62
1
  6
CONTINUOUS
  0
LAYER
  2
VIEWPORTS
 70
0
 62
7
  6
CONTINUOUS
  0
ENDTAB
  0
TABLE
  2
STYLE
 70
12
  0
STYLE
  2
STANDARD
 70
0
 40
0.0
 41
1.0
 42
1.0
 50
0.0
 71
0
  3
arial.ttf
  4

  0
STYLE
  2
ARIAL
 70
0
 40
0.0
 41
1.0
 42
1.0
 50
0.0
 71
0
  3
arial.ttf
  4

  0
STYLE
  2
ARIAL_BOLD
 70
0
 40
0.0
 41
1.0
 42
1.0
 50
0.0
 71
0
  3
arialbd.ttf
  4

  0
STYLE
  2
ARIAL_ITALIC
 70
0
 40
0.0
 41
1.0
 42
1.0
 50
0.0
 71
0
  3
ariali.ttf
  4

  0
STYLE
  2
ARIAL_BOLD_ITALIC
 70
0
 40
0.0
 41
1.0
 42
1.0
 50
0.0
 71
0
  3
arialbi.ttf
  4

  0
STYLE
  2
ARIAL_BLACK
 70
0
 40
0.0
 41
1.0
 42
1.0
 50
0.0
 71
0
  3
ariblk.ttf
  4

  0
STYLE
  2
ISOCPEUR
 70
0
 40
0.0
 41
1.0
 42
1.0
 50
0.0
 71
0
  3
isocpeur.ttf
  4

  0
STYLE
  2
ISOCPEUR_ITALIC
 70
0
 40
0.0
 41
1.0
 42
1.0
 50
0.0
 71
0
  3
isocpeui.ttf
  4

  0
STYLE
  2
TIMES
 70
0
 40
0.0
 41
1.0
 42
1.0
 50
0.0
 71
0
  3
times.ttf
  4

  0
STYLE
  2
TIMES_BOLD
 70
0
 40
0.0
 41
1.0
 42
1.0
 50
0.0
 71
0
  3
timesbd.ttf
  4

  0
STYLE
  2
TIMES_ITALIC
 70
0
 40
0.0
 41
1.0
 42
1.0
 50
0.0
 71
0
  3
timesi.ttf
  4

  0
STYLE
  2
TIMES_BOLD_ITALIC
 70
0
 40
0.0
 41
1.0
 42
1.0
 50
0.0
 71
0
  3
timesbi.ttf
  4

  0
ENDTAB
  0
TABLE
  2
VIEW
 70
0
  0
ENDTAB
  0
TABLE
  2
APPID
 70
1
  0
APPID
  2
DXFWRITE
 70
0
  0
ENDTAB
  0
TABLE
  2
VPORT
 70
0
  0
ENDTAB
  0
TABLE
  2
UCS
 70
0
  0
ENDTAB
  0
ENDSEC
  0
SECTION
  2
BLOCKS
  0
ENDSEC
  0
SECTION
  2
ENTITIES
  0
VIEWPORT
  8
VIEWPORTS
 67
1
 10
0.0
 20
0.0
 30
0.0
 40
1.0
 41
1.0
 68
1
 69
1
1001
ACAD
1000
MVIEW
1002
{
1070
16
1010
0.0
1020
0.0
1030
0.0
1010
0.0
1020
0.0
1030
0.0
1040
0.0
1040
1.0
1040
0.0
1040
0.0
1040
50.0
1040
0.0
1040
0.0
1070
0
1070
100
1070
1
1070
3
1070
0
1070
0
1070
0
1070
0
1040
0.0
1040
0.0
1040
0.0
1040
0.1
1040
0.1
1040
0.1
1040
0.1
1070
0
1002
{
1002
}
1002
}
  0
LINE
 62
5
  8
0
 10
166.0
 20
353.00000000000006
 30
0.0
 11
142.00000000000003
 21
353.00000000000006
 31
0.0
  0
LINE
  6
DOTTED
 62
1
  8
0
 10
166.0
 20
353.00000000000006
 30
0.0
 11
166.0
 21
413.00000000000006
 31
0.0
  0
LINE
 62
5
  8
0
 10
142.00000000000003
 20
413.00000000000006
 30
0.0
 11
166.0
 21
413.00000000000006
 31
0.0
  0
LINE
  6
DOTTED
 62
1
  8
0
 10
142.00000000000003
 20
413.00000000000006
 30
0.0
 11
142.00000000000003
 21
353.00000000000006
 31
0.0
  0
LINE
  6
DOTTED
 62
1
  8
0
 10
202.00000000000003
 20
353.00000000000006
 30
0.0
 11
202.00000000000003
 21
413.00000000000006
 31
0.0
  0
LINE
  6
DOTTED
 62
1
  8
0
 10
166.0
 20
353.00000000000006
 30
0.0
 11
179.00000000000003
 21
353.00000000000006
 31
0.0
  0
LINE
 62
5
  8
0
 10
202.00000000000003
 20
353.00000000000006
 30
0.0
 11
179.00000000000003
 21
353.00000000000006
 31
0.0
  0
LINE
 62
5
  8
0
 10
202.00000000000003
 20
353.00000000000006
 30
0.0
 11
202.00000000000003
 21
353.00000000000006
 31
0.0
  0
LINE
 62
5
  8
0
 10
166.0
 20
353.00000000000006
 30
0.0
 11
166.0
 21
353.00000000000006
 31
0.0
  0
LINE
  6
DOTTED
 62
1
  8
0
 10
166.0
 20
353.00000000000006
 30
0.0
 11
166.0
 21
312.00000000000006
 31
0.0
  0
LINE
 62
5
  8
0
 10
179.00000000000003
 20
312.00000000000006
 30
0.0
 11
166.0
 21
312.00000000000006
 31
0.0
  0
LINE
  6
DOTTED
 62
1
  8
0
 10
179.00000000000003
 20
312.00000000000006
 30
0.0
 11
179.00000000000003
 21
353.00000000000006
 31
0.0
  0
LINE
 62
5
  8
0
 10
147.00000000000003
 20
353.00000000000006
 30
0.0
 11
166.0
 21
353.00000000000006
 31
0.0
  0
LINE
  6
DOTTED
 62
1
  8
0
 10
147.00000000000003
 20
353.00000000000006
 30
0.0
 11
147.00000000000003
 21
312.00000000000006
 31
0.0
  0
LINE
  6
DOTTED
 62
1
  8
0
 10
147.00000000000003
 20
312.00000000000006
 30
0.0
 11
166.0
 21
312.00000000000006
 31
0.0
  0
LINE
 62
5
  8
0
 10
134.00000000000003
 20
353.00000000000006
 30
0.0
 11
147.00000000000003
 21
353.00000000000006
 31
0.0
  0
LINE
  6
DOTTED
 62
1
  8
0
 10
134.00000000000003
 20
353.00000000000006
 30
0.0
 11
134.00000000000003
 21
312.00000000000006
 31
0.0
  0
LINE
 62
5
  8
0
 10
147.00000000000003
 20
312.00000000000006
 30
0.0
 11
134.00000000000003
 21
312.00000000000006
 31
0.0
  0
LINE
 62
5
  8
0
 10
115.00000000000001
 20
353.00000000000006
 30
0.0
 11
134.00000000000003
 21
353.00000000000006
 31
0.0
  0
LINE
 62
5
  8
0
 10
115.00000000000001
 20
312.00000000000006
 30
0.0
 11
115.00000000000001
 21
353.00000000000006
 31
0.0
  0
LINE
 62
5
  8
0
 10
134.00000000000003
 20
312.00000000000006
 30
0.0
 11
115.00000000000001
 21
312.00000000000006
 31
0.0
  0
LINE
 62
5
  8
0
 10
106.00000000000001
 20
312.00000000000006
 30
0.0
 11
147.00000000000003
 21
312.00000000000006
 31
0.0
  0
LINE
 62
5
  8
0
 10
106.00000000000001
 20
312.00000000000006
 30
0.0
 11
106.00000000000001
 21
312.00000000000006
 31
0.0
  0
LINE
 62
5
  8
0
 10
166.0
 20
312.00000000000006
 30
0.0
 11
166.0
 21
312.00000000000006
 31
0.0
  0
LINE
  6
DOTTED
 62
1
  8
0
 10
106.00000000000001
 20
312.00000000000006
 30
0.0
 11
106.00000000000001
 21
247.00000000000003
 31
0.0
  0
LINE
  6
DOTTED
 62
1
  8
0
 10
166.0
 20
312.00000000000006
 30
0.0
 11
166.0
 21
247.00000000000003
 31
0.0
  0
LINE
 62
5
  8
0
 10
70.00000000000001
 20
312.00000000000006
 30
0.0
 11
106.00000000000001
 21
312.00000000000006
 31
0.0
  0
LINE
 62
5
  8
0
 10
70.00000000000001
 20
247.00000000000003
 30
0.0
 11
70.00000000000001
 21
312.00000000000006
 31
0.0
  0
LINE
 62
5
  8
0
 10
106.00000000000001
 20
247.00000000000003
 30
0.0
 11
70.00000000000001
 21
247.00000000000003
 31
0.0
  0
LINE
 62
5
  8
0
 10
111.00009098110239
 20
224.00000000000003
 30
0.0
 11
106.00000000000001
 21
247.00000000000003
 31
0.0
  0
LINE
 62
5
  8
0
 10
166.00018196220475
 20
247.00000000000003
 30
0.0
 11
161.0000909811024
 21
224.00000000000003
 31
0.0
  0
LINE
 62
5
  8
0
 10
161.0000909811024
 20
224.00000000000003
 30
0.0
 11
166.00018196220475
 21
201.00000000000003
 31
0.0
  0
LINE
 62
5
  8
0
 10
106.00000000000001
 20
201.00000000000003
 30
0.0
 11
111.00009098110239
 21
224.00000000000003
 31
0.0
  0
LINE
 62
5
  8
0
 10
166.0
 20
136.0
 30
0.0
 11
106.00000000000001
 21
136.0
 31
0.0
  0
LINE
  6
DOTTED
 62
1
  8
0
 10
166.0
 20
136.0
 30
0.0
 11
166.0
 21
201.00000000000003
 31
0.0
  0
LINE
  6
DOTTED
 62
1
  8
0
 10
106.00000000000001
 20
136.0
 30
0.0
 11
106.00000000000001
 21
201.00000000000003
 31
0.0
  0
LINE
 62
5
  8
0
 10
202.00000000000003
 20
201.00000000000003
 30
0.0
 11
202.00000000000003
 21
136.0
 31
0.0
  0
LINE
 62
5
  8
0
 10
166.0
 20
201.00000000000003
 30
0.0
 11
202.00000000000003
 21
201.00000000000003
 31
0.0
  0
LINE
 62
5
  8
0
 10
179.00000000000003
 20
136.0
 30
0.0
 11
166.0
 21
136.0
 31
0.0
  0
LINE
 62
5
  8
0
 10
202.00000000000003
 20
136.0
 30
0.0
 11
179.00000000000003
 21
136.0
 31
0.0
  0
LINE
 62
5
  8
0
 10
202.00000000000003
 20
136.0
 30
0.0
 11
202.00000000000003
 21
136.0
 31
0.0
  0
LINE
 62
5
  8
0
 10
166.0
 20
136.0
 30
0.0
 11
166.0
 21
136.0
 31
0.0
  0
LINE
 62
5
  8
0
 10
70.00000000000001
 20
201.00000000000003
 30
0.0
 11
106.00000000000001
 21
201.00000000000003
 31
0.0
  0
LINE
  6
DOTTED
 62
1
  8
0
 10
70.00000000000001
 20
136.0
 30
0.0
 11
70.00000000000001
 21
201.00000000000003
 31
0.0
  0
LINE
 62
5
  8
0
 10
93.00000000000001
 20
136.0
 30
0.0
 11
70.00000000000001
 21
136.0
 31
0.0
  0
LINE
  6
DOTTED
 62
1
  8
0
 10
106.00000000000001
 20
136.0
 30
0.0
 11
93.00000000000001
 21
136.0
 31
0.0
  0
LINE
 62
5
  8
0
 10
106.00000000000001
 20
136.0
 30
0.0
 11
106.00000000000001
 21
136.0
 31
0.0
  0
LINE
 62
5
  8
0
 10
70.00000000000001
 20
136.0
 30
0.0
 11
70.00000000000001
 21
136.0
 31
0.0
  0
LINE
 62
5
  8
0
 10
106.00000000000001
 20
95.00000000000001
 30
0.0
 11
93.00000000000001
 21
95.00000000000001
 31
0.0
  0
LINE
  6
DOTTED
 62
1
  8
0
 10
106.00000000000001
 20
95.00000000000001
 30
0.0
 11
106.00000000000001
 21
136.0
 31
0.0
  0
LINE
  6
DOTTED
 62
1
  8
0
 10
93.00000000000001
 20
136.0
 30
0.0
 11
93.00000000000001
 21
95.00000000000001
 31
0.0
  0
LINE
 62
5
  8
0
 10
125.00000000000001
 20
95.00000000000001
 30
0.0
 11
106.00000000000001
 21
95.00000000000001
 31
0.0
  0
LINE
  6
DOTTED
 62
1
  8
0
 10
125.00000000000001
 20
95.00000000000001
 30
0.0
 11
125.00000000000001
 21
136.0
 31
0.0
  0
LINE
 62
5
  8
0
 10
106.00000000000001
 20
136.0
 30
0.0
 11
125.00000000000001
 21
136.0
 31
0.0
  0
LINE
  6
DOTTED
 62
1
  8
0
 10
125.00000000000001
 20
95.00000000000001
 30
0.0
 11
138.00000000000003
 21
95.00000000000001
 31
0.0
  0
LINE
  6
DOTTED
 62
1
  8
0
 10
138.00000000000003
 20
95.00000000000001
 30
0.0
 11
138.00000000000003
 21
136.0
 31
0.0
  0
LINE
 62
5
  8
0
 10
125.00000000000001
 20
136.0
 30
0.0
 11
138.00000000000003
 21
136.0
 31
0.0
  0
LINE
  6
DOTTED
 62
1
  8
0
 10
125.00000000000001
 20
95.00000000000001
 30
0.0
 11
125.00000000000001
 21
73.0
 31
0.0
  0
LINE
  6
DOTTED
 62
1
  8
0
 10
125.00000000000001
 20
73.0
 30
0.0
 11
138.00000000000003
 21
73.0
 31
0.0
  0
LINE
  6
DOTTED
 62
1
  8
0
 10
138.00000000000003
 20
95.00000000000001
 30
0.0
 11
138.00000000000003
 21
73.0
 31
0.0
  0
LINE
 62
5
  8
0
 10
112.00000000000001
 20
95.00000000000001
 30
0.0
 11
125.00000000000001
 21
95.00000000000001
 31
0.0
  0
LINE
  6
DOTTED
 62
1
  8
0
 10
112.00000000000001
 20
95.00000000000001
 30
0.0
 11
112.00000000000001
 21
73.0
 31
0.0
  0
LINE
 62
5
  8
0
 10
125.00000000000001
 20
73.0
 30
0.0
 11
112.00000000000001
 21
73.0
 31
0.0
  0
LINE
 62
5
  8
0
 10
99.0
 20
95.00000000000001
 30
0.0
 11
112.00000000000001
 21
95.00000000000001
 31
0.0
  0
LINE
 62
5
  8
0
 10
99.0
 20
73.0
 30
0.0
 11
99.0
 21
95.00000000000001
 31
0.0
  0
LINE
 62
5
  8
0
 10
112.00000000000001
 20
73.0
 30
0.0
 11
99.0
 21
73.0
 31
0.0
  0
LINE
  6
DOTTED
 62
1
  8
0
 10
138.00000000000003
 20
32.00000000000001
 30
0.0
 11
125.00000000000001
 21
32.00000000000001
 31
0.0
  0
LINE
  6
DOTTED
 62
1
  8
0
 10
138.00000000000003
 20
32.00000000000001
 30
0.0
 11
138.00000000000003
 21
73.0
 31
0.0
  0
LINE
  6
DOTTED
 62
1
  8
0
 10
125.00000000000001
 20
32.00000000000001
 30
0.0
 11
125.00000000000001
 21
73.0
 31
0.0
  0
LINE
  6
DOTTED
 62
1
  8
0
 10
125.00000000000001
 20
32.00000000000001
 30
0.0
 11
125.00000000000001
 21
10.000000000000002
 31
0.0
  0
LINE
  6
DOTTED
 62
1
  8
0
 10
125.00000000000001
 20
10.000000000000002
 30
0.0
 11
138.00000000000003
 21
10.000000000000002
 31
0.0
  0
LINE
  6
DOTTED
 62
1
  8
0
 10
138.00000000000003
 20
32.00000000000001
 30
0.0
 11
138.00000000000003
 21
10.000000000000002
 31
0.0
  0
LINE
 62
5
  8
0
 10
112.00000000000001
 20
32.00000000000001
 30
0.0
 11
125.00000000000001
 21
32.00000000000001
 31
0.0
  0
LINE
  6
DOTTED
 62
1
  8
0
 10
112.00000000000001
 20
32.00000000000001
 30
0.0
 11
112.00000000000001
 21
10.000000000000002
 31
0.0
  0
LINE
 62
5
  8
0
 10
125.00000000000001
 20
10.000000000000002
 30
0.0
 11
112.00000000000001
 21
10.000000000000002
 31
0.0
  0
LINE
 62
5
  8
0
 10
99.0
 20
32.00000000000001
 30
0.0
 11
112.00000000000001
 21
32.00000000000001
 31
0.0
  0
LINE
 62
5
  8
0
 10
99.0
 20
10.000000000000002
 30
0.0
 11
99.0
 21
32.00000000000001
 31
0.0
  0
LINE
 62
5
  8
0
 10
112.00000000000001
 20
10.000000000000002
 30
0.0
 11
99.0
 21
10.000000000000002
 31
0.0
  0
LINE
 62
5
  8
0
 10
125.00000000000001
 20
0.0
 30
0.0
 11
125.00000000000001
 21
10.000000000000002
 31
0.0
  0
LINE
 62
5
  8
0
 10
138.00000000000003
 20
0.0
 30
0.0
 11
125.00000000000001
 21
0.0
 31
0.0
  0
LINE
 62
5
  8
0
 10
138.00000000000003
 20
10.000000000000002
 30
0.0
 11
138.00000000000003
 21
0.0
 31
0.0
  0
LINE
 62
5
  8
0
 10
138.00000000000003
 20
32.00000000000001
 30
0.0
 11
151.00000000000003
 21
32.00000000000001
 31
0.0
  0
LINE
 62
5
  8
0
 10
151.00000000000003
 20
10.000000000000002
 30
0.0
 11
138.00000000000003
 21
10.000000000000002
 31
0.0
  0
LINE
  6
DOTTED
 62
1
  8
0
 10
151.00000000000003
 20
10.000000000000002
 30
0.0
 11
151.00000000000003
 21
32.00000000000001
 31
0.0
  0
LINE
 62
5
  8
0
 10
161.00000000000003
 20
10.000000000000002
 30
0.0
 11
151.00000000000003
 21
10.000000000000002
 31
0.0
  0
LINE
 62
5
  8
0
 10
161.00000000000003
 20
32.00000000000001
 30
0.0
 11
161.00000000000003
 21
10.000000000000002
 31
0.0
  0
LINE
 62
5
  8
0
 10
151.00000000000003
 20
32.00000000000001
 30
0.0
 11
161.00000000000003
 21
32.00000000000001
 31
0.0
  0
LINE
 62
5
  8
0
 10
157.0
 20
32.00000000000001
 30
0.0
 11
138.00000000000003
 21
32.00000000000001
 31
0.0
  0
LINE
 62
5
  8
0
 10
157.0
 20
73.0
 30
0.0
 11
157.0
 21
32.00000000000001
 31
0.0
  0
LINE
 62
5
  8
0
 10
138.00000000000003
 20
73.0
 30
0.0
 11
157.0
 21
73.0
 31
0.0
  0
LINE
 62
5
  8
0
 10
125.00000000000001
 20
32.00000000000001
 30
0.0
 11
106.00000000000001
 21
32.00000000000001
 31
0.0
  0
LINE
 62
5
  8
0
 10
106.00000000000001
 20
73.0
 30
0.0
 11
125.00000000000001
 21
73.0
 31
0.0
  0
LINE
  6
DOTTED
 62
1
  8
0
 10
106.00000000000001
 20
32.00000000000001
 30
0.0
 11
106.00000000000001
 21
73.0
 31
0.0
  0
LINE
 62
5
  8
0
 10
106.00000000000001
 20
32.00000000000001
 30
0.0
 11
93.00000000000001
 21
32.00000000000001
 31
0.0
  0
LINE
 62
5
  8
0
 10
93.00000000000001
 20
73.0
 30
0.0
 11
106.00000000000001
 21
73.0
 31
0.0
  0
LINE
  6
DOTTED
 62
1
  8
0
 10
93.00000000000001
 20
73.0
 30
0.0
 11
93.00000000000001
 21
32.00000000000001
 31
0.0
  0
LINE
 62
5
  8
0
 10
83.0
 20
73.0
 30
0.0
 11
93.00000000000001
 21
73.0
 31
0.0
  0
LINE
 62
5
  8
0
 10
83.0
 20
32.00000000000001
 30
0.0
 11
83.0
 21
73.0
 31
0.0
  0
LINE
 62
5
  8
0
 10
93.00000000000001
 20
32.00000000000001
 30
0.0
 11
83.0
 21
32.00000000000001
 31
0.0
  0
LINE
 62
5
  8
0
 10
138.00000000000003
 20
95.00000000000001
 30
0.0
 11
151.00000000000003
 21
95.00000000000001
 31
0.0
  0
LINE
 62
5
  8
0
 10
151.00000000000003
 20
73.0
 30
0.0
 11
138.00000000000003
 21
73.0
 31
0.0
  0
LINE
  6
DOTTED
 62
1
  8
0
 10
151.00000000000003
 20
73.0
 30
0.0
 11
151.00000000000003
 21
95.00000000000001
 31
0.0
  0
LINE
 62
5
  8
0
 10
161.00000000000003
 20
73.0
 30
0.0
 11
151.00000000000003
 21
73.0
 31
0.0
  0
LINE
 62
5
  8
0
 10
161.00000000000003
 20
95.00000000000001
 30
0.0
 11
161.00000000000003
 21
73.0
 31
0.0
  0
LINE
 62
5
  8
0
 10
151.00000000000003
 20
95.00000000000001
 30
0.0
 11
161.00000000000003
 21
95.00000000000001
 31
0.0
  0
LINE
 62
5
  8
0
 10
157.0
 20
95.00000000000001
 30
0.0
 11
138.00000000000003
 21
95.00000000000001
 31
0.0
  0
LINE
 62
5
  8
0
 10
157.0
 20
136.0
 30
0.0
 11
157.0
 21
95.00000000000001
 31
0.0
  0
LINE
 62
5
  8
0
 10
138.00000000000003
 20
136.0
 30
0.0
 11
157.0
 21
136.0
 31
0.0
  0
LINE
 62
5
  8
0
 10
83.0
 20
136.0
 30
0.0
 11
93.00000000000001
 21
136.0
 31
0.0
  0
LINE
 62
5
  8
0
 10
83.0
 20
95.00000000000001
 30
0.0
 11
83.0
 21
136.0
 31
0.0
  0
LINE
 62
5
  8
0
 10
93.00000000000001
 20
95.00000000000001
 30
0.0
 11
83.0
 21
95.00000000000001
 31
0.0
  0
LINE
 62
5
  8
0
 10
70.00000000000001
 20
136.0
 30
0.0
 11
10.000000000000002
 21
136.0
 31
0.0
  0
LINE
  6
DOTTED
 62
1
  8
0
 10
10.000000000000002
 20
201.00000000000003
 30
0.0
 11
10.000000000000002
 21
136.0
 31
0.0
  0
LINE
 62
5
  8
0
 10
64.99990901889764
 20
224.00000000000003
 30
0.0
 11
70.00000000000001
 21
201.00000000000003
 31
0.0
  0
LINE
 62
5
  8
0
 10
14.999909018897627
 20
224.00000000000003
 30
0.0
 11
64.99990901889764
 21
224.00000000000003
 31
0.0
  0
LINE
 62
5
  8
0
 10
9.99981803779525
 20
201.00000000000003
 30
0.0
 11
14.999909018897627
 21
224.00000000000003
 31
0.0
  0
LINE
 62
5
  8
0
 10
0.0
 20
201.00000000000003
 30
0.0
 11
10.000000000000002
 21
201.00000000000003
 31
0.0
  0
LINE
 62
5
  8
0
 10
0.0
 20
136.0
 30
0.0
 11
0.0
 21
201.00000000000003
 31
0.0
  0
LINE
 62
5
  8
0
 10
10.000000000000002
 20
136.0
 30
0.0
 11
0.0
 21
136.0
 31
0.0
  0
LINE
 62
5
  8
0
 10
166.0
 20
312.00000000000006
 30
0.0
 11
202.00000000000003
 21
312.00000000000006
 31
0.0
  0
LINE
 62
5
  8
0
 10
202.00000000000003
 20
247.00000000000003
 30
0.0
 11
166.0
 21
247.00000000000003
 31
0.0
  0
LINE
  6
DOTTED
 62
1
  8
0
 10
202.00000000000003
 20
312.00000000000006
 30
0.0
 11
202.00000000000003
 21
247.00000000000003
 31
0.0
  0
LINE
 62
5
  8
0
 10
202.00000000000003
 20
312.00000000000006
 30
0.0
 11
262.0
 21
312.00000000000006
 31
0.0
  0
LINE
  6
DOTTED
 62
1
  8
0
 10
262.0
 20
247.00000000000003
 30
0.0
 11
262.0
 21
312.00000000000006
 31
0.0
  0
LINE
 62
5
  8
0
 10
207.00009098110237
 20
224.00000000000003
 30
0.0
 11
202.00000000000003
 21
247.00000000000003
 31
0.0
  0
LINE
 62
5
  8
0
 10
257.00009098110246
 20
224.00000000000003
 30
0.0
 11
207.00009098110237
 21
224.00000000000003
 31
0.0
  0
LINE
 62
5
  8
0
 10
262.00018196220475
 20
247.00000000000003
 30
0.0
 11
257.00009098110246
 21
224.00000000000003
 31
0.0
  0
LINE
 62
5
  8
0
 10
272.0
 20
247.00000000000003
 30
0.0
 11
262.0
 21
247.00000000000003
 31
0.0
  0
LINE
 62
5
  8
0
 10
272.0
 20
312.00000000000006
 30
0.0
 11
272.0
 21
247.00000000000003
 31
0.0
  0
LINE
 62
5
  8
0
 10
262.0
 20
312.00000000000006
 30
0.0
 11
272.0
 21
312.00000000000006
 31
0.0
  0
LINE
 62
5
  8
0
 10
189.0
 20
312.00000000000006
 30
0.0
 11
179.00000000000003
 21
312.00000000000006
 31
0.0
  0
LINE
 62
5
  8
0
 10
189.0
 20
353.00000000000006
 30
0.0
 11
189.0
 21
312.00000000000006
 31
0.0
  0
LINE
 62
5
  8
0
 10
179.00000000000003
 20
353.00000000000006
 30
0.0
 11
189.0
 21
353.00000000000006
 31
0.0
  0
LINE
 62
5
  8
0
 10
226.00000000000003
 20
353.00000000000006
 30
0.0
 11
202.00000000000003
 21
353.00000000000006
 31
0.0
  0
LINE
  6
DOTTED
 62
1
  8
0
 10
226.00000000000003
 20
353.00000000000006
 30
0.0
 11
226.00000000000003
 21
413.00000000000006
 31
0.0
  0
LINE
 62
5
  8
0
 10
202.00000000000003
 20
413.00000000000006
 30
0.0
 11
226.00000000000003
 21
413.00000000000006
 31
0.0
  0
LINE
 62
5
  8
0
 10
262.0
 20
353.00000000000006
 30
0.0
 11
226.00000000000003
 21
353.00000000000006
 31
0.0
  0
LINE
 62
5
  8
0
 10
262.0
 20
413.00000000000006
 30
0.0
 11
262.0
 21
353.00000000000006
 31
0.0
  0
LINE
 62
5
  8
0
 10
226.00000000000003
 20
413.00000000000006
 30
0.0
 11
262.0
 21
413.00000000000006
 31
0.0
  0
LINE
 62
5
  8
0
 10
179.00000000000003
 20
413.00000000000006
 30
0.0
 11
202.00000000000003
 21
413.00000000000006
 31
0.0
  0
LINE
  6
DOTTED
 62
1
  8
0
 10
179.00000000000003
 20
413.00000000000006
 30
0.0
 11
166.0
 21
413.00000000000006
 31
0.0
  0
LINE
 62
5
  8
0
 10
166.0
 20
413.00000000000006
 30
0.0
 11
166.0
 21
413.00000000000006
 31
0.0
  0
LINE
 62
5
  8
0
 10
202.00000000000003
 20
413.00000000000006
 30
0.0
 11
202.00000000000003
 21
413.00000000000006
 31
0.0
  0
LINE
 62
5
  8
0
 10
166.0
 20
454.00000000000006
 30
0.0
 11
179.00000000000003
 21
454.00000000000006
 31
0.0
  0
LINE
  6
DOTTED
 62
1
  8
0
 10
166.0
 20
454.00000000000006
 30
0.0
 11
166.0
 21
413.00000000000006
 31
0.0
  0
LINE
  6
DOTTED
 62
1
  8
0
 10
179.00000000000003
 20
413.00000000000006
 30
0.0
 11
179.00000000000003
 21
454.00000000000006
 31
0.0
  0
LINE
 62
5
  8
0
 10
147.00000000000003
 20
454.00000000000006
 30
0.0
 11
166.0
 21
454.00000000000006
 31
0.0
  0
LINE
  6
DOTTED
 62
1
  8
0
 10
147.00000000000003
 20
454.00000000000006
 30
0.0
 11
147.00000000000003
 21
413.00000000000006
 31
0.0
  0
LINE
 62
5
  8
0
 10
166.0
 20
413.00000000000006
 30
0.0
 11
147.00000000000003
 21
413.00000000000006
 31
0.0
  0
LINE
  6
DOTTED
 62
1
  8
0
 10
147.00000000000003
 20
454.00000000000006
 30
0.0
 11
134.00000000000003
 21
454.00000000000006
 31
0.0
  0
LINE
  6
DOTTED
 62
1
  8
0
 10
134.00000000000003
 20
454.00000000000006
 30
0.0
 11
134.00000000000003
 21
413.00000000000006
 31
0.0
  0
LINE
 62
5
  8
0
 10
147.00000000000003
 20
413.00000000000006
 30
0.0
 11
134.00000000000003
 21
413.00000000000006
 31
0.0
  0
LINE
  6
DOTTED
 62
1
  8
0
 10
147.00000000000003
 20
454.00000000000006
 30
0.0
 11
147.00000000000003
 21
476.00000000000006
 31
0.0
  0
LINE
  6
DOTTED
 62
1
  8
0
 10
147.00000000000003
 20
476.00000000000006
 30
0.0
 11
134.00000000000003
 21
476.00000000000006
 31
0.0
  0
LINE
  6
DOTTED
 62
1
  8
0
 10
134.00000000000003
 20
454.00000000000006
 30
0.0
 11
134.00000000000003
 21
476.00000000000006
 31
0.0
  0
LINE
 62
5
  8
0
 10
160.00000000000003
 20
454.00000000000006
 30
0.0
 11
147.00000000000003
 21
454.00000000000006
 31
0.0
  0
LINE
  6
DOTTED
 62
1
  8
0
 10
160.00000000000003
 20
454.00000000000006
 30
0.0
 11
160.00000000000003
 21
476.00000000000006
 31
0.0
  0
LINE
 62
5
  8
0
 10
147.00000000000003
 20
476.00000000000006
 30
0.0
 11
160.00000000000003
 21
476.00000000000006
 31
0.0
  0
LINE
 62
5
  8
0
 10
173.0
 20
454.00000000000006
 30
0.0
 11
160.00000000000003
 21
454.00000000000006
 31
0.0
  0
LINE
 62
5
  8
0
 10
173.0
 20
476.00000000000006
 30
0.0
 11
173.0
 21
454.00000000000006
 31
0.0
  0
LINE
 62
5
  8
0
 10
160.00000000000003
 20
476.00000000000006
 30
0.0
 11
173.0
 21
476.00000000000006
 31
0.0
  0
LINE
 62
5
  8
0
 10
147.00000000000003
 20
486.00000000000006
 30
0.0
 11
147.00000000000003
 21
476.00000000000006
 31
0.0
  0
LINE
 62
5
  8
0
 10
134.00000000000003
 20
486.00000000000006
 30
0.0
 11
147.00000000000003
 21
486.00000000000006
 31
0.0
  0
LINE
 62
5
  8
0
 10
134.00000000000003
 20
476.00000000000006
 30
0.0
 11
134.00000000000003
 21
486.00000000000006
 31
0.0
  0
LINE
 62
5
  8
0
 10
134.00000000000003
 20
454.00000000000006
 30
0.0
 11
121.00000000000001
 21
454.00000000000006
 31
0.0
  0
LINE
 62
5
  8
0
 10
121.00000000000001
 20
476.00000000000006
 30
0.0
 11
134.00000000000003
 21
476.00000000000006
 31
0.0
  0
LINE
  6
DOTTED
 62
1
  8
0
 10
121.00000000000001
 20
476.00000000000006
 30
0.0
 11
121.00000000000001
 21
454.00000000000006
 31
0.0
  0
LINE
 62
5
  8
0
 10
111.00000000000001
 20
476.00000000000006
 30
0.0
 11
121.00000000000001
 21
476.00000000000006
 31
0.0
  0
LINE
 62
5
  8
0
 10
111.00000000000001
 20
454.00000000000006
 30
0.0
 11
111.00000000000001
 21
476.00000000000006
 31
0.0
  0
LINE
 62
5
  8
0
 10
121.00000000000001
 20
454.00000000000006
 30
0.0
 11
111.00000000000001
 21
454.00000000000006
 31
0.0
  0
LINE
 62
5
  8
0
 10
115.00000000000001
 20
454.00000000000006
 30
0.0
 11
134.00000000000003
 21
454.00000000000006
 31
0.0
  0
LINE
 62
5
  8
0
 10
115.00000000000001
 20
413.00000000000006
 30
0.0
 11
115.00000000000001
 21
454.00000000000006
 31
0.0
  0
LINE
 62
5
  8
0
 10
134.00000000000003
 20
413.00000000000006
 30
0.0
 11
115.00000000000001
 21
413.00000000000006
 31
0.0
  0
LINE
 62
5
  8
0
 10
189.0
 20
413.00000000000006
 30
0.0
 11
179.00000000000003
 21
413.00000000000006
 31
0.0
  0
LINE
 62
5
  8
0
 10
189.0
 20
454.00000000000006
 30
0.0
 11
189.0
 21
413.00000000000006
 31
0.0
  0
LINE
 62
5
  8
0
 10
179.00000000000003
 20
454.00000000000006
 30
0.0
 11
189.0
 21
454.00000000000006
 31
0.0
  0
LINE
 62
5
  8
0
 10
132.0
 20
413.00000000000006
 30
0.0
 11
142.00000000000003
 21
413.00000000000006
 31
0.0
  0
LINE
 62
5
  8
0
 10
132.0
 20
353.00000000000006
 30
0.0
 11
132.0
 21
413.00000000000006
 31
0.0
  0
LINE
 62
5
  8
0
 10
142.00000000000003
 20
353.00000000000006
 30
0.0
 11
132.0
 21
353.00000000000006
 31
0.0
  0
LINE
 62
5
  8
0
 10
142.50000000000003
 20
365.75000000000006
 30
0.0
 11
142.50000000000003
 21
362.75000000000006
 31
0.0
  0
LINE
 62
5
  8
0
 10
142.50000000000003
 20
362.75000000000006
 30
0.0
 11
145.5
 21
362.75000000000006
 31
0.0
  0
LINE
 62
5
  8
0
 10
145.5
 20
362.75000000000006
 30
0.0
 11
145.5
 21
365.75000000000006
 31
0.0
  0
LINE
 62
5
  8
0
 10
145.5
 20
365.75000000000006
 30
0.0
 11
142.50000000000003
 21
365.75000000000006
 31
0.0
  0
LINE
 62
5
  8
0
 10
163.5
 20
364.75000000000006
 30
0.0
 11
163.5
 21
363.75
 31
0.0
  0
LINE
 62
5
  8
0
 10
163.5
 20
363.75
 30
0.0
 11
164.50000000000003
 21
363.75
 31
0.0
  0
LINE
 62
5
  8
0
 10
164.50000000000003
 20
363.75
 30
0.0
 11
164.50000000000003
 21
364.75000000000006
 31
0.0
  0
LINE
 62
5
  8
0
 10
164.50000000000003
 20
364.75000000000006
 30
0.0
 11
163.5
 21
364.75000000000006
 31
0.0
  0
LINE
 62
5
  8
0
 10
143.5
 20
367.25000000000006
 30
0.0
 11
143.5
 21
366.25000000000006
 31
0.0
  0
LINE
 62
5
  8
0
 10
143.5
 20
366.25000000000006
 30
0.0
 11
144.50000000000003
 21
366.25000000000006
 31
0.0
  0
LINE
 62
5
  8
0
 10
144.50000000000003
 20
366.25000000000006
 30
0.0
 11
144.50000000000003
 21
367.25000000000006
 31
0.0
  0
LINE
 62
5
  8
0
 10
144.50000000000003
 20
367.25000000000006
 30
0.0
 11
143.5
 21
367.25000000000006
 31
0.0
  0
LINE
 62
5
  8
0
 10
163.5
 20
367.25000000000006
 30
0.0
 11
163.5
 21
366.25000000000006
 31
0.0
  0
LINE
 62
5
  8
0
 10
163.5
 20
366.25000000000006
 30
0.0
 11
164.50000000000003
 21
366.25000000000006
 31
0.0
  0
LINE
 62
5
  8
0
 10
164.50000000000003
 20
366.25000000000006
 30
0.0
 11
164.50000000000003
 21
367.25000000000006
 31
0.0
  0
LINE
 62
5
  8
0
 10
164.50000000000003
 20
367.25000000000006
 30
0.0
 11
163.5
 21
367.25000000000006
 31
0.0
  0
LINE
 62
5
  8
0
 10
143.5
 20
369.75000000000006
 30
0.0
 11
143.5
 21
368.75
 31
0.0
  0
LINE
 62
5
  8
0
 10
143.5
 20
368.75
 30
0.0
 11
144.50000000000003
 21
368.75
 31
0.0
  0
LINE
 62
5
  8
0
 10
144.50000000000003
 20
368.75
 30
0.0
 11
144.50000000000003
 21
369.75000000000006
 31
0.0
  0
LINE
 62
5
  8
0
 10
144.50000000000003
 20
369.75000000000006
 30
0.0
 11
143.5
 21
369.75000000000006
 31
0.0
  0
LINE
 62
5
  8
0
 10
163.5
 20
369.75000000000006
 30
0.0
 11
163.5
 21
368.75
 31
0.0
  0
LINE
 62
5
  8
0
 10
163.5
 20
368.75
 30
0.0
 11
164.50000000000003
 21
368.75
 31
0.0
  0
LINE
 62
5
  8
0
 10
164.50000000000003
 20
368.75
 30
0.0
 11
164.50000000000003
 21
369.75000000000006
 31
0.0
  0
LINE
 62
5
  8
0
 10
164.50000000000003
 20
369.75000000000006
 30
0.0
 11
163.5
 21
369.75000000000006
 31
0.0
  0
LINE
 62
5
  8
0
 10
143.5
 20
372.25000000000006
 30
0.0
 11
143.5
 21
371.25000000000006
 31
0.0
  0
LINE
 62
5
  8
0
 10
143.5
 20
371.25000000000006
 30
0.0
 11
144.50000000000003
 21
371.25000000000006
 31
0.0
  0
LINE
 62
5
  8
0
 10
144.50000000000003
 20
371.25000000000006
 30
0.0
 11
144.50000000000003
 21
372.25000000000006
 31
0.0
  0
LINE
 62
5
  8
0
 10
144.50000000000003
 20
372.25000000000006
 30
0.0
 11
143.5
 21
372.25000000000006
 31
0.0
  0
LINE
 62
5
  8
0
 10
163.5
 20
372.25000000000006
 30
0.0
 11
163.5
 21
371.25000000000006
 31
0.0
  0
LINE
 62
5
  8
0
 10
163.5
 20
371.25000000000006
 30
0.0
 11
164.50000000000003
 21
371.25000000000006
 31
0.0
  0
LINE
 62
5
  8
0
 10
164.50000000000003
 20
371.25000000000006
 30
0.0
 11
164.50000000000003
 21
372.25000000000006
 31
0.0
  0
LINE
 62
5
  8
0
 10
164.50000000000003
 20
372.25000000000006
 30
0.0
 11
163.5
 21
372.25000000000006
 31
0.0
  0
LINE
 62
5
  8
0
 10
143.5
 20
374.75000000000006
 30
0.0
 11
143.5
 21
373.75000000000006
 31
0.0
  0
LINE
 62
5
  8
0
 10
143.5
 20
373.75000000000006
 30
0.0
 11
144.50000000000003
 21
373.75000000000006
 31
0.0
  0
LINE
 62
5
  8
0
 10
144.50000000000003
 20
373.75000000000006
 30
0.0
 11
144.50000000000003
 21
374.75000000000006
 31
0.0
  0
LINE
 62
5
  8
0
 10
144.50000000000003
 20
374.75000000000006
 30
0.0
 11
143.5
 21
374.75000000000006
 31
0.0
  0
LINE
 62
5
  8
0
 10
163.5
 20
374.75000000000006
 30
0.0
 11
163.5
 21
373.75000000000006
 31
0.0
  0
LINE
 62
5
  8
0
 10
163.5
 20
373.75000000000006
 30
0.0
 11
164.50000000000003
 21
373.75000000000006
 31
0.0
  0
LINE
 62
5
  8
0
 10
164.50000000000003
 20
373.75000000000006
 30
0.0
 11
164.50000000000003
 21
374.75000000000006
 31
0.0
  0
LINE
 62
5
  8
0
 10
164.50000000000003
 20
374.75000000000006
 30
0.0
 11
163.5
 21
374.75000000000006
 31
0.0
  0
LINE
 62
5
  8
0
 10
143.5
 20
377.25
 30
0.0
 11
143.5
 21
376.25000000000006
 31
0.0
  0
LINE
 62
5
  8
0
 10
143.5
 20
376.25000000000006
 30
0.0
 11
144.50000000000003
 21
376.25000000000006
 31
0.0
  0
LINE
 62
5
  8
0
 10
144.50000000000003
 20
376.25000000000006
 30
0.0
 11
144.50000000000003
 21
377.25
 31
0.0
  0
LINE
 62
5
  8
0
 10
144.50000000000003
 20
377.25
 30
0.0
 11
143.5
 21
377.25
 31
0.0
  0
LINE
 62
5
  8
0
 10
163.5
 20
377.25
 30
0.0
 11
163.5
 21
376.25000000000006
 31
0.0
  0
LINE
 62
5
  8
0
 10
163.5
 20
376.25000000000006
 30
0.0
 11
164.50000000000003
 21
376.25000000000006
 31
0.0
  0
LINE
 62
5
  8
0
 10
164.50000000000003
 20
376.25000000000006
 30
0.0
 11
164.50000000000003
 21
377.25
 31
0.0
  0
LINE
 62
5
  8
0
 10
164.50000000000003
 20
377.25
 30
0.0
 11
163.5
 21
377.25
 31
0.0
  0
LINE
 62
5
  8
0
 10
143.5
 20
379.75000000000006
 30
0.0
 11
143.5
 21
378.75000000000006
 31
0.0
  0
LINE
 62
5
  8
0
 10
143.5
 20
378.75000000000006
 30
0.0
 11
144.50000000000003
 21
378.75000000000006
 31
0.0
  0
LINE
 62
5
  8
0
 10
144.50000000000003
 20
378.75000000000006
 30
0.0
 11
144.50000000000003
 21
379.75000000000006
 31
0.0
  0
LINE
 62
5
  8
0
 10
144.50000000000003
 20
379.75000000000006
 30
0.0
 11
143.5
 21
379.75000000000006
 31
0.0
  0
LINE
 62
5
  8
0
 10
163.5
 20
379.75000000000006
 30
0.0
 11
163.5
 21
378.75000000000006
 31
0.0
  0
LINE
 62
5
  8
0
 10
163.5
 20
378.75000000000006
 30
0.0
 11
164.50000000000003
 21
378.75000000000006
 31
0.0
  0
LINE
 62
5
  8
0
 10
164.50000000000003
 20
378.75000000000006
 30
0.0
 11
164.50000000000003
 21
379.75000000000006
 31
0.0
  0
LINE
 62
5
  8
0
 10
164.50000000000003
 20
379.75000000000006
 30
0.0
 11
163.5
 21
379.75000000000006
 31
0.0
  0
LINE
 62
5
  8
0
 10
143.5
 20
382.25
 30
0.0
 11
143.5
 21
381.25000000000006
 31
0.0
  0
LINE
 62
5
  8
0
 10
143.5
 20
381.25000000000006
 30
0.0
 11
144.50000000000003
 21
381.25000000000006
 31
0.0
  0
LINE
 62
5
  8
0
 10
144.50000000000003
 20
381.25000000000006
 30
0.0
 11
144.50000000000003
 21
382.25
 31
0.0
  0
LINE
 62
5
  8
0
 10
144.50000000000003
 20
382.25
 30
0.0
 11
143.5
 21
382.25
 31
0.0
  0
LINE
 62
5
  8
0
 10
163.5
 20
382.25
 30
0.0
 11
163.5
 21
381.25000000000006
 31
0.0
  0
LINE
 62
5
  8
0
 10
163.5
 20
381.25000000000006
 30
0.0
 11
164.50000000000003
 21
381.25000000000006
 31
0.0
  0
LINE
 62
5
  8
0
 10
164.50000000000003
 20
381.25000000000006
 30
0.0
 11
164.50000000000003
 21
382.25
 31
0.0
  0
LINE
 62
5
  8
0
 10
164.50000000000003
 20
382.25
 30
0.0
 11
163.5
 21
382.25
 31
0.0
  0
LINE
 62
5
  8
0
 10
143.5
 20
384.75000000000006
 30
0.0
 11
143.5
 21
383.75000000000006
 31
0.0
  0
LINE
 62
5
  8
0
 10
143.5
 20
383.75000000000006
 30
0.0
 11
144.50000000000003
 21
383.75000000000006
 31
0.0
  0
LINE
 62
5
  8
0
 10
144.50000000000003
 20
383.75000000000006
 30
0.0
 11
144.50000000000003
 21
384.75000000000006
 31
0.0
  0
LINE
 62
5
  8
0
 10
144.50000000000003
 20
384.75000000000006
 30
0.0
 11
143.5
 21
384.75000000000006
 31
0.0
  0
LINE
 62
5
  8
0
 10
163.5
 20
384.75000000000006
 30
0.0
 11
163.5
 21
383.75000000000006
 31
0.0
  0
LINE
 62
5
  8
0
 10
163.5
 20
383.75000000000006
 30
0.0
 11
164.50000000000003
 21
383.75000000000006
 31
0.0
  0
LINE
 62
5
  8
0
 10
164.50000000000003
 20
383.75000000000006
 30
0.0
 11
164.50000000000003
 21
384.75000000000006
 31
0.0
  0
LINE
 62
5
  8
0
 10
164.50000000000003
 20
384.75000000000006
 30
0.0
 11
163.5
 21
384.75000000000006
 31
0.0
  0
LINE
 62
5
  8
0
 10
143.5
 20
387.25
 30
0.0
 11
143.5
 21
386.25000000000006
 31
0.0
  0
LINE
 62
5
  8
0
 10
143.5
 20
386.25000000000006
 30
0.0
 11
144.50000000000003
 21
386.25000000000006
 31
0.0
  0
LINE
 62
5
  8
0
 10
144.50000000000003
 20
386.25000000000006
 30
0.0
 11
144.50000000000003
 21
387.25
 31
0.0
  0
LINE
 62
5
  8
0
 10
144.50000000000003
 20
387.25
 30
0.0
 11
143.5
 21
387.25
 31
0.0
  0
LINE
 62
5
  8
0
 10
163.5
 20
387.25
 30
0.0
 11
163.5
 21
386.25000000000006
 31
0.0
  0
LINE
 62
5
  8
0
 10
163.5
 20
386.25000000000006
 30
0.0
 11
164.50000000000003
 21
386.25000000000006
 31
0.0
  0
LINE
 62
5
  8
0
 10
164.50000000000003
 20
386.25000000000006
 30
0.0
 11
164.50000000000003
 21
387.25
 31
0.0
  0
LINE
 62
5
  8
0
 10
164.50000000000003
 20
387.25
 30
0.0
 11
163.5
 21
387.25
 31
0.0
  0
LINE
 62
5
  8
0
 10
143.5
 20
389.75000000000006
 30
0.0
 11
143.5
 21
388.75000000000006
 31
0.0
  0
LINE
 62
5
  8
0
 10
143.5
 20
388.75000000000006
 30
0.0
 11
144.50000000000003
 21
388.75000000000006
 31
0.0
  0
LINE
 62
5
  8
0
 10
144.50000000000003
 20
388.75000000000006
 30
0.0
 11
144.50000000000003
 21
389.75000000000006
 31
0.0
  0
LINE
 62
5
  8
0
 10
144.50000000000003
 20
389.75000000000006
 30
0.0
 11
143.5
 21
389.75000000000006
 31
0.0
  0
LINE
 62
5
  8
0
 10
163.5
 20
389.75000000000006
 30
0.0
 11
163.5
 21
388.75000000000006
 31
0.0
  0
LINE
 62
5
  8
0
 10
163.5
 20
388.75000000000006
 30
0.0
 11
164.50000000000003
 21
388.75000000000006
 31
0.0
  0
LINE
 62
5
  8
0
 10
164.50000000000003
 20
388.75000000000006
 30
0.0
 11
164.50000000000003
 21
389.75000000000006
 31
0.0
  0
LINE
 62
5
  8
0
 10
164.50000000000003
 20
389.75000000000006
 30
0.0
 11
163.5
 21
389.75000000000006
 31
0.0
  0
LINE
 62
5
  8
0
 10
143.5
 20
392.25000000000006
 30
0.0
 11
143.5
 21
391.25
 31
0.0
  0
LINE
 62
5
  8
0
 10
143.5
 20
391.25
 30
0.0
 11
144.50000000000003
 21
391.25
 31
0.0
  0
LINE
 62
5
  8
0
 10
144.50000000000003
 20
391.25
 30
0.0
 11
144.50000000000003
 21
392.25000000000006
 31
0.0
  0
LINE
 62
5
  8
0
 10
144.50000000000003
 20
392.25000000000006
 30
0.0
 11
143.5
 21
392.25000000000006
 31
0.0
  0
LINE
 62
5
  8
0
 10
163.5
 20
392.25000000000006
 30
0.0
 11
163.5
 21
391.25
 31
0.0
  0
LINE
 62
5
  8
0
 10
163.5
 20
391.25
 30
0.0
 11
164.50000000000003
 21
391.25
 31
0.0
  0
LINE
 62
5
  8
0
 10
164.50000000000003
 20
391.25
 30
0.0
 11
164.50000000000003
 21
392.25000000000006
 31
0.0
  0
LINE
 62
5
  8
0
 10
164.50000000000003
 20
392.25000000000006
 30
0.0
 11
163.5
 21
392.25000000000006
 31
0.0
  0
LINE
 62
5
  8
0
 10
143.5
 20
394.75000000000006
 30
0.0
 11
143.5
 21
393.75000000000006
 31
0.0
  0
LINE
 62
5
  8
0
 10
143.5
 20
393.75000000000006
 30
0.0
 11
144.50000000000003
 21
393.75000000000006
 31
0.0
  0
LINE
 62
5
  8
0
 10
144.50000000000003
 20
393.75000000000006
 30
0.0
 11
144.50000000000003
 21
394.75000000000006
 31
0.0
  0
LINE
 62
5
  8
0
 10
144.50000000000003
 20
394.75000000000006
 30
0.0
 11
143.5
 21
394.75000000000006
 31
0.0
  0
LINE
 62
5
  8
0
 10
163.5
 20
394.75000000000006
 30
0.0
 11
163.5
 21
393.75000000000006
 31
0.0
  0
LINE
 62
5
  8
0
 10
163.5
 20
393.75000000000006
 30
0.0
 11
164.50000000000003
 21
393.75000000000006
 31
0.0
  0
LINE
 62
5
  8
0
 10
164.50000000000003
 20
393.75000000000006
 30
0.0
 11
164.50000000000003
 21
394.75000000000006
 31
0.0
  0
LINE
 62
5
  8
0
 10
164.50000000000003
 20
394.75000000000006
 30
0.0
 11
163.5
 21
394.75000000000006
 31
0.0
  0
LINE
 62
5
  8
0
 10
143.5
 20
397.25000000000006
 30
0.0
 11
143.5
 21
396.25
 31
0.0
  0
LINE
 62
5
  8
0
 10
143.5
 20
396.25
 30
0.0
 11
144.50000000000003
 21
396.25
 31
0.0
  0
LINE
 62
5
  8
0
 10
144.50000000000003
 20
396.25
 30
0.0
 11
144.50000000000003
 21
397.25000000000006
 31
0.0
  0
LINE
 62
5
  8
0
 10
144.50000000000003
 20
397.25000000000006
 30
0.0
 11
143.5
 21
397.25000000000006
 31
0.0
  0
LINE
 62
5
  8
0
 10
163.5
 20
397.25000000000006
 30
0.0
 11
163.5
 21
396.25
 31
0.0
  0
LINE
 62
5
  8
0
 10
163.5
 20
396.25
 30
0.0
 11
164.50000000000003
 21
396.25
 31
0.0
  0
LINE
 62
5
  8
0
 10
164.50000000000003
 20
396.25
 30
0.0
 11
164.50000000000003
 21
397.25000000000006
 31
0.0
  0
LINE
 62
5
  8
0
 10
164.50000000000003
 20
397.25000000000006
 30
0.0
 11
163.5
 21
397.25000000000006
 31
0.0
  0
LINE
 62
5
  8
0
 10
143.5
 20
399.75000000000006
 30
0.0
 11
143.5
 21
398.75000000000006
 31
0.0
  0
LINE
 62
5
  8
0
 10
143.5
 20
398.75000000000006
 30
0.0
 11
144.50000000000003
 21
398.75000000000006
 31
0.0
  0
LINE
 62
5
  8
0
 10
144.50000000000003
 20
398.75000000000006
 30
0.0
 11
144.50000000000003
 21
399.75000000000006
 31
0.0
  0
LINE
 62
5
  8
0
 10
144.50000000000003
 20
399.75000000000006
 30
0.0
 11
143.5
 21
399.75000000000006
 31
0.0
  0
LINE
 62
5
  8
0
 10
163.5
 20
399.75000000000006
 30
0.0
 11
163.5
 21
398.75000000000006
 31
0.0
  0
LINE
 62
5
  8
0
 10
163.5
 20
398.75000000000006
 30
0.0
 11
164.50000000000003
 21
398.75000000000006
 31
0.0
  0
LINE
 62
5
  8
0
 10
164.50000000000003
 20
398.75000000000006
 30
0.0
 11
164.50000000000003
 21
399.75000000000006
 31
0.0
  0
LINE
 62
5
  8
0
 10
164.50000000000003
 20
399.75000000000006
 30
0.0
 11
163.5
 21
399.75000000000006
 31
0.0
  0
LINE
 62
5
  8
0
 10
143.5
 20
402.25000000000006
 30
0.0
 11
143.5
 21
401.25000000000006
 31
0.0
  0
LINE
 62
5
  8
0
 10
143.5
 20
401.25000000000006
 30
0.0
 11
144.50000000000003
 21
401.25000000000006
 31
0.0
  0
LINE
 62
5
  8
0
 10
144.50000000000003
 20
401.25000000000006
 30
0.0
 11
144.50000000000003
 21
402.25000000000006
 31
0.0
  0
LINE
 62
5
  8
0
 10
144.50000000000003
 20
402.25000000000006
 30
0.0
 11
143.5
 21
402.25000000000006
 31
0.0
  0
LINE
 62
5
  8
0
 10
162.50000000000003
 20
403.25000000000006
 30
0.0
 11
162.50000000000003
 21
400.25
 31
0.0
  0
LINE
 62
5
  8
0
 10
162.50000000000003
 20
400.25
 30
0.0
 11
165.50000000000003
 21
400.25
 31
0.0
  0
LINE
 62
5
  8
0
 10
165.50000000000003
 20
400.25
 30
0.0
 11
165.50000000000003
 21
403.25000000000006
 31
0.0
  0
LINE
 62
5
  8
0
 10
165.50000000000003
 20
403.25000000000006
 30
0.0
 11
162.50000000000003
 21
403.25000000000006
 31
0.0
  0
LINE
 62
5
  8
0
 10
179.11428571428573
 20
377.00000000000006
 30
0.0
 11
179.11428571428573
 21
359.0
 31
0.0
  0
LINE
 62
5
  8
0
 10
179.11428571428573
 20
359.0
 30
0.0
 11
199.6857142857143
 21
359.0
 31
0.0
  0
LINE
 62
5
  8
0
 10
199.6857142857143
 20
359.0
 30
0.0
 11
199.6857142857143
 21
377.00000000000006
 31
0.0
  0
LINE
 62
5
  8
0
 10
199.6857142857143
 20
377.00000000000006
 30
0.0
 11
179.11428571428573
 21
377.00000000000006
 31
0.0
  0
LINE
 62
5
  8
0
 10
178.93500000000003
 20
340.00000000000006
 30
0.0
 11
166.065
 21
340.00000000000006
 31
0.0
  0
LINE
 62
5
  8
0
 10
166.065
 20
340.00000000000006
 30
0.0
 11
166.065
 21
317.00000000000006
 31
0.0
  0
LINE
 62
5
  8
0
 10
166.065
 20
317.00000000000006
 30
0.0
 11
178.93500000000003
 21
317.00000000000006
 31
0.0
  0
LINE
 62
5
  8
0
 10
178.93500000000003
 20
317.00000000000006
 30
0.0
 11
178.93500000000003
 21
340.00000000000006
 31
0.0
  0
LINE
 62
5
  8
0
 10
142.91666666666666
 20
319.75000000000006
 30
0.0
 11
142.91666666666666
 21
314.25
 31
0.0
  0
LINE
 62
5
  8
0
 10
142.91666666666666
 20
314.25
 30
0.0
 11
142.41666666666669
 21
314.25
 31
0.0
  0
LINE
 62
5
  8
0
 10
142.41666666666669
 20
314.25
 30
0.0
 11
142.41666666666669
 21
319.75000000000006
 31
0.0
  0
LINE
 62
5
  8
0
 10
142.41666666666669
 20
319.75000000000006
 30
0.0
 11
142.91666666666666
 21
319.75000000000006
 31
0.0
  0
LINE
 62
5
  8
0
 10
122.75000000000001
 20
325.41666666666674
 30
0.0
 11
122.75000000000001
 21
339.58333333333337
 31
0.0
  0
LINE
 62
5
  8
0
 10
122.75000000000001
 20
339.58333333333337
 30
0.0
 11
122.25000000000001
 21
339.58333333333337
 31
0.0
  0
LINE
 62
5
  8
0
 10
122.25000000000001
 20
339.58333333333337
 30
0.0
 11
122.25000000000001
 21
325.41666666666674
 31
0.0
  0
LINE
 62
5
  8
0
 10
122.25000000000001
 20
325.41666666666674
 30
0.0
 11
122.75000000000001
 21
325.41666666666674
 31
0.0
  0
LINE
 62
5
  8
0
 10
118.75000000000001
 20
270.50000000000006
 30
0.0
 11
115.75000000000001
 21
270.50000000000006
 31
0.0
  0
LINE
 62
5
  8
0
 10
115.75000000000001
 20
270.50000000000006
 30
0.0
 11
115.75000000000001
 21
267.50000000000006
 31
0.0
  0
LINE
 62
5
  8
0
 10
115.75000000000001
 20
267.50000000000006
 30
0.0
 11
118.75000000000001
 21
267.50000000000006
 31
0.0
  0
LINE
 62
5
  8
0
 10
118.75000000000001
 20
267.50000000000006
 30
0.0
 11
118.75000000000001
 21
270.50000000000006
 31
0.0
  0
LINE
 62
5
  8
0
 10
117.75000000000001
 20
249.50000000000003
 30
0.0
 11
116.75000000000001
 21
249.50000000000003
 31
0.0
  0
LINE
 62
5
  8
0
 10
116.75000000000001
 20
249.50000000000003
 30
0.0
 11
116.75000000000001
 21
248.50000000000003
 31
0.0
  0
LINE
 62
5
  8
0
 10
116.75000000000001
 20
248.50000000000003
 30
0.0
 11
117.75000000000001
 21
248.50000000000003
 31
0.0
  0
LINE
 62
5
  8
0
 10
117.75000000000001
 20
248.50000000000003
 30
0.0
 11
117.75000000000001
 21
249.50000000000003
 31
0.0
  0
LINE
 62
5
  8
0
 10
120.25000000000001
 20
269.50000000000006
 30
0.0
 11
119.25000000000001
 21
269.50000000000006
 31
0.0
  0
LINE
 62
5
  8
0
 10
119.25000000000001
 20
269.50000000000006
 30
0.0
 11
119.25000000000001
 21
268.50000000000006
 31
0.0
  0
LINE
 62
5
  8
0
 10
119.25000000000001
 20
268.50000000000006
 30
0.0
 11
120.25000000000001
 21
268.50000000000006
 31
0.0
  0
LINE
 62
5
  8
0
 10
120.25000000000001
 20
268.50000000000006
 30
0.0
 11
120.25000000000001
 21
269.50000000000006
 31
0.0
  0
LINE
 62
5
  8
0
 10
120.25000000000001
 20
249.50000000000003
 30
0.0
 11
119.25000000000001
 21
249.50000000000003
 31
0.0
  0
LINE
 62
5
  8
0
 10
119.25000000000001
 20
249.50000000000003
 30
0.0
 11
119.25000000000001
 21
248.50000000000003
 31
0.0
  0
LINE
 62
5
  8
0
 10
119.25000000000001
 20
248.50000000000003
 30
0.0
 11
120.25000000000001
 21
248.50000000000003
 31
0.0
  0
LINE
 62
5
  8
0
 10
120.25000000000001
 20
248.50000000000003
 30
0.0
 11
120.25000000000001
 21
249.50000000000003
 31
0.0
  0
LINE
 62
5
  8
0
 10
122.75000000000001
 20
269.50000000000006
 30
0.0
 11
121.75000000000001
 21
269.50000000000006
 31
0.0
  0
LINE
 62
5
  8
0
 10
121.75000000000001
 20
269.50000000000006
 30
0.0
 11
121.75000000000001
 21
268.50000000000006
 31
0.0
  0
LINE
 62
5
  8
0
 10
121.75000000000001
 20
268.50000000000006
 30
0.0
 11
122.75000000000001
 21
268.50000000000006
 31
0.0
  0
LINE
 62
5
  8
0
 10
122.75000000000001
 20
268.50000000000006
 30
0.0
 11
122.75000000000001
 21
269.50000000000006
 31
0.0
  0
LINE
 62
5
  8
0
 10
122.75000000000001
 20
249.50000000000003
 30
0.0
 11
121.75000000000001
 21
249.50000000000003
 31
0.0
  0
LINE
 62
5
  8
0
 10
121.75000000000001
 20
249.50000000000003
 30
0.0
 11
121.75000000000001
 21
248.50000000000003
 31
0.0
  0
LINE
 62
5
  8
0
 10
121.75000000000001
 20
248.50000000000003
 30
0.0
 11
122.75000000000001
 21
248.50000000000003
 31
0.0
  0
LINE
 62
5
  8
0
 10
122.75000000000001
 20
248.50000000000003
 30
0.0
 11
122.75000000000001
 21
249.50000000000003
 31
0.0
  0
LINE
 62
5
  8
0
 10
125.25000000000001
 20
269.50000000000006
 30
0.0
 11
124.25000000000001
 21
269.50000000000006
 31
0.0
  0
LINE
 62
5
  8
0
 10
124.25000000000001
 20
269.50000000000006
 30
0.0
 11
124.25000000000001
 21
268.50000000000006
 31
0.0
  0
LINE
 62
5
  8
0
 10
124.25000000000001
 20
268.50000000000006
 30
0.0
 11
125.25000000000001
 21
268.50000000000006
 31
0.0
  0
LINE
 62
5
  8
0
 10
125.25000000000001
 20
268.50000000000006
 30
0.0
 11
125.25000000000001
 21
269.50000000000006
 31
0.0
  0
LINE
 62
5
  8
0
 10
125.25000000000001
 20
249.50000000000003
 30
0.0
 11
124.25000000000001
 21
249.50000000000003
 31
0.0
  0
LINE
 62
5
  8
0
 10
124.25000000000001
 20
249.50000000000003
 30
0.0
 11
124.25000000000001
 21
248.50000000000003
 31
0.0
  0
LINE
 62
5
  8
0
 10
124.25000000000001
 20
248.50000000000003
 30
0.0
 11
125.25000000000001
 21
248.50000000000003
 31
0.0
  0
LINE
 62
5
  8
0
 10
125.25000000000001
 20
248.50000000000003
 30
0.0
 11
125.25000000000001
 21
249.50000000000003
 31
0.0
  0
LINE
 62
5
  8
0
 10
127.75000000000001
 20
269.50000000000006
 30
0.0
 11
126.75000000000001
 21
269.50000000000006
 31
0.0
  0
LINE
 62
5
  8
0
 10
126.75000000000001
 20
269.50000000000006
 30
0.0
 11
126.75000000000001
 21
268.50000000000006
 31
0.0
  0
LINE
 62
5
  8
0
 10
126.75000000000001
 20
268.50000000000006
 30
0.0
 11
127.75000000000001
 21
268.50000000000006
 31
0.0
  0
LINE
 62
5
  8
0
 10
127.75000000000001
 20
268.50000000000006
 30
0.0
 11
127.75000000000001
 21
269.50000000000006
 31
0.0
  0
LINE
 62
5
  8
0
 10
127.75000000000001
 20
249.50000000000003
 30
0.0
 11
126.75000000000001
 21
249.50000000000003
 31
0.0
  0
LINE
 62
5
  8
0
 10
126.75000000000001
 20
249.50000000000003
 30
0.0
 11
126.75000000000001
 21
248.50000000000003
 31
0.0
  0
LINE
 62
5
  8
0
 10
126.75000000000001
 20
248.50000000000003
 30
0.0
 11
127.75000000000001
 21
248.50000000000003
 31
0.0
  0
LINE
 62
5
  8
0
 10
127.75000000000001
 20
248.50000000000003
 30
0.0
 11
127.75000000000001
 21
249.50000000000003
 31
0.0
  0
LINE
 62
5
  8
0
 10
130.25000000000003
 20
269.50000000000006
 30
0.0
 11
129.25000000000003
 21
269.50000000000006
 31
0.0
  0
LINE
 62
5
  8
0
 10
129.25000000000003
 20
269.50000000000006
 30
0.0
 11
129.25000000000003
 21
268.50000000000006
 31
0.0
  0
LINE
 62
5
  8
0
 10
129.25000000000003
 20
268.50000000000006
 30
0.0
 11
130.25000000000003
 21
268.50000000000006
 31
0.0
  0
LINE
 62
5
  8
0
 10
130.25000000000003
 20
268.50000000000006
 30
0.0
 11
130.25000000000003
 21
269.50000000000006
 31
0.0
  0
LINE
 62
5
  8
0
 10
130.25000000000003
 20
249.50000000000003
 30
0.0
 11
129.25000000000003
 21
249.50000000000003
 31
0.0
  0
LINE
 62
5
  8
0
 10
129.25000000000003
 20
249.50000000000003
 30
0.0
 11
129.25000000000003
 21
248.50000000000003
 31
0.0
  0
LINE
 62
5
  8
0
 10
129.25000000000003
 20
248.50000000000003
 30
0.0
 11
130.25000000000003
 21
248.50000000000003
 31
0.0
  0
LINE
 62
5
  8
0
 10
130.25000000000003
 20
248.50000000000003
 30
0.0
 11
130.25000000000003
 21
249.50000000000003
 31
0.0
  0
LINE
 62
5
  8
0
 10
132.75000000000003
 20
269.50000000000006
 30
0.0
 11
131.75000000000003
 21
269.50000000000006
 31
0.0
  0
LINE
 62
5
  8
0
 10
131.75000000000003
 20
269.50000000000006
 30
0.0
 11
131.75000000000003
 21
268.50000000000006
 31
0.0
  0
LINE
 62
5
  8
0
 10
131.75000000000003
 20
268.50000000000006
 30
0.0
 11
132.75000000000003
 21
268.50000000000006
 31
0.0
  0
LINE
 62
5
  8
0
 10
132.75000000000003
 20
268.50000000000006
 30
0.0
 11
132.75000000000003
 21
269.50000000000006
 31
0.0
  0
LINE
 62
5
  8
0
 10
132.75000000000003
 20
249.50000000000003
 30
0.0
 11
131.75000000000003
 21
249.50000000000003
 31
0.0
  0
LINE
 62
5
  8
0
 10
131.75000000000003
 20
249.50000000000003
 30
0.0
 11
131.75000000000003
 21
248.50000000000003
 31
0.0
  0
LINE
 62
5
  8
0
 10
131.75000000000003
 20
248.50000000000003
 30
0.0
 11
132.75000000000003
 21
248.50000000000003
 31
0.0
  0
LINE
 62
5
  8
0
 10
132.75000000000003
 20
248.50000000000003
 30
0.0
 11
132.75000000000003
 21
249.50000000000003
 31
0.0
  0
LINE
 62
5
  8
0
 10
135.25000000000003
 20
269.50000000000006
 30
0.0
 11
134.25000000000003
 21
269.50000000000006
 31
0.0
  0
LINE
 62
5
  8
0
 10
134.25000000000003
 20
269.50000000000006
 30
0.0
 11
134.25000000000003
 21
268.50000000000006
 31
0.0
  0
LINE
 62
5
  8
0
 10
134.25000000000003
 20
268.50000000000006
 30
0.0
 11
135.25000000000003
 21
268.50000000000006
 31
0.0
  0
LINE
 62
5
  8
0
 10
135.25000000000003
 20
268.50000000000006
 30
0.0
 11
135.25000000000003
 21
269.50000000000006
 31
0.0
  0
LINE
 62
5
  8
0
 10
135.25000000000003
 20
249.50000000000003
 30
0.0
 11
134.25000000000003
 21
249.50000000000003
 31
0.0
  0
LINE
 62
5
  8
0
 10
134.25000000000003
 20
249.50000000000003
 30
0.0
 11
134.25000000000003
 21
248.50000000000003
 31
0.0
  0
LINE
 62
5
  8
0
 10
134.25000000000003
 20
248.50000000000003
 30
0.0
 11
135.25000000000003
 21
248.50000000000003
 31
0.0
  0
LINE
 62
5
  8
0
 10
135.25000000000003
 20
248.50000000000003
 30
0.0
 11
135.25000000000003
 21
249.50000000000003
 31
0.0
  0
LINE
 62
5
  8
0
 10
137.75000000000003
 20
269.50000000000006
 30
0.0
 11
136.75
 21
269.50000000000006
 31
0.0
  0
LINE
 62
5
  8
0
 10
136.75
 20
269.50000000000006
 30
0.0
 11
136.75
 21
268.50000000000006
 31
0.0
  0
LINE
 62
5
  8
0
 10
136.75
 20
268.50000000000006
 30
0.0
 11
137.75000000000003
 21
268.50000000000006
 31
0.0
  0
LINE
 62
5
  8
0
 10
137.75000000000003
 20
268.50000000000006
 30
0.0
 11
137.75000000000003
 21
269.50000000000006
 31
0.0
  0
LINE
 62
5
  8
0
 10
137.75000000000003
 20
249.50000000000003
 30
0.0
 11
136.75
 21
249.50000000000003
 31
0.0
  0
LINE
 62
5
  8
0
 10
136.75
 20
249.50000000000003
 30
0.0
 11
136.75
 21
248.50000000000003
 31
0.0
  0
LINE
 62
5
  8
0
 10
136.75
 20
248.50000000000003
 30
0.0
 11
137.75000000000003
 21
248.50000000000003
 31
0.0
  0
LINE
 62
5
  8
0
 10
137.75000000000003
 20
248.50000000000003
 30
0.0
 11
137.75000000000003
 21
249.50000000000003
 31
0.0
  0
LINE
 62
5
  8
0
 10
140.25000000000003
 20
269.50000000000006
 30
0.0
 11
139.25
 21
269.50000000000006
 31
0.0
  0
LINE
 62
5
  8
0
 10
139.25
 20
269.50000000000006
 30
0.0
 11
139.25
 21
268.50000000000006
 31
0.0
  0
LINE
 62
5
  8
0
 10
139.25
 20
268.50000000000006
 30
0.0
 11
140.25000000000003
 21
268.50000000000006
 31
0.0
  0
LINE
 62
5
  8
0
 10
140.25000000000003
 20
268.50000000000006
 30
0.0
 11
140.25000000000003
 21
269.50000000000006
 31
0.0
  0
LINE
 62
5
  8
0
 10
140.25000000000003
 20
249.50000000000003
 30
0.0
 11
139.25
 21
249.50000000000003
 31
0.0
  0
LINE
 62
5
  8
0
 10
139.25
 20
249.50000000000003
 30
0.0
 11
139.25
 21
248.50000000000003
 31
0.0
  0
LINE
 62
5
  8
0
 10
139.25
 20
248.50000000000003
 30
0.0
 11
140.25000000000003
 21
248.50000000000003
 31
0.0
  0
LINE
 62
5
  8
0
 10
140.25000000000003
 20
248.50000000000003
 30
0.0
 11
140.25000000000003
 21
249.50000000000003
 31
0.0
  0
LINE
 62
5
  8
0
 10
142.75000000000003
 20
269.50000000000006
 30
0.0
 11
141.75000000000003
 21
269.50000000000006
 31
0.0
  0
LINE
 62
5
  8
0
 10
141.75000000000003
 20
269.50000000000006
 30
0.0
 11
141.75000000000003
 21
268.50000000000006
 31
0.0
  0
LINE
 62
5
  8
0
 10
141.75000000000003
 20
268.50000000000006
 30
0.0
 11
142.75000000000003
 21
268.50000000000006
 31
0.0
  0
LINE
 62
5
  8
0
 10
142.75000000000003
 20
268.50000000000006
 30
0.0
 11
142.75000000000003
 21
269.50000000000006
 31
0.0
  0
LINE
 62
5
  8
0
 10
142.75000000000003
 20
249.50000000000003
 30
0.0
 11
141.75000000000003
 21
249.50000000000003
 31
0.0
  0
LINE
 62
5
  8
0
 10
141.75000000000003
 20
249.50000000000003
 30
0.0
 11
141.75000000000003
 21
248.50000000000003
 31
0.0
  0
LINE
 62
5
  8
0
 10
141.75000000000003
 20
248.50000000000003
 30
0.0
 11
142.75000000000003
 21
248.50000000000003
 31
0.0
  0
LINE
 62
5
  8
0
 10
142.75000000000003
 20
248.50000000000003
 30
0.0
 11
142.75000000000003
 21
249.50000000000003
 31
0.0
  0
LINE
 62
5
  8
0
 10
145.25
 20
269.50000000000006
 30
0.0
 11
144.25000000000003
 21
269.50000000000006
 31
0.0
  0
LINE
 62
5
  8
0
 10
144.25000000000003
 20
269.50000000000006
 30
0.0
 11
144.25000000000003
 21
268.50000000000006
 31
0.0
  0
LINE
 62
5
  8
0
 10
144.25000000000003
 20
268.50000000000006
 30
0.0
 11
145.25
 21
268.50000000000006
 31
0.0
  0
LINE
 62
5
  8
0
 10
145.25
 20
268.50000000000006
 30
0.0
 11
145.25
 21
269.50000000000006
 31
0.0
  0
LINE
 62
5
  8
0
 10
145.25
 20
249.50000000000003
 30
0.0
 11
144.25000000000003
 21
249.50000000000003
 31
0.0
  0
LINE
 62
5
  8
0
 10
144.25000000000003
 20
249.50000000000003
 30
0.0
 11
144.25000000000003
 21
248.50000000000003
 31
0.0
  0
LINE
 62
5
  8
0
 10
144.25000000000003
 20
248.50000000000003
 30
0.0
 11
145.25
 21
248.50000000000003
 31
0.0
  0
LINE
 62
5
  8
0
 10
145.25
 20
248.50000000000003
 30
0.0
 11
145.25
 21
249.50000000000003
 31
0.0
  0
LINE
 62
5
  8
0
 10
147.75
 20
269.50000000000006
 30
0.0
 11
146.75000000000003
 21
269.50000000000006
 31
0.0
  0
LINE
 62
5
  8
0
 10
146.75000000000003
 20
269.50000000000006
 30
0.0
 11
146.75000000000003
 21
268.50000000000006
 31
0.0
  0
LINE
 62
5
  8
0
 10
146.75000000000003
 20
268.50000000000006
 30
0.0
 11
147.75
 21
268.50000000000006
 31
0.0
  0
LINE
 62
5
  8
0
 10
147.75
 20
268.50000000000006
 30
0.0
 11
147.75
 21
269.50000000000006
 31
0.0
  0
LINE
 62
5
  8
0
 10
147.75
 20
249.50000000000003
 30
0.0
 11
146.75000000000003
 21
249.50000000000003
 31
0.0
  0
LINE
 62
5
  8
0
 10
146.75000000000003
 20
249.50000000000003
 30
0.0
 11
146.75000000000003
 21
248.50000000000003
 31
0.0
  0
LINE
 62
5
  8
0
 10
146.75000000000003
 20
248.50000000000003
 30
0.0
 11
147.75
 21
248.50000000000003
 31
0.0
  0
LINE
 62
5
  8
0
 10
147.75
 20
248.50000000000003
 30
0.0
 11
147.75
 21
249.50000000000003
 31
0.0
  0
LINE
 62
5
  8
0
 10
150.25
 20
269.50000000000006
 30
0.0
 11
149.25000000000003
 21
269.50000000000006
 31
0.0
  0
LINE
 62
5
  8
0
 10
149.25000000000003
 20
269.50000000000006
 30
0.0
 11
149.25000000000003
 21
268.50000000000006
 31
0.0
  0
LINE
 62
5
  8
0
 10
149.25000000000003
 20
268.50000000000006
 30
0.0
 11
150.25
 21
268.50000000000006
 31
0.0
  0
LINE
 62
5
  8
0
 10
150.25
 20
268.50000000000006
 30
0.0
 11
150.25
 21
269.50000000000006
 31
0.0
  0
LINE
 62
5
  8
0
 10
150.25
 20
249.50000000000003
 30
0.0
 11
149.25000000000003
 21
249.50000000000003
 31
0.0
  0
LINE
 62
5
  8
0
 10
149.25000000000003
 20
249.50000000000003
 30
0.0
 11
149.25000000000003
 21
248.50000000000003
 31
0.0
  0
LINE
 62
5
  8
0
 10
149.25000000000003
 20
248.50000000000003
 30
0.0
 11
150.25
 21
248.50000000000003
 31
0.0
  0
LINE
 62
5
  8
0
 10
150.25
 20
248.50000000000003
 30
0.0
 11
150.25
 21
249.50000000000003
 31
0.0
  0
LINE
 62
5
  8
0
 10
152.75
 20
269.50000000000006
 30
0.0
 11
151.75000000000003
 21
269.50000000000006
 31
0.0
  0
LINE
 62
5
  8
0
 10
151.75000000000003
 20
269.50000000000006
 30
0.0
 11
151.75000000000003
 21
268.50000000000006
 31
0.0
  0
LINE
 62
5
  8
0
 10
151.75000000000003
 20
268.50000000000006
 30
0.0
 11
152.75
 21
268.50000000000006
 31
0.0
  0
LINE
 62
5
  8
0
 10
152.75
 20
268.50000000000006
 30
0.0
 11
152.75
 21
269.50000000000006
 31
0.0
  0
LINE
 62
5
  8
0
 10
152.75
 20
249.50000000000003
 30
0.0
 11
151.75000000000003
 21
249.50000000000003
 31
0.0
  0
LINE
 62
5
  8
0
 10
151.75000000000003
 20
249.50000000000003
 30
0.0
 11
151.75000000000003
 21
248.50000000000003
 31
0.0
  0
LINE
 62
5
  8
0
 10
151.75000000000003
 20
248.50000000000003
 30
0.0
 11
152.75
 21
248.50000000000003
 31
0.0
  0
LINE
 62
5
  8
0
 10
152.75
 20
248.50000000000003
 30
0.0
 11
152.75
 21
249.50000000000003
 31
0.0
  0
LINE
 62
5
  8
0
 10
155.25000000000003
 20
269.50000000000006
 30
0.0
 11
154.25000000000003
 21
269.50000000000006
 31
0.0
  0
LINE
 62
5
  8
0
 10
154.25000000000003
 20
269.50000000000006
 30
0.0
 11
154.25000000000003
 21
268.50000000000006
 31
0.0
  0
LINE
 62
5
  8
0
 10
154.25000000000003
 20
268.50000000000006
 30
0.0
 11
155.25000000000003
 21
268.50000000000006
 31
0.0
  0
LINE
 62
5
  8
0
 10
155.25000000000003
 20
268.50000000000006
 30
0.0
 11
155.25000000000003
 21
269.50000000000006
 31
0.0
  0
LINE
 62
5
  8
0
 10
156.25000000000003
 20
250.50000000000003
 30
0.0
 11
153.25000000000003
 21
250.50000000000003
 31
0.0
  0
LINE
 62
5
  8
0
 10
153.25000000000003
 20
250.50000000000003
 30
0.0
 11
153.25000000000003
 21
247.50000000000003
 31
0.0
  0
LINE
 62
5
  8
0
 10
153.25000000000003
 20
247.50000000000003
 30
0.0
 11
156.25000000000003
 21
247.50000000000003
 31
0.0
  0
LINE
 62
5
  8
0
 10
156.25000000000003
 20
247.50000000000003
 30
0.0
 11
156.25000000000003
 21
250.50000000000003
 31
0.0
  0
LINE
 62
5
  8
0
 10
98.44000000000001
 20
251.48000000000002
 30
0.0
 11
98.44000000000001
 21
265.52
 31
0.0
  0
LINE
 62
5
  8
0
 10
98.44000000000001
 20
265.52
 30
0.0
 11
80.44000000000001
 21
265.52
 31
0.0
  0
LINE
 62
5
  8
0
 10
80.44000000000001
 20
265.52
 30
0.0
 11
80.44000000000001
 21
251.48000000000002
 31
0.0
  0
LINE
 62
5
  8
0
 10
80.44000000000001
 20
251.48000000000002
 30
0.0
 11
98.44000000000001
 21
251.48000000000002
 31
0.0
  0
LINE
 62
5
  8
0
 10
105.93500000000002
 20
307.00000000000006
 30
0.0
 11
93.06500000000001
 21
307.00000000000006
 31
0.0
  0
LINE
 62
5
  8
0
 10
93.06500000000001
 20
307.00000000000006
 30
0.0
 11
93.06500000000001
 21
284.00000000000006
 31
0.0
  0
LINE
 62
5
  8
0
 10
93.06500000000001
 20
284.00000000000006
 30
0.0
 11
105.93500000000002
 21
284.00000000000006
 31
0.0
  0
LINE
 62
5
  8
0
 10
105.93500000000002
 20
284.00000000000006
 30
0.0
 11
105.93500000000002
 21
307.00000000000006
 31
0.0
  0
LINE
 62
5
  8
0
 10
77.75000000000001
 20
288.11363636363643
 30
0.0
 11
77.75000000000001
 21
300.43181818181824
 31
0.0
  0
LINE
 62
5
  8
0
 10
77.75000000000001
 20
300.43181818181824
 30
0.0
 11
77.25
 21
300.43181818181824
 31
0.0
  0
LINE
 62
5
  8
0
 10
77.25
 20
300.43181818181824
 30
0.0
 11
77.25
 21
288.11363636363643
 31
0.0
  0
LINE
 62
5
  8
0
 10
77.25
 20
288.11363636363643
 30
0.0
 11
77.75000000000001
 21
288.11363636363643
 31
0.0
  0
LINE
 62
5
  8
0
 10
77.75000000000001
 20
258.56818181818187
 30
0.0
 11
77.75000000000001
 21
270.8863636363637
 31
0.0
  0
LINE
 62
5
  8
0
 10
77.75000000000001
 20
270.8863636363637
 30
0.0
 11
77.25
 21
270.8863636363637
 31
0.0
  0
LINE
 62
5
  8
0
 10
77.25
 20
270.8863636363637
 30
0.0
 11
77.25
 21
258.56818181818187
 31
0.0
  0
LINE
 62
5
  8
0
 10
77.25
 20
258.56818181818187
 30
0.0
 11
77.75000000000001
 21
258.56818181818187
 31
0.0
  0
LINE
 62
5
  8
0
 10
166.065
 20
141.0
 30
0.0
 11
178.93500000000003
 21
141.0
 31
0.0
  0
LINE
 62
5
  8
0
 10
178.93500000000003
 20
141.0
 30
0.0
 11
178.93500000000003
 21
164.0
 31
0.0
  0
LINE
 62
5
  8
0
 10
178.93500000000003
 20
164.0
 30
0.0
 11
166.065
 21
164.0
 31
0.0
  0
LINE
 62
5
  8
0
 10
166.065
 20
164.0
 30
0.0
 11
166.065
 21
141.0
 31
0.0
  0
LINE
 62
5
  8
0
 10
194.25000000000003
 20
159.88636363636363
 30
0.0
 11
194.25000000000003
 21
147.56818181818184
 31
0.0
  0
LINE
 62
5
  8
0
 10
194.25000000000003
 20
147.56818181818184
 30
0.0
 11
194.75000000000003
 21
147.56818181818184
 31
0.0
  0
LINE
 62
5
  8
0
 10
194.75000000000003
 20
147.56818181818184
 30
0.0
 11
194.75000000000003
 21
159.88636363636363
 31
0.0
  0
LINE
 62
5
  8
0
 10
194.75000000000003
 20
159.88636363636363
 30
0.0
 11
194.25000000000003
 21
159.88636363636363
 31
0.0
  0
LINE
 62
5
  8
0
 10
194.25000000000003
 20
189.43181818181822
 30
0.0
 11
194.25000000000003
 21
177.11363636363637
 31
0.0
  0
LINE
 62
5
  8
0
 10
194.25000000000003
 20
177.11363636363637
 30
0.0
 11
194.75000000000003
 21
177.11363636363637
 31
0.0
  0
LINE
 62
5
  8
0
 10
194.75000000000003
 20
177.11363636363637
 30
0.0
 11
194.75000000000003
 21
189.43181818181822
 31
0.0
  0
LINE
 62
5
  8
0
 10
194.75000000000003
 20
189.43181818181822
 30
0.0
 11
194.25000000000003
 21
189.43181818181822
 31
0.0
  0
LINE
 62
5
  8
0
 10
105.93500000000002
 20
164.0
 30
0.0
 11
93.06500000000001
 21
164.0
 31
0.0
  0
LINE
 62
5
  8
0
 10
93.06500000000001
 20
164.0
 30
0.0
 11
93.06500000000001
 21
141.0
 31
0.0
  0
LINE
 62
5
  8
0
 10
93.06500000000001
 20
141.0
 30
0.0
 11
105.93500000000002
 21
141.0
 31
0.0
  0
LINE
 62
5
  8
0
 10
105.93500000000002
 20
141.0
 30
0.0
 11
105.93500000000002
 21
164.0
 31
0.0
  0
LINE
 62
5
  8
0
 10
93.06500000000001
 20
108.00000000000001
 30
0.0
 11
105.93500000000002
 21
108.00000000000001
 31
0.0
  0
LINE
 62
5
  8
0
 10
105.93500000000002
 20
108.00000000000001
 30
0.0
 11
105.93500000000002
 21
131.0
 31
0.0
  0
LINE
 62
5
  8
0
 10
105.93500000000002
 20
131.0
 30
0.0
 11
93.06500000000001
 21
131.0
 31
0.0
  0
LINE
 62
5
  8
0
 10
93.06500000000001
 20
131.0
 30
0.0
 11
93.06500000000001
 21
108.00000000000001
 31
0.0
  0
LINE
 62
5
  8
0
 10
129.08333333333337
 20
128.25000000000003
 30
0.0
 11
129.08333333333337
 21
133.75000000000003
 31
0.0
  0
LINE
 62
5
  8
0
 10
129.08333333333337
 20
133.75000000000003
 30
0.0
 11
129.58333333333337
 21
133.75000000000003
 31
0.0
  0
LINE
 62
5
  8
0
 10
129.58333333333337
 20
133.75000000000003
 30
0.0
 11
129.58333333333337
 21
128.25000000000003
 31
0.0
  0
LINE
 62
5
  8
0
 10
129.58333333333337
 20
128.25000000000003
 30
0.0
 11
129.08333333333337
 21
128.25000000000003
 31
0.0
  0
LINE
 62
5
  8
0
 10
106.75000000000001
 20
80.08333333333333
 30
0.0
 11
106.75000000000001
 21
87.9166666666667
 31
0.0
  0
LINE
 62
5
  8
0
 10
106.75000000000001
 20
87.9166666666667
 30
0.0
 11
106.25000000000001
 21
87.9166666666667
 31
0.0
  0
LINE
 62
5
  8
0
 10
106.25000000000001
 20
87.9166666666667
 30
0.0
 11
106.25000000000001
 21
80.08333333333333
 31
0.0
  0
LINE
 62
5
  8
0
 10
106.25000000000001
 20
80.08333333333333
 30
0.0
 11
106.75000000000001
 21
80.08333333333333
 31
0.0
  0
LINE
 62
5
  8
0
 10
106.75000000000001
 20
17.083333333333318
 30
0.0
 11
106.75000000000001
 21
24.916666666666686
 31
0.0
  0
LINE
 62
5
  8
0
 10
106.75000000000001
 20
24.916666666666686
 30
0.0
 11
106.25000000000001
 21
24.916666666666686
 31
0.0
  0
LINE
 62
5
  8
0
 10
106.25000000000001
 20
24.916666666666686
 30
0.0
 11
106.25000000000001
 21
17.083333333333318
 31
0.0
  0
LINE
 62
5
  8
0
 10
106.25000000000001
 20
17.083333333333318
 30
0.0
 11
106.75000000000001
 21
17.083333333333318
 31
0.0
  0
LINE
 62
5
  8
0
 10
129.33333333333337
 20
7.500000000000001
 30
0.0
 11
133.66666666666669
 21
7.500000000000001
 31
0.0
  0
LINE
 62
5
  8
0
 10
133.66666666666669
 20
7.500000000000001
 30
0.0
 11
133.66666666666669
 21
2.5000000000000004
 31
0.0
  0
LINE
 62
5
  8
0
 10
133.66666666666669
 20
2.5000000000000004
 30
0.0
 11
129.33333333333337
 21
2.5000000000000004
 31
0.0
  0
LINE
 62
5
  8
0
 10
158.50000000000003
 20
24.666666666666686
 30
0.0
 11
153.50000000000003
 21
24.666666666666686
 31
0.0
  0
LINE
 62
5
  8
0
 10
153.50000000000003
 20
24.666666666666686
 30
0.0
 11
153.50000000000003
 21
17.333333333333318
 31
0.0
  0
LINE
 62
5
  8
0
 10
153.50000000000003
 20
17.333333333333318
 30
0.0
 11
158.50000000000003
 21
17.333333333333318
 31
0.0
  0
LINE
 62
5
  8
0
 10
149.25000000000003
 20
59.58333333333332
 30
0.0
 11
149.25000000000003
 21
45.416666666666686
 31
0.0
  0
LINE
 62
5
  8
0
 10
149.25000000000003
 20
45.416666666666686
 30
0.0
 11
149.75
 21
45.416666666666686
 31
0.0
  0
LINE
 62
5
  8
0
 10
149.75
 20
45.416666666666686
 30
0.0
 11
149.75
 21
59.58333333333332
 31
0.0
  0
LINE
 62
5
  8
0
 10
149.75
 20
59.58333333333332
 30
0.0
 11
149.25000000000003
 21
59.58333333333332
 31
0.0
  0
LINE
 62
5
  8
0
 10
93.06500000000001
 20
37.0
 30
0.0
 11
105.93500000000002
 21
37.0
 31
0.0
  0
LINE
 62
5
  8
0
 10
105.93500000000002
 20
37.0
 30
0.0
 11
105.93500000000002
 21
60.00000000000001
 31
0.0
  0
LINE
 62
5
  8
0
 10
105.93500000000002
 20
60.00000000000001
 30
0.0
 11
93.06500000000001
 21
60.00000000000001
 31
0.0
  0
LINE
 62
5
  8
0
 10
93.06500000000001
 20
60.00000000000001
 30
0.0
 11
93.06500000000001
 21
37.0
 31
0.0
  0
LINE
 62
5
  8
0
 10
85.50000000000001
 20
45.66666666666669
 30
0.0
 11
85.50000000000001
 21
40.66666666666669
 31
0.0
  0
LINE
 62
5
  8
0
 10
85.50000000000001
 20
40.66666666666669
 30
0.0
 11
90.50000000000001
 21
45.66666666666669
 31
0.0
  0
LINE
 62
5
  8
0
 10
90.50000000000001
 20
45.66666666666669
 30
0.0
 11
90.50000000000001
 21
59.33333333333332
 31
0.0
  0
LINE
 62
5
  8
0
 10
90.50000000000001
 20
59.33333333333332
 30
0.0
 11
85.50000000000001
 21
64.33333333333333
 31
0.0
  0
LINE
 62
5
  8
0
 10
85.50000000000001
 20
64.33333333333333
 30
0.0
 11
85.50000000000001
 21
59.33333333333332
 31
0.0
  0
LINE
 62
5
  8
0
 10
158.50000000000003
 20
87.66666666666669
 30
0.0
 11
153.50000000000003
 21
87.66666666666669
 31
0.0
  0
LINE
 62
5
  8
0
 10
153.50000000000003
 20
87.66666666666669
 30
0.0
 11
153.50000000000003
 21
80.33333333333333
 31
0.0
  0
LINE
 62
5
  8
0
 10
153.50000000000003
 20
80.33333333333333
 30
0.0
 11
158.50000000000003
 21
80.33333333333333
 31
0.0
  0
LINE
 62
5
  8
0
 10
149.25000000000003
 20
122.58333333333333
 30
0.0
 11
149.25000000000003
 21
108.4166666666667
 31
0.0
  0
LINE
 62
5
  8
0
 10
149.25000000000003
 20
108.4166666666667
 30
0.0
 11
149.75
 21
108.4166666666667
 31
0.0
  0
LINE
 62
5
  8
0
 10
149.75
 20
108.4166666666667
 30
0.0
 11
149.75
 21
122.58333333333333
 31
0.0
  0
LINE
 62
5
  8
0
 10
149.75
 20
122.58333333333333
 30
0.0
 11
149.25000000000003
 21
122.58333333333333
 31
0.0
  0
LINE
 62
5
  8
0
 10
85.50000000000001
 20
108.6666666666667
 30
0.0
 11
85.50000000000001
 21
103.6666666666667
 31
0.0
  0
LINE
 62
5
  8
0
 10
85.50000000000001
 20
103.6666666666667
 30
0.0
 11
90.50000000000001
 21
108.6666666666667
 31
0.0
  0
LINE
 62
5
  8
0
 10
90.50000000000001
 20
108.6666666666667
 30
0.0
 11
90.50000000000001
 21
122.33333333333333
 31
0.0
  0
LINE
 62
5
  8
0
 10
90.50000000000001
 20
122.33333333333333
 30
0.0
 11
85.50000000000001
 21
127.33333333333333
 31
0.0
  0
LINE
 62
5
  8
0
 10
85.50000000000001
 20
127.33333333333333
 30
0.0
 11
85.50000000000001
 21
122.33333333333333
 31
0.0
  0
LINE
 62
5
  8
0
 10
2.5000000000000004
 20
147.8181818181818
 30
0.0
 11
7.500000000000001
 21
147.8181818181818
 31
0.0
  0
LINE
 62
5
  8
0
 10
7.500000000000001
 20
147.8181818181818
 30
0.0
 11
7.500000000000001
 21
159.63636363636363
 31
0.0
  0
LINE
 62
5
  8
0
 10
7.500000000000001
 20
159.63636363636363
 30
0.0
 11
2.5000000000000004
 21
159.63636363636363
 31
0.0
  0
LINE
 62
5
  8
0
 10
2.5000000000000004
 20
177.3636363636364
 30
0.0
 11
7.500000000000001
 21
177.3636363636364
 31
0.0
  0
LINE
 62
5
  8
0
 10
7.500000000000001
 20
177.3636363636364
 30
0.0
 11
7.500000000000001
 21
189.18181818181822
 31
0.0
  0
LINE
 62
5
  8
0
 10
7.500000000000001
 20
189.18181818181822
 30
0.0
 11
2.5000000000000004
 21
189.18181818181822
 31
0.0
  0
LINE
 62
5
  8
0
 10
200.20000000000002
 20
251.48000000000002
 30
0.0
 11
200.20000000000002
 21
265.52
 31
0.0
  0
LINE
 62
5
  8
0
 10
200.20000000000002
 20
265.52
 30
0.0
 11
175.0
 21
265.52
 31
0.0
  0
LINE
 62
5
  8
0
 10
175.0
 20
265.52
 30
0.0
 11
175.0
 21
251.48000000000002
 31
0.0
  0
LINE
 62
5
  8
0
 10
175.0
 20
251.48000000000002
 30
0.0
 11
200.20000000000002
 21
251.48000000000002
 31
0.0
  0
LINE
 62
5
  8
0
 10
166.065
 20
284.00000000000006
 30
0.0
 11
178.93500000000003
 21
284.00000000000006
 31
0.0
  0
LINE
 62
5
  8
0
 10
178.93500000000003
 20
284.00000000000006
 30
0.0
 11
178.93500000000003
 21
307.00000000000006
 31
0.0
  0
LINE
 62
5
  8
0
 10
178.93500000000003
 20
307.00000000000006
 30
0.0
 11
166.065
 21
307.00000000000006
 31
0.0
  0
LINE
 62
5
  8
0
 10
166.065
 20
307.00000000000006
 30
0.0
 11
166.065
 21
284.00000000000006
 31
0.0
  0
LINE
 62
5
  8
0
 10
214.75000000000003
 20
270.50000000000006
 30
0.0
 11
211.75
 21
270.50000000000006
 31
0.0
  0
LINE
 62
5
  8
0
 10
211.75
 20
270.50000000000006
 30
0.0
 11
211.75
 21
267.50000000000006
 31
0.0
  0
LINE
 62
5
  8
0
 10
211.75
 20
267.50000000000006
 30
0.0
 11
214.75000000000003
 21
267.50000000000006
 31
0.0
  0
LINE
 62
5
  8
0
 10
214.75000000000003
 20
267.50000000000006
 30
0.0
 11
214.75000000000003
 21
270.50000000000006
 31
0.0
  0
LINE
 62
5
  8
0
 10
213.75
 20
249.50000000000003
 30
0.0
 11
212.75000000000003
 21
249.50000000000003
 31
0.0
  0
LINE
 62
5
  8
0
 10
212.75000000000003
 20
249.50000000000003
 30
0.0
 11
212.75000000000003
 21
248.50000000000003
 31
0.0
  0
LINE
 62
5
  8
0
 10
212.75000000000003
 20
248.50000000000003
 30
0.0
 11
213.75
 21
248.50000000000003
 31
0.0
  0
LINE
 62
5
  8
0
 10
213.75
 20
248.50000000000003
 30
0.0
 11
213.75
 21
249.50000000000003
 31
0.0
  0
LINE
 62
5
  8
0
 10
216.25
 20
269.50000000000006
 30
0.0
 11
215.25000000000003
 21
269.50000000000006
 31
0.0
  0
LINE
 62
5
  8
0
 10
215.25000000000003
 20
269.50000000000006
 30
0.0
 11
215.25000000000003
 21
268.50000000000006
 31
0.0
  0
LINE
 62
5
  8
0
 10
215.25000000000003
 20
268.50000000000006
 30
0.0
 11
216.25
 21
268.50000000000006
 31
0.0
  0
LINE
 62
5
  8
0
 10
216.25
 20
268.50000000000006
 30
0.0
 11
216.25
 21
269.50000000000006
 31
0.0
  0
LINE
 62
5
  8
0
 10
216.25
 20
249.50000000000003
 30
0.0
 11
215.25000000000003
 21
249.50000000000003
 31
0.0
  0
LINE
 62
5
  8
0
 10
215.25000000000003
 20
249.50000000000003
 30
0.0
 11
215.25000000000003
 21
248.50000000000003
 31
0.0
  0
LINE
 62
5
  8
0
 10
215.25000000000003
 20
248.50000000000003
 30
0.0
 11
216.25
 21
248.50000000000003
 31
0.0
  0
LINE
 62
5
  8
0
 10
216.25
 20
248.50000000000003
 30
0.0
 11
216.25
 21
249.50000000000003
 31
0.0
  0
LINE
 62
5
  8
0
 10
218.75000000000003
 20
269.50000000000006
 30
0.0
 11
217.75000000000003
 21
269.50000000000006
 31
0.0
  0
LINE
 62
5
  8
0
 10
217.75000000000003
 20
269.50000000000006
 30
0.0
 11
217.75000000000003
 21
268.50000000000006
 31
0.0
  0
LINE
 62
5
  8
0
 10
217.75000000000003
 20
268.50000000000006
 30
0.0
 11
218.75000000000003
 21
268.50000000000006
 31
0.0
  0
LINE
 62
5
  8
0
 10
218.75000000000003
 20
268.50000000000006
 30
0.0
 11
218.75000000000003
 21
269.50000000000006
 31
0.0
  0
LINE
 62
5
  8
0
 10
218.75000000000003
 20
249.50000000000003
 30
0.0
 11
217.75000000000003
 21
249.50000000000003
 31
0.0
  0
LINE
 62
5
  8
0
 10
217.75000000000003
 20
249.50000000000003
 30
0.0
 11
217.75000000000003
 21
248.50000000000003
 31
0.0
  0
LINE
 62
5
  8
0
 10
217.75000000000003
 20
248.50000000000003
 30
0.0
 11
218.75000000000003
 21
248.50000000000003
 31
0.0
  0
LINE
 62
5
  8
0
 10
218.75000000000003
 20
248.50000000000003
 30
0.0
 11
218.75000000000003
 21
249.50000000000003
 31
0.0
  0
LINE
 62
5
  8
0
 10
221.25000000000003
 20
269.50000000000006
 30
0.0
 11
220.25000000000003
 21
269.50000000000006
 31
0.0
  0
LINE
 62
5
  8
0
 10
220.25000000000003
 20
269.50000000000006
 30
0.0
 11
220.25000000000003
 21
268.50000000000006
 31
0.0
  0
LINE
 62
5
  8
0
 10
220.25000000000003
 20
268.50000000000006
 30
0.0
 11
221.25000000000003
 21
268.50000000000006
 31
0.0
  0
LINE
 62
5
  8
0
 10
221.25000000000003
 20
268.50000000000006
 30
0.0
 11
221.25000000000003
 21
269.50000000000006
 31
0.0
  0
LINE
 62
5
  8
0
 10
221.25000000000003
 20
249.50000000000003
 30
0.0
 11
220.25000000000003
 21
249.50000000000003
 31
0.0
  0
LINE
 62
5
  8
0
 10
220.25000000000003
 20
249.50000000000003
 30
0.0
 11
220.25000000000003
 21
248.50000000000003
 31
0.0
  0
LINE
 62
5
  8
0
 10
220.25000000000003
 20
248.50000000000003
 30
0.0
 11
221.25000000000003
 21
248.50000000000003
 31
0.0
  0
LINE
 62
5
  8
0
 10
221.25000000000003
 20
248.50000000000003
 30
0.0
 11
221.25000000000003
 21
249.50000000000003
 31
0.0
  0
LINE
 62
5
  8
0
 10
223.75000000000003
 20
269.50000000000006
 30
0.0
 11
222.75000000000003
 21
269.50000000000006
 31
0.0
  0
LINE
 62
5
  8
0
 10
222.75000000000003
 20
269.50000000000006
 30
0.0
 11
222.75000000000003
 21
268.50000000000006
 31
0.0
  0
LINE
 62
5
  8
0
 10
222.75000000000003
 20
268.50000000000006
 30
0.0
 11
223.75000000000003
 21
268.50000000000006
 31
0.0
  0
LINE
 62
5
  8
0
 10
223.75000000000003
 20
268.50000000000006
 30
0.0
 11
223.75000000000003
 21
269.50000000000006
 31
0.0
  0
LINE
 62
5
  8
0
 10
223.75000000000003
 20
249.50000000000003
 30
0.0
 11
222.75000000000003
 21
249.50000000000003
 31
0.0
  0
LINE
 62
5
  8
0
 10
222.75000000000003
 20
249.50000000000003
 30
0.0
 11
222.75000000000003
 21
248.50000000000003
 31
0.0
  0
LINE
 62
5
  8
0
 10
222.75000000000003
 20
248.50000000000003
 30
0.0
 11
223.75000000000003
 21
248.50000000000003
 31
0.0
  0
LINE
 62
5
  8
0
 10
223.75000000000003
 20
248.50000000000003
 30
0.0
 11
223.75000000000003
 21
249.50000000000003
 31
0.0
  0
LINE
 62
5
  8
0
 10
226.25000000000003
 20
269.50000000000006
 30
0.0
 11
225.25
 21
269.50000000000006
 31
0.0
  0
LINE
 62
5
  8
0
 10
225.25
 20
269.50000000000006
 30
0.0
 11
225.25
 21
268.50000000000006
 31
0.0
  0
LINE
 62
5
  8
0
 10
225.25
 20
268.50000000000006
 30
0.0
 11
226.25000000000003
 21
268.50000000000006
 31
0.0
  0
LINE
 62
5
  8
0
 10
226.25000000000003
 20
268.50000000000006
 30
0.0
 11
226.25000000000003
 21
269.50000000000006
 31
0.0
  0
LINE
 62
5
  8
0
 10
226.25000000000003
 20
249.50000000000003
 30
0.0
 11
225.25
 21
249.50000000000003
 31
0.0
  0
LINE
 62
5
  8
0
 10
225.25
 20
249.50000000000003
 30
0.0
 11
225.25
 21
248.50000000000003
 31
0.0
  0
LINE
 62
5
  8
0
 10
225.25
 20
248.50000000000003
 30
0.0
 11
226.25000000000003
 21
248.50000000000003
 31
0.0
  0
LINE
 62
5
  8
0
 10
226.25000000000003
 20
248.50000000000003
 30
0.0
 11
226.25000000000003
 21
249.50000000000003
 31
0.0
  0
LINE
 62
5
  8
0
 10
228.75000000000003
 20
269.50000000000006
 30
0.0
 11
227.75000000000003
 21
269.50000000000006
 31
0.0
  0
LINE
 62
5
  8
0
 10
227.75000000000003
 20
269.50000000000006
 30
0.0
 11
227.75000000000003
 21
268.50000000000006
 31
0.0
  0
LINE
 62
5
  8
0
 10
227.75000000000003
 20
268.50000000000006
 30
0.0
 11
228.75000000000003
 21
268.50000000000006
 31
0.0
  0
LINE
 62
5
  8
0
 10
228.75000000000003
 20
268.50000000000006
 30
0.0
 11
228.75000000000003
 21
269.50000000000006
 31
0.0
  0
LINE
 62
5
  8
0
 10
228.75000000000003
 20
249.50000000000003
 30
0.0
 11
227.75000000000003
 21
249.50000000000003
 31
0.0
  0
LINE
 62
5
  8
0
 10
227.75000000000003
 20
249.50000000000003
 30
0.0
 11
227.75000000000003
 21
248.50000000000003
 31
0.0
  0
LINE
 62
5
  8
0
 10
227.75000000000003
 20
248.50000000000003
 30
0.0
 11
228.75000000000003
 21
248.50000000000003
 31
0.0
  0
LINE
 62
5
  8
0
 10
228.75000000000003
 20
248.50000000000003
 30
0.0
 11
228.75000000000003
 21
249.50000000000003
 31
0.0
  0
LINE
 62
5
  8
0
 10
231.25000000000003
 20
269.50000000000006
 30
0.0
 11
230.25000000000003
 21
269.50000000000006
 31
0.0
  0
LINE
 62
5
  8
0
 10
230.25000000000003
 20
269.50000000000006
 30
0.0
 11
230.25000000000003
 21
268.50000000000006
 31
0.0
  0
LINE
 62
5
  8
0
 10
230.25000000000003
 20
268.50000000000006
 30
0.0
 11
231.25000000000003
 21
268.50000000000006
 31
0.0
  0
LINE
 62
5
  8
0
 10
231.25000000000003
 20
268.50000000000006
 30
0.0
 11
231.25000000000003
 21
269.50000000000006
 31
0.0
  0
LINE
 62
5
  8
0
 10
231.25000000000003
 20
249.50000000000003
 30
0.0
 11
230.25000000000003
 21
249.50000000000003
 31
0.0
  0
LINE
 62
5
  8
0
 10
230.25000000000003
 20
249.50000000000003
 30
0.0
 11
230.25000000000003
 21
248.50000000000003
 31
0.0
  0
LINE
 62
5
  8
0
 10
230.25000000000003
 20
248.50000000000003
 30
0.0
 11
231.25000000000003
 21
248.50000000000003
 31
0.0
  0
LINE
 62
5
  8
0
 10
231.25000000000003
 20
248.50000000000003
 30
0.0
 11
231.25000000000003
 21
249.50000000000003
 31
0.0
  0
LINE
 62
5
  8
0
 10
233.75000000000003
 20
269.50000000000006
 30
0.0
 11
232.75000000000003
 21
269.50000000000006
 31
0.0
  0
LINE
 62
5
  8
0
 10
232.75000000000003
 20
269.50000000000006
 30
0.0
 11
232.75000000000003
 21
268.50000000000006
 31
0.0
  0
LINE
 62
5
  8
0
 10
232.75000000000003
 20
268.50000000000006
 30
0.0
 11
233.75000000000003
 21
268.50000000000006
 31
0.0
  0
LINE
 62
5
  8
0
 10
233.75000000000003
 20
268.50000000000006
 30
0.0
 11
233.75000000000003
 21
269.50000000000006
 31
0.0
  0
LINE
 62
5
  8
0
 10
233.75000000000003
 20
249.50000000000003
 30
0.0
 11
232.75000000000003
 21
249.50000000000003
 31
0.0
  0
LINE
 62
5
  8
0
 10
232.75000000000003
 20
249.50000000000003
 30
0.0
 11
232.75000000000003
 21
248.50000000000003
 31
0.0
  0
LINE
 62
5
  8
0
 10
232.75000000000003
 20
248.50000000000003
 30
0.0
 11
233.75000000000003
 21
248.50000000000003
 31
0.0
  0
LINE
 62
5
  8
0
 10
233.75000000000003
 20
248.50000000000003
 30
0.0
 11
233.75000000000003
 21
249.50000000000003
 31
0.0
  0
LINE
 62
5
  8
0
 10
236.25000000000003
 20
269.50000000000006
 30
0.0
 11
235.25000000000003
 21
269.50000000000006
 31
0.0
  0
LINE
 62
5
  8
0
 10
235.25000000000003
 20
269.50000000000006
 30
0.0
 11
235.25000000000003
 21
268.50000000000006
 31
0.0
  0
LINE
 62
5
  8
0
 10
235.25000000000003
 20
268.50000000000006
 30
0.0
 11
236.25000000000003
 21
268.50000000000006
 31
0.0
  0
LINE
 62
5
  8
0
 10
236.25000000000003
 20
268.50000000000006
 30
0.0
 11
236.25000000000003
 21
269.50000000000006
 31
0.0
  0
LINE
 62
5
  8
0
 10
236.25000000000003
 20
249.50000000000003
 30
0.0
 11
235.25000000000003
 21
249.50000000000003
 31
0.0
  0
LINE
 62
5
  8
0
 10
235.25000000000003
 20
249.50000000000003
 30
0.0
 11
235.25000000000003
 21
248.50000000000003
 31
0.0
  0
LINE
 62
5
  8
0
 10
235.25000000000003
 20
248.50000000000003
 30
0.0
 11
236.25000000000003
 21
248.50000000000003
 31
0.0
  0
LINE
 62
5
  8
0
 10
236.25000000000003
 20
248.50000000000003
 30
0.0
 11
236.25000000000003
 21
249.50000000000003
 31
0.0
  0
LINE
 62
5
  8
0
 10
238.75000000000003
 20
269.50000000000006
 30
0.0
 11
237.75000000000003
 21
269.50000000000006
 31
0.0
  0
LINE
 62
5
  8
0
 10
237.75000000000003
 20
269.50000000000006
 30
0.0
 11
237.75000000000003
 21
268.50000000000006
 31
0.0
  0
LINE
 62
5
  8
0
 10
237.75000000000003
 20
268.50000000000006
 30
0.0
 11
238.75000000000003
 21
268.50000000000006
 31
0.0
  0
LINE
 62
5
  8
0
 10
238.75000000000003
 20
268.50000000000006
 30
0.0
 11
238.75000000000003
 21
269.50000000000006
 31
0.0
  0
LINE
 62
5
  8
0
 10
238.75000000000003
 20
249.50000000000003
 30
0.0
 11
237.75000000000003
 21
249.50000000000003
 31
0.0
  0
LINE
 62
5
  8
0
 10
237.75000000000003
 20
249.50000000000003
 30
0.0
 11
237.75000000000003
 21
248.50000000000003
 31
0.0
  0
LINE
 62
5
  8
0
 10
237.75000000000003
 20
248.50000000000003
 30
0.0
 11
238.75000000000003
 21
248.50000000000003
 31
0.0
  0
LINE
 62
5
  8
0
 10
238.75000000000003
 20
248.50000000000003
 30
0.0
 11
238.75000000000003
 21
249.50000000000003
 31
0.0
  0
LINE
 62
5
  8
0
 10
241.25000000000003
 20
269.50000000000006
 30
0.0
 11
240.25000000000003
 21
269.50000000000006
 31
0.0
  0
LINE
 62
5
  8
0
 10
240.25000000000003
 20
269.50000000000006
 30
0.0
 11
240.25000000000003
 21
268.50000000000006
 31
0.0
  0
LINE
 62
5
  8
0
 10
240.25000000000003
 20
268.50000000000006
 30
0.0
 11
241.25000000000003
 21
268.50000000000006
 31
0.0
  0
LINE
 62
5
  8
0
 10
241.25000000000003
 20
268.50000000000006
 30
0.0
 11
241.25000000000003
 21
269.50000000000006
 31
0.0
  0
LINE
 62
5
  8
0
 10
241.25000000000003
 20
249.50000000000003
 30
0.0
 11
240.25000000000003
 21
249.50000000000003
 31
0.0
  0
LINE
 62
5
  8
0
 10
240.25000000000003
 20
249.50000000000003
 30
0.0
 11
240.25000000000003
 21
248.50000000000003
 31
0.0
  0
LINE
 62
5
  8
0
 10
240.25000000000003
 20
248.50000000000003
 30
0.0
 11
241.25000000000003
 21
248.50000000000003
 31
0.0
  0
LINE
 62
5
  8
0
 10
241.25000000000003
 20
248.50000000000003
 30
0.0
 11
241.25000000000003
 21
249.50000000000003
 31
0.0
  0
LINE
 62
5
  8
0
 10
243.75000000000003
 20
269.50000000000006
 30
0.0
 11
242.75000000000003
 21
269.50000000000006
 31
0.0
  0
LINE
 62
5
  8
0
 10
242.75000000000003
 20
269.50000000000006
 30
0.0
 11
242.75000000000003
 21
268.50000000000006
 31
0.0
  0
LINE
 62
5
  8
0
 10
242.75000000000003
 20
268.50000000000006
 30
0.0
 11
243.75000000000003
 21
268.50000000000006
 31
0.0
  0
LINE
 62
5
  8
0
 10
243.75000000000003
 20
268.50000000000006
 30
0.0
 11
243.75000000000003
 21
269.50000000000006
 31
0.0
  0
LINE
 62
5
  8
0
 10
243.75000000000003
 20
249.50000000000003
 30
0.0
 11
242.75000000000003
 21
249.50000000000003
 31
0.0
  0
LINE
 62
5
  8
0
 10
242.75000000000003
 20
249.50000000000003
 30
0.0
 11
242.75000000000003
 21
248.50000000000003
 31
0.0
  0
LINE
 62
5
  8
0
 10
242.75000000000003
 20
248.50000000000003
 30
0.0
 11
243.75000000000003
 21
248.50000000000003
 31
0.0
  0
LINE
 62
5
  8
0
 10
243.75000000000003
 20
248.50000000000003
 30
0.0
 11
243.75000000000003
 21
249.50000000000003
 31
0.0
  0
LINE
 62
5
  8
0
 10
246.25000000000003
 20
269.50000000000006
 30
0.0
 11
245.25000000000003
 21
269.50000000000006
 31
0.0
  0
LINE
 62
5
  8
0
 10
245.25000000000003
 20
269.50000000000006
 30
0.0
 11
245.25000000000003
 21
268.50000000000006
 31
0.0
  0
LINE
 62
5
  8
0
 10
245.25000000000003
 20
268.50000000000006
 30
0.0
 11
246.25000000000003
 21
268.50000000000006
 31
0.0
  0
LINE
 62
5
  8
0
 10
246.25000000000003
 20
268.50000000000006
 30
0.0
 11
246.25000000000003
 21
269.50000000000006
 31
0.0
  0
LINE
 62
5
  8
0
 10
246.25000000000003
 20
249.50000000000003
 30
0.0
 11
245.25000000000003
 21
249.50000000000003
 31
0.0
  0
LINE
 62
5
  8
0
 10
245.25000000000003
 20
249.50000000000003
 30
0.0
 11
245.25000000000003
 21
248.50000000000003
 31
0.0
  0
LINE
 62
5
  8
0
 10
245.25000000000003
 20
248.50000000000003
 30
0.0
 11
246.25000000000003
 21
248.50000000000003
 31
0.0
  0
LINE
 62
5
  8
0
 10
246.25000000000003
 20
248.50000000000003
 30
0.0
 11
246.25000000000003
 21
249.50000000000003
 31
0.0
  0
LINE
 62
5
  8
0
 10
248.75000000000003
 20
269.50000000000006
 30
0.0
 11
247.75000000000003
 21
269.50000000000006
 31
0.0
  0
LINE
 62
5
  8
0
 10
247.75000000000003
 20
269.50000000000006
 30
0.0
 11
247.75000000000003
 21
268.50000000000006
 31
0.0
  0
LINE
 62
5
  8
0
 10
247.75000000000003
 20
268.50000000000006
 30
0.0
 11
248.75000000000003
 21
268.50000000000006
 31
0.0
  0
LINE
 62
5
  8
0
 10
248.75000000000003
 20
268.50000000000006
 30
0.0
 11
248.75000000000003
 21
269.50000000000006
 31
0.0
  0
LINE
 62
5
  8
0
 10
248.75000000000003
 20
249.50000000000003
 30
0.0
 11
247.75000000000003
 21
249.50000000000003
 31
0.0
  0
LINE
 62
5
  8
0
 10
247.75000000000003
 20
249.50000000000003
 30
0.0
 11
247.75000000000003
 21
248.50000000000003
 31
0.0
  0
LINE
 62
5
  8
0
 10
247.75000000000003
 20
248.50000000000003
 30
0.0
 11
248.75000000000003
 21
248.50000000000003
 31
0.0
  0
LINE
 62
5
  8
0
 10
248.75000000000003
 20
248.50000000000003
 30
0.0
 11
248.75000000000003
 21
249.50000000000003
 31
0.0
  0
LINE
 62
5
  8
0
 10
251.25000000000003
 20
269.50000000000006
 30
0.0
 11
250.25000000000006
 21
269.50000000000006
 31
0.0
  0
LINE
 62
5
  8
0
 10
250.25000000000006
 20
269.50000000000006
 30
0.0
 11
250.25000000000006
 21
268.50000000000006
 31
0.0
  0
LINE
 62
5
  8
0
 10
250.25000000000006
 20
268.50000000000006
 30
0.0
 11
251.25000000000003
 21
268.50000000000006
 31
0.0
  0
LINE
 62
5
  8
0
 10
251.25000000000003
 20
268.50000000000006
 30
0.0
 11
251.25000000000003
 21
269.50000000000006
 31
0.0
  0
LINE
 62
5
  8
0
 10
252.25000000000003
 20
250.50000000000003
 30
0.0
 11
249.25000000000003
 21
250.50000000000003
 31
0.0
  0
LINE
 62
5
  8
0
 10
249.25000000000003
 20
250.50000000000003
 30
0.0
 11
249.25000000000003
 21
247.50000000000003
 31
0.0
  0
LINE
 62
5
  8
0
 10
249.25000000000003
 20
247.50000000000003
 30
0.0
 11
252.25000000000003
 21
247.50000000000003
 31
0.0
  0
LINE
 62
5
  8
0
 10
252.25000000000003
 20
247.50000000000003
 30
0.0
 11
252.25000000000003
 21
250.50000000000003
 31
0.0
  0
LINE
 62
5
  8
0
 10
269.50000000000006
 20
300.18181818181824
 30
0.0
 11
264.5
 21
300.18181818181824
 31
0.0
  0
LINE
 62
5
  8
0
 10
264.5
 20
300.18181818181824
 30
0.0
 11
264.5
 21
288.36363636363643
 31
0.0
  0
LINE
 62
5
  8
0
 10
264.5
 20
288.36363636363643
 30
0.0
 11
269.50000000000006
 21
288.36363636363643
 31
0.0
  0
LINE
 62
5
  8
0
 10
269.50000000000006
 20
270.6363636363637
 30
0.0
 11
264.5
 21
270.6363636363637
 31
0.0
  0
LINE
 62
5
  8
0
 10
264.5
 20
270.6363636363637
 30
0.0
 11
264.5
 21
258.81818181818187
 31
0.0
  0
LINE
 62
5
  8
0
 10
264.5
 20
258.81818181818187
 30
0.0
 11
269.50000000000006
 21
258.81818181818187
 31
0.0
  0
LINE
 62
5
  8
0
 10
186.5
 20
339.33333333333337
 30
0.0
 11
186.5
 21
344.33333333333337
 31
0.0
  0
LINE
 62
5
  8
0
 10
186.5
 20
344.33333333333337
 30
0.0
 11
181.50000000000003
 21
339.33333333333337
 31
0.0
  0
LINE
 62
5
  8
0
 10
181.50000000000003
 20
339.33333333333337
 30
0.0
 11
181.50000000000003
 21
325.66666666666674
 31
0.0
  0
LINE
 62
5
  8
0
 10
181.50000000000003
 20
325.66666666666674
 30
0.0
 11
186.5
 21
320.66666666666674
 31
0.0
  0
LINE
 62
5
  8
0
 10
186.5
 20
320.66666666666674
 30
0.0
 11
186.5
 21
325.66666666666674
 31
0.0
  0
LINE
 62
5
  8
0
 10
202.5
 20
365.75000000000006
 30
0.0
 11
202.5
 21
362.75000000000006
 31
0.0
  0
LINE
 62
5
  8
0
 10
202.5
 20
362.75000000000006
 30
0.0
 11
205.50000000000003
 21
362.75000000000006
 31
0.0
  0
LINE
 62
5
  8
0
 10
205.50000000000003
 20
362.75000000000006
 30
0.0
 11
205.50000000000003
 21
365.75000000000006
 31
0.0
  0
LINE
 62
5
  8
0
 10
205.50000000000003
 20
365.75000000000006
 30
0.0
 11
202.5
 21
365.75000000000006
 31
0.0
  0
LINE
 62
5
  8
0
 10
223.50000000000003
 20
364.75000000000006
 30
0.0
 11
223.50000000000003
 21
363.75
 31
0.0
  0
LINE
 62
5
  8
0
 10
223.50000000000003
 20
363.75
 30
0.0
 11
224.50000000000003
 21
363.75
 31
0.0
  0
LINE
 62
5
  8
0
 10
224.50000000000003
 20
363.75
 30
0.0
 11
224.50000000000003
 21
364.75000000000006
 31
0.0
  0
LINE
 62
5
  8
0
 10
224.50000000000003
 20
364.75000000000006
 30
0.0
 11
223.50000000000003
 21
364.75000000000006
 31
0.0
  0
LINE
 62
5
  8
0
 10
203.50000000000003
 20
367.25000000000006
 30
0.0
 11
203.50000000000003
 21
366.25000000000006
 31
0.0
  0
LINE
 62
5
  8
0
 10
203.50000000000003
 20
366.25000000000006
 30
0.0
 11
204.50000000000003
 21
366.25000000000006
 31
0.0
  0
LINE
 62
5
  8
0
 10
204.50000000000003
 20
366.25000000000006
 30
0.0
 11
204.50000000000003
 21
367.25000000000006
 31
0.0
  0
LINE
 62
5
  8
0
 10
204.50000000000003
 20
367.25000000000006
 30
0.0
 11
203.50000000000003
 21
367.25000000000006
 31
0.0
  0
LINE
 62
5
  8
0
 10
223.50000000000003
 20
367.25000000000006
 30
0.0
 11
223.50000000000003
 21
366.25000000000006
 31
0.0
  0
LINE
 62
5
  8
0
 10
223.50000000000003
 20
366.25000000000006
 30
0.0
 11
224.50000000000003
 21
366.25000000000006
 31
0.0
  0
LINE
 62
5
  8
0
 10
224.50000000000003
 20
366.25000000000006
 30
0.0
 11
224.50000000000003
 21
367.25000000000006
 31
0.0
  0
LINE
 62
5
  8
0
 10
224.50000000000003
 20
367.25000000000006
 30
0.0
 11
223.50000000000003
 21
367.25000000000006
 31
0.0
  0
LINE
 62
5
  8
0
 10
203.50000000000003
 20
369.75000000000006
 30
0.0
 11
203.50000000000003
 21
368.75
 31
0.0
  0
LINE
 62
5
  8
0
 10
203.50000000000003
 20
368.75
 30
0.0
 11
204.50000000000003
 21
368.75
 31
0.0
  0
LINE
 62
5
  8
0
 10
204.50000000000003
 20
368.75
 30
0.0
 11
204.50000000000003
 21
369.75000000000006
 31
0.0
  0
LINE
 62
5
  8
0
 10
204.50000000000003
 20
369.75000000000006
 30
0.0
 11
203.50000000000003
 21
369.75000000000006
 31
0.0
  0
LINE
 62
5
  8
0
 10
223.50000000000003
 20
369.75000000000006
 30
0.0
 11
223.50000000000003
 21
368.75
 31
0.0
  0
LINE
 62
5
  8
0
 10
223.50000000000003
 20
368.75
 30
0.0
 11
224.50000000000003
 21
368.75
 31
0.0
  0
LINE
 62
5
  8
0
 10
224.50000000000003
 20
368.75
 30
0.0
 11
224.50000000000003
 21
369.75000000000006
 31
0.0
  0
LINE
 62
5
  8
0
 10
224.50000000000003
 20
369.75000000000006
 30
0.0
 11
223.50000000000003
 21
369.75000000000006
 31
0.0
  0
LINE
 62
5
  8
0
 10
203.50000000000003
 20
372.25000000000006
 30
0.0
 11
203.50000000000003
 21
371.25000000000006
 31
0.0
  0
LINE
 62
5
  8
0
 10
203.50000000000003
 20
371.25000000000006
 30
0.0
 11
204.50000000000003
 21
371.25000000000006
 31
0.0
  0
LINE
 62
5
  8
0
 10
204.50000000000003
 20
371.25000000000006
 30
0.0
 11
204.50000000000003
 21
372.25000000000006
 31
0.0
  0
LINE
 62
5
  8
0
 10
204.50000000000003
 20
372.25000000000006
 30
0.0
 11
203.50000000000003
 21
372.25000000000006
 31
0.0
  0
LINE
 62
5
  8
0
 10
223.50000000000003
 20
372.25000000000006
 30
0.0
 11
223.50000000000003
 21
371.25000000000006
 31
0.0
  0
LINE
 62
5
  8
0
 10
223.50000000000003
 20
371.25000000000006
 30
0.0
 11
224.50000000000003
 21
371.25000000000006
 31
0.0
  0
LINE
 62
5
  8
0
 10
224.50000000000003
 20
371.25000000000006
 30
0.0
 11
224.50000000000003
 21
372.25000000000006
 31
0.0
  0
LINE
 62
5
  8
0
 10
224.50000000000003
 20
372.25000000000006
 30
0.0
 11
223.50000000000003
 21
372.25000000000006
 31
0.0
  0
LINE
 62
5
  8
0
 10
203.50000000000003
 20
374.75000000000006
 30
0.0
 11
203.50000000000003
 21
373.75000000000006
 31
0.0
  0
LINE
 62
5
  8
0
 10
203.50000000000003
 20
373.75000000000006
 30
0.0
 11
204.50000000000003
 21
373.75000000000006
 31
0.0
  0
LINE
 62
5
  8
0
 10
204.50000000000003
 20
373.75000000000006
 30
0.0
 11
204.50000000000003
 21
374.75000000000006
 31
0.0
  0
LINE
 62
5
  8
0
 10
204.50000000000003
 20
374.75000000000006
 30
0.0
 11
203.50000000000003
 21
374.75000000000006
 31
0.0
  0
LINE
 62
5
  8
0
 10
223.50000000000003
 20
374.75000000000006
 30
0.0
 11
223.50000000000003
 21
373.75000000000006
 31
0.0
  0
LINE
 62
5
  8
0
 10
223.50000000000003
 20
373.75000000000006
 30
0.0
 11
224.50000000000003
 21
373.75000000000006
 31
0.0
  0
LINE
 62
5
  8
0
 10
224.50000000000003
 20
373.75000000000006
 30
0.0
 11
224.50000000000003
 21
374.75000000000006
 31
0.0
  0
LINE
 62
5
  8
0
 10
224.50000000000003
 20
374.75000000000006
 30
0.0
 11
223.50000000000003
 21
374.75000000000006
 31
0.0
  0
LINE
 62
5
  8
0
 10
203.50000000000003
 20
377.25
 30
0.0
 11
203.50000000000003
 21
376.25000000000006
 31
0.0
  0
LINE
 62
5
  8
0
 10
203.50000000000003
 20
376.25000000000006
 30
0.0
 11
204.50000000000003
 21
376.25000000000006
 31
0.0
  0
LINE
 62
5
  8
0
 10
204.50000000000003
 20
376.25000000000006
 30
0.0
 11
204.50000000000003
 21
377.25
 31
0.0
  0
LINE
 62
5
  8
0
 10
204.50000000000003
 20
377.25
 30
0.0
 11
203.50000000000003
 21
377.25
 31
0.0
  0
LINE
 62
5
  8
0
 10
223.50000000000003
 20
377.25
 30
0.0
 11
223.50000000000003
 21
376.25000000000006
 31
0.0
  0
LINE
 62
5
  8
0
 10
223.50000000000003
 20
376.25000000000006
 30
0.0
 11
224.50000000000003
 21
376.25000000000006
 31
0.0
  0
LINE
 62
5
  8
0
 10
224.50000000000003
 20
376.25000000000006
 30
0.0
 11
224.50000000000003
 21
377.25
 31
0.0
  0
LINE
 62
5
  8
0
 10
224.50000000000003
 20
377.25
 30
0.0
 11
223.50000000000003
 21
377.25
 31
0.0
  0
LINE
 62
5
  8
0
 10
203.50000000000003
 20
379.75000000000006
 30
0.0
 11
203.50000000000003
 21
378.75000000000006
 31
0.0
  0
LINE
 62
5
  8
0
 10
203.50000000000003
 20
378.75000000000006
 30
0.0
 11
204.50000000000003
 21
378.75000000000006
 31
0.0
  0
LINE
 62
5
  8
0
 10
204.50000000000003
 20
378.75000000000006
 30
0.0
 11
204.50000000000003
 21
379.75000000000006
 31
0.0
  0
LINE
 62
5
  8
0
 10
204.50000000000003
 20
379.75000000000006
 30
0.0
 11
203.50000000000003
 21
379.75000000000006
 31
0.0
  0
LINE
 62
5
  8
0
 10
223.50000000000003
 20
379.75000000000006
 30
0.0
 11
223.50000000000003
 21
378.75000000000006
 31
0.0
  0
LINE
 62
5
  8
0
 10
223.50000000000003
 20
378.75000000000006
 30
0.0
 11
224.50000000000003
 21
378.75000000000006
 31
0.0
  0
LINE
 62
5
  8
0
 10
224.50000000000003
 20
378.75000000000006
 30
0.0
 11
224.50000000000003
 21
379.75000000000006
 31
0.0
  0
LINE
 62
5
  8
0
 10
224.50000000000003
 20
379.75000000000006
 30
0.0
 11
223.50000000000003
 21
379.75000000000006
 31
0.0
  0
LINE
 62
5
  8
0
 10
203.50000000000003
 20
382.25
 30
0.0
 11
203.50000000000003
 21
381.25000000000006
 31
0.0
  0
LINE
 62
5
  8
0
 10
203.50000000000003
 20
381.25000000000006
 30
0.0
 11
204.50000000000003
 21
381.25000000000006
 31
0.0
  0
LINE
 62
5
  8
0
 10
204.50000000000003
 20
381.25000000000006
 30
0.0
 11
204.50000000000003
 21
382.25
 31
0.0
  0
LINE
 62
5
  8
0
 10
204.50000000000003
 20
382.25
 30
0.0
 11
203.50000000000003
 21
382.25
 31
0.0
  0
LINE
 62
5
  8
0
 10
223.50000000000003
 20
382.25
 30
0.0
 11
223.50000000000003
 21
381.25000000000006
 31
0.0
  0
LINE
 62
5
  8
0
 10
223.50000000000003
 20
381.25000000000006
 30
0.0
 11
224.50000000000003
 21
381.25000000000006
 31
0.0
  0
LINE
 62
5
  8
0
 10
224.50000000000003
 20
381.25000000000006
 30
0.0
 11
224.50000000000003
 21
382.25
 31
0.0
  0
LINE
 62
5
  8
0
 10
224.50000000000003
 20
382.25
 30
0.0
 11
223.50000000000003
 21
382.25
 31
0.0
  0
LINE
 62
5
  8
0
 10
203.50000000000003
 20
384.75000000000006
 30
0.0
 11
203.50000000000003
 21
383.75000000000006
 31
0.0
  0
LINE
 62
5
  8
0
 10
203.50000000000003
 20
383.75000000000006
 30
0.0
 11
204.50000000000003
 21
383.75000000000006
 31
0.0
  0
LINE
 62
5
  8
0
 10
204.50000000000003
 20
383.75000000000006
 30
0.0
 11
204.50000000000003
 21
384.75000000000006
 31
0.0
  0
LINE
 62
5
  8
0
 10
204.50000000000003
 20
384.75000000000006
 30
0.0
 11
203.50000000000003
 21
384.75000000000006
 31
0.0
  0
LINE
 62
5
  8
0
 10
223.50000000000003
 20
384.75000000000006
 30
0.0
 11
223.50000000000003
 21
383.75000000000006
 31
0.0
  0
LINE
 62
5
  8
0
 10
223.50000000000003
 20
383.75000000000006
 30
0.0
 11
224.50000000000003
 21
383.75000000000006
 31
0.0
  0
LINE
 62
5
  8
0
 10
224.50000000000003
 20
383.75000000000006
 30
0.0
 11
224.50000000000003
 21
384.75000000000006
 31
0.0
  0
LINE
 62
5
  8
0
 10
224.50000000000003
 20
384.75000000000006
 30
0.0
 11
223.50000000000003
 21
384.75000000000006
 31
0.0
  0
LINE
 62
5
  8
0
 10
203.50000000000003
 20
387.25
 30
0.0
 11
203.50000000000003
 21
386.25000000000006
 31
0.0
  0
LINE
 62
5
  8
0
 10
203.50000000000003
 20
386.25000000000006
 30
0.0
 11
204.50000000000003
 21
386.25000000000006
 31
0.0
  0
LINE
 62
5
  8
0
 10
204.50000000000003
 20
386.25000000000006
 30
0.0
 11
204.50000000000003
 21
387.25
 31
0.0
  0
LINE
 62
5
  8
0
 10
204.50000000000003
 20
387.25
 30
0.0
 11
203.50000000000003
 21
387.25
 31
0.0
  0
LINE
 62
5
  8
0
 10
223.50000000000003
 20
387.25
 30
0.0
 11
223.50000000000003
 21
386.25000000000006
 31
0.0
  0
LINE
 62
5
  8
0
 10
223.50000000000003
 20
386.25000000000006
 30
0.0
 11
224.50000000000003
 21
386.25000000000006
 31
0.0
  0
LINE
 62
5
  8
0
 10
224.50000000000003
 20
386.25000000000006
 30
0.0
 11
224.50000000000003
 21
387.25
 31
0.0
  0
LINE
 62
5
  8
0
 10
224.50000000000003
 20
387.25
 30
0.0
 11
223.50000000000003
 21
387.25
 31
0.0
  0
LINE
 62
5
  8
0
 10
203.50000000000003
 20
389.75000000000006
 30
0.0
 11
203.50000000000003
 21
388.75000000000006
 31
0.0
  0
LINE
 62
5
  8
0
 10
203.50000000000003
 20
388.75000000000006
 30
0.0
 11
204.50000000000003
 21
388.75000000000006
 31
0.0
  0
LINE
 62
5
  8
0
 10
204.50000000000003
 20
388.75000000000006
 30
0.0
 11
204.50000000000003
 21
389.75000000000006
 31
0.0
  0
LINE
 62
5
  8
0
 10
204.50000000000003
 20
389.75000000000006
 30
0.0
 11
203.50000000000003
 21
389.75000000000006
 31
0.0
  0
LINE
 62
5
  8
0
 10
223.50000000000003
 20
389.75000000000006
 30
0.0
 11
223.50000000000003
 21
388.75000000000006
 31
0.0
  0
LINE
 62
5
  8
0
 10
223.50000000000003
 20
388.75000000000006
 30
0.0
 11
224.50000000000003
 21
388.75000000000006
 31
0.0
  0
LINE
 62
5
  8
0
 10
224.50000000000003
 20
388.75000000000006
 30
0.0
 11
224.50000000000003
 21
389.75000000000006
 31
0.0
  0
LINE
 62
5
  8
0
 10
224.50000000000003
 20
389.75000000000006
 30
0.0
 11
223.50000000000003
 21
389.75000000000006
 31
0.0
  0
LINE
 62
5
  8
0
 10
203.50000000000003
 20
392.25000000000006
 30
0.0
 11
203.50000000000003
 21
391.25
 31
0.0
  0
LINE
 62
5
  8
0
 10
203.50000000000003
 20
391.25
 30
0.0
 11
204.50000000000003
 21
391.25
 31
0.0
  0
LINE
 62
5
  8
0
 10
204.50000000000003
 20
391.25
 30
0.0
 11
204.50000000000003
 21
392.25000000000006
 31
0.0
  0
LINE
 62
5
  8
0
 10
204.50000000000003
 20
392.25000000000006
 30
0.0
 11
203.50000000000003
 21
392.25000000000006
 31
0.0
  0
LINE
 62
5
  8
0
 10
223.50000000000003
 20
392.25000000000006
 30
0.0
 11
223.50000000000003
 21
391.25
 31
0.0
  0
LINE
 62
5
  8
0
 10
223.50000000000003
 20
391.25
 30
0.0
 11
224.50000000000003
 21
391.25
 31
0.0
  0
LINE
 62
5
  8
0
 10
224.50000000000003
 20
391.25
 30
0.0
 11
224.50000000000003
 21
392.25000000000006
 31
0.0
  0
LINE
 62
5
  8
0
 10
224.50000000000003
 20
392.25000000000006
 30
0.0
 11
223.50000000000003
 21
392.25000000000006
 31
0.0
  0
LINE
 62
5
  8
0
 10
203.50000000000003
 20
394.75000000000006
 30
0.0
 11
203.50000000000003
 21
393.75000000000006
 31
0.0
  0
LINE
 62
5
  8
0
 10
203.50000000000003
 20
393.75000000000006
 30
0.0
 11
204.50000000000003
 21
393.75000000000006
 31
0.0
  0
LINE
 62
5
  8
0
 10
204.50000000000003
 20
393.75000000000006
 30
0.0
 11
204.50000000000003
 21
394.75000000000006
 31
0.0
  0
LINE
 62
5
  8
0
 10
204.50000000000003
 20
394.75000000000006
 30
0.0
 11
203.50000000000003
 21
394.75000000000006
 31
0.0
  0
LINE
 62
5
  8
0
 10
223.50000000000003
 20
394.75000000000006
 30
0.0
 11
223.50000000000003
 21
393.75000000000006
 31
0.0
  0
LINE
 62
5
  8
0
 10
223.50000000000003
 20
393.75000000000006
 30
0.0
 11
224.50000000000003
 21
393.75000000000006
 31
0.0
  0
LINE
 62
5
  8
0
 10
224.50000000000003
 20
393.75000000000006
 30
0.0
 11
224.50000000000003
 21
394.75000000000006
 31
0.0
  0
LINE
 62
5
  8
0
 10
224.50000000000003
 20
394.75000000000006
 30
0.0
 11
223.50000000000003
 21
394.75000000000006
 31
0.0
  0
LINE
 62
5
  8
0
 10
203.50000000000003
 20
397.25000000000006
 30
0.0
 11
203.50000000000003
 21
396.25
 31
0.0
  0
LINE
 62
5
  8
0
 10
203.50000000000003
 20
396.25
 30
0.0
 11
204.50000000000003
 21
396.25
 31
0.0
  0
LINE
 62
5
  8
0
 10
204.50000000000003
 20
396.25
 30
0.0
 11
204.50000000000003
 21
397.25000000000006
 31
0.0
  0
LINE
 62
5
  8
0
 10
204.50000000000003
 20
397.25000000000006
 30
0.0
 11
203.50000000000003
 21
397.25000000000006
 31
0.0
  0
LINE
 62
5
  8
0
 10
223.50000000000003
 20
397.25000000000006
 30
0.0
 11
223.50000000000003
 21
396.25
 31
0.0
  0
LINE
 62
5
  8
0
 10
223.50000000000003
 20
396.25
 30
0.0
 11
224.50000000000003
 21
396.25
 31
0.0
  0
LINE
 62
5
  8
0
 10
224.50000000000003
 20
396.25
 30
0.0
 11
224.50000000000003
 21
397.25000000000006
 31
0.0
  0
LINE
 62
5
  8
0
 10
224.50000000000003
 20
397.25000000000006
 30
0.0
 11
223.50000000000003
 21
397.25000000000006
 31
0.0
  0
LINE
 62
5
  8
0
 10
203.50000000000003
 20
399.75000000000006
 30
0.0
 11
203.50000000000003
 21
398.75000000000006
 31
0.0
  0
LINE
 62
5
  8
0
 10
203.50000000000003
 20
398.75000000000006
 30
0.0
 11
204.50000000000003
 21
398.75000000000006
 31
0.0
  0
LINE
 62
5
  8
0
 10
204.50000000000003
 20
398.75000000000006
 30
0.0
 11
204.50000000000003
 21
399.75000000000006
 31
0.0
  0
LINE
 62
5
  8
0
 10
204.50000000000003
 20
399.75000000000006
 30
0.0
 11
203.50000000000003
 21
399.75000000000006
 31
0.0
  0
LINE
 62
5
  8
0
 10
223.50000000000003
 20
399.75000000000006
 30
0.0
 11
223.50000000000003
 21
398.75000000000006
 31
0.0
  0
LINE
 62
5
  8
0
 10
223.50000000000003
 20
398.75000000000006
 30
0.0
 11
224.50000000000003
 21
398.75000000000006
 31
0.0
  0
LINE
 62
5
  8
0
 10
224.50000000000003
 20
398.75000000000006
 30
0.0
 11
224.50000000000003
 21
399.75000000000006
 31
0.0
  0
LINE
 62
5
  8
0
 10
224.50000000000003
 20
399.75000000000006
 30
0.0
 11
223.50000000000003
 21
399.75000000000006
 31
0.0
  0
LINE
 62
5
  8
0
 10
203.50000000000003
 20
402.25000000000006
 30
0.0
 11
203.50000000000003
 21
401.25000000000006
 31
0.0
  0
LINE
 62
5
  8
0
 10
203.50000000000003
 20
401.25000000000006
 30
0.0
 11
204.50000000000003
 21
401.25000000000006
 31
0.0
  0
LINE
 62
5
  8
0
 10
204.50000000000003
 20
401.25000000000006
 30
0.0
 11
204.50000000000003
 21
402.25000000000006
 31
0.0
  0
LINE
 62
5
  8
0
 10
204.50000000000003
 20
402.25000000000006
 30
0.0
 11
203.50000000000003
 21
402.25000000000006
 31
0.0
  0
LINE
 62
5
  8
0
 10
222.50000000000003
 20
403.25000000000006
 30
0.0
 11
222.50000000000003
 21
400.25
 31
0.0
  0
LINE
 62
5
  8
0
 10
222.50000000000003
 20
400.25
 30
0.0
 11
225.50000000000003
 21
400.25
 31
0.0
  0
LINE
 62
5
  8
0
 10
225.50000000000003
 20
400.25
 30
0.0
 11
225.50000000000003
 21
403.25000000000006
 31
0.0
  0
LINE
 62
5
  8
0
 10
225.50000000000003
 20
403.25000000000006
 30
0.0
 11
222.50000000000003
 21
403.25000000000006
 31
0.0
  0
LINE
 62
5
  8
0
 10
231.55428571428573
 20
370.3
 30
0.0
 11
231.55428571428573
 21
357.3
 31
0.0
  0
LINE
 62
5
  8
0
 10
231.55428571428573
 20
357.3
 30
0.0
 11
252.1257142857143
 21
357.3
 31
0.0
  0
LINE
 62
5
  8
0
 10
252.1257142857143
 20
357.3
 30
0.0
 11
252.1257142857143
 21
370.3
 31
0.0
  0
LINE
 62
5
  8
0
 10
252.1257142857143
 20
370.3
 30
0.0
 11
231.55428571428573
 21
370.3
 31
0.0
  0
LINE
 62
5
  8
0
 10
254.25000000000003
 20
393.25000000000006
 30
0.0
 11
254.25000000000003
 21
372.75
 31
0.0
  0
LINE
 62
5
  8
0
 10
254.25000000000003
 20
372.75
 30
0.0
 11
254.75000000000006
 21
372.75
 31
0.0
  0
LINE
 62
5
  8
0
 10
254.75000000000006
 20
372.75
 30
0.0
 11
254.75000000000006
 21
393.25000000000006
 31
0.0
  0
LINE
 62
5
  8
0
 10
254.75000000000006
 20
393.25000000000006
 30
0.0
 11
254.25000000000003
 21
393.25000000000006
 31
0.0
  0
LINE
 62
5
  8
0
 10
178.93500000000003
 20
449.00000000000006
 30
0.0
 11
166.065
 21
449.00000000000006
 31
0.0
  0
LINE
 62
5
  8
0
 10
166.065
 20
449.00000000000006
 30
0.0
 11
166.065
 21
426.00000000000006
 31
0.0
  0
LINE
 62
5
  8
0
 10
166.065
 20
426.00000000000006
 30
0.0
 11
178.93500000000003
 21
426.00000000000006
 31
0.0
  0
LINE
 62
5
  8
0
 10
178.93500000000003
 20
426.00000000000006
 30
0.0
 11
178.93500000000003
 21
449.00000000000006
 31
0.0
  0
LINE
 62
5
  8
0
 10
165.25000000000003
 20
468.91666666666674
 30
0.0
 11
165.25000000000003
 21
461.08333333333337
 31
0.0
  0
LINE
 62
5
  8
0
 10
165.25000000000003
 20
461.08333333333337
 30
0.0
 11
165.75
 21
461.08333333333337
 31
0.0
  0
LINE
 62
5
  8
0
 10
165.75
 20
461.08333333333337
 30
0.0
 11
165.75
 21
468.91666666666674
 31
0.0
  0
LINE
 62
5
  8
0
 10
165.75
 20
468.91666666666674
 30
0.0
 11
165.25000000000003
 21
468.91666666666674
 31
0.0
  0
LINE
 62
5
  8
0
 10
142.66666666666669
 20
478.50000000000006
 30
0.0
 11
138.33333333333334
 21
478.50000000000006
 31
0.0
  0
LINE
 62
5
  8
0
 10
138.33333333333334
 20
478.50000000000006
 30
0.0
 11
138.33333333333334
 21
483.50000000000006
 31
0.0
  0
LINE
 62
5
  8
0
 10
138.33333333333334
 20
483.50000000000006
 30
0.0
 11
142.66666666666669
 21
483.50000000000006
 31
0.0
  0
LINE
 62
5
  8
0
 10
113.50000000000001
 20
461.33333333333337
 30
0.0
 11
118.50000000000001
 21
461.33333333333337
 31
0.0
  0
LINE
 62
5
  8
0
 10
118.50000000000001
 20
461.33333333333337
 30
0.0
 11
118.50000000000001
 21
468.6666666666667
 31
0.0
  0
LINE
 62
5
  8
0
 10
118.50000000000001
 20
468.6666666666667
 30
0.0
 11
113.50000000000001
 21
468.6666666666667
 31
0.0
  0
LINE
 62
5
  8
0
 10
122.75000000000001
 20
426.41666666666674
 30
0.0
 11
122.75000000000001
 21
440.58333333333337
 31
0.0
  0
LINE
 62
5
  8
0
 10
122.75000000000001
 20
440.58333333333337
 30
0.0
 11
122.25000000000001
 21
440.58333333333337
 31
0.0
  0
LINE
 62
5
  8
0
 10
122.25000000000001
 20
440.58333333333337
 30
0.0
 11
122.25000000000001
 21
426.41666666666674
 31
0.0
  0
LINE
 62
5
  8
0
 10
122.25000000000001
 20
426.41666666666674
 30
0.0
 11
122.75000000000001
 21
426.41666666666674
 31
0.0
  0
LINE
 62
5
  8
0
 10
186.5
 20
440.33333333333337
 30
0.0
 11
186.5
 21
445.33333333333337
 31
0.0
  0
LINE
 62
5
  8
0
 10
186.5
 20
445.33333333333337
 30
0.0
 11
181.50000000000003
 21
440.33333333333337
 31
0.0
  0
LINE
 62
5
  8
0
 10
181.50000000000003
 20
440.33333333333337
 30
0.0
 11
181.50000000000003
 21
426.66666666666674
 31
0.0
  0
LINE
 62
5
  8
0
 10
181.50000000000003
 20
426.66666666666674
 30
0.0
 11
186.5
 21
421.66666666666674
 31
0.0
  0
LINE
 62
5
  8
0
 10
186.5
 20
421.66666666666674
 30
0.0
 11
186.5
 21
426.66666666666674
 31
0.0
  0
LINE
 62
5
  8
0
 10
134.5
 20
373.0
 30
0.0
 11
134.5
 21
368.00000000000006
 31
0.0
  0
LINE
 62
5
  8
0
 10
134.5
 20
368.00000000000006
 30
0.0
 11
139.50000000000003
 21
373.0
 31
0.0
  0
LINE
 62
5
  8
0
 10
139.50000000000003
 20
373.0
 30
0.0
 11
139.50000000000003
 21
393.00000000000006
 31
0.0
  0
LINE
 62
5
  8
0
 10
139.50000000000003
 20
393.00000000000006
 30
0.0
 11
134.5
 21
398.00000000000006
 31
0.0
  0
LINE
 62
5
  8
0
 10
134.5
 20
398.00000000000006
 30
0.0
 11
134.5
 21
393.00000000000006
 31
0.0
  0
LINE
 62
5
  8
0
 10
282.0
 20
383.00000000000006
 30
0.0
 11
282.0
 21
383.00000000000006
 31
0.0
  0
LINE
 62
5
  8
0
 10
282.0
 20
383.00000000000006
 30
0.0
 11
282.0
 21
383.00000000000006
 31
0.0
  0
LINE
 62
5
  8
0
 10
282.0
 20
383.00000000000006
 30
0.0
 11
282.0
 21
383.00000000000006
 31
0.0
  0
LINE
 62
5
  8
0
 10
282.0
 20
383.00000000000006
 30
0.0
 11
282.0
 21
383.00000000000006
 31
0.0
  0
LINE
 62
5
  8
0
 10
345.33333333333337
 20
383.00000000000006
 30
0.0
 11
345.0050224158704
 21
378.8284142655939
 31
0.0
  0
LINE
 62
5
  8
0
 10
345.0050224158704
 20
387.17158573440616
 30
0.0
 11
345.33333333333337
 21
383.00000000000006
 31
0.0
  0
LINE
 62
5
  8
0
 10
344.0281737678708
 20
391.2404531833319
 30
0.0
 11
345.0050224158704
 21
387.17158573440616
 31
0.0
  0
LINE
 62
5
  8
0
 10
342.4268406450232
 20
395.1064133263879
 30
0.0
 11
344.0281737678708
 21
391.2404531833319
 31
0.0
  0
LINE
 62
5
  8
0
 10
340.24045318333197
 20
398.674273394466
 30
0.0
 11
342.4268406450232
 21
395.1064133263879
 31
0.0
  0
LINE
 62
5
  8
0
 10
337.522847498308
 20
401.85618083164127
 30
0.0
 11
340.24045318333197
 21
398.674273394466
 31
0.0
  0
LINE
 62
5
  8
0
 10
334.3409400611327
 20
404.5737865166653
 30
0.0
 11
337.522847498308
 21
401.85618083164127
 31
0.0
  0
LINE
 62
5
  8
0
 10
330.7730799930546
 20
406.76017397835653
 30
0.0
 11
334.3409400611327
 21
404.5737865166653
 31
0.0
  0
LINE
 62
5
  8
0
 10
326.9071198499986
 20
408.36150710120415
 30
0.0
 11
330.7730799930546
 21
406.76017397835653
 31
0.0
  0
LINE
 62
5
  8
0
 10
322.83825240107285
 20
409.33835574920374
 30
0.0
 11
326.9071198499986
 21
408.36150710120415
 31
0.0
  0
LINE
 62
5
  8
0
 10
318.6666666666667
 20
409.6666666666667
 30
0.0
 11
322.83825240107285
 21
409.33835574920374
 31
0.0
  0
LINE
 62
5
  8
0
 10
314.4950809322606
 20
409.33835574920374
 30
0.0
 11
318.6666666666667
 21
409.6666666666667
 31
0.0
  0
LINE
 62
5
  8
0
 10
310.42621348333483
 20
408.36150710120415
 30
0.0
 11
314.4950809322606
 21
409.33835574920374
 31
0.0
  0
LINE
 62
5
  8
0
 10
306.5602533402788
 20
406.76017397835653
 30
0.0
 11
310.42621348333483
 21
408.36150710120415
 31
0.0
  0
LINE
 62
5
  8
0
 10
302.9923932722008
 20
404.5737865166653
 30
0.0
 11
306.5602533402788
 21
406.76017397835653
 31
0.0
  0
LINE
 62
5
  8
0
 10
299.8104858350255
 20
401.85618083164127
 30
0.0
 11
302.9923932722008
 21
404.5737865166653
 31
0.0
  0
LINE
 62
5
  8
0
 10
297.09288015000146
 20
398.674273394466
 30
0.0
 11
299.8104858350255
 21
401.85618083164127
 31
0.0
  0
LINE
 62
5
  8
0
 10
294.9064926883102
 20
395.1064133263879
 30
0.0
 11
297.09288015000146
 21
398.674273394466
 31
0.0
  0
LINE
 62
5
  8
0
 10
293.3051595654626
 20
391.2404531833319
 30
0.0
 11
294.9064926883102
 21
395.1064133263879
 31
0.0
  0
LINE
 62
5
  8
0
 10
292.328310917463
 20
387.17158573440616
 30
0.0
 11
293.3051595654626
 21
391.2404531833319
 31
0.0
  0
LINE
 62
5
  8
0
 10
292.0
 20
383.00000000000006
 30
0.0
 11
292.328310917463
 21
387.17158573440616
 31
0.0
  0
LINE
 62
5
  8
0
 10
292.328310917463
 20
378.8284142655939
 30
0.0
 11
292.0
 21
383.00000000000006
 31
0.0
  0
LINE
 62
5
  8
0
 10
293.3051595654626
 20
374.75954681666815
 30
0.0
 11
292.328310917463
 21
378.8284142655939
 31
0.0
  0
LINE
 62
5
  8
0
 10
294.9064926883102
 20
370.89358667361216
 30
0.0
 11
293.3051595654626
 21
374.75954681666815
 31
0.0
  0
LINE
 62
5
  8
0
 10
297.09288015000146
 20
367.3257266055341
 30
0.0
 11
294.9064926883102
 21
370.89358667361216
 31
0.0
  0
LINE
 62
5
  8
0
 10
299.8104858350255
 20
364.1438191683588
 30
0.0
 11
297.09288015000146
 21
367.3257266055341
 31
0.0
  0
LINE
 62
5
  8
0
 10
302.9923932722008
 20
361.4262134833348
 30
0.0
 11
299.8104858350255
 21
364.1438191683588
 31
0.0
  0
LINE
 62
5
  8
0
 10
306.5602533402788
 20
359.2398260216435
 30
0.0
 11
302.9923932722008
 21
361.4262134833348
 31
0.0
  0
LINE
 62
5
  8
0
 10
310.42621348333483
 20
357.63849289879596
 30
0.0
 11
306.5602533402788
 21
359.2398260216435
 31
0.0
  0
LINE
 62
5
  8
0
 10
314.4950809322606
 20
356.6616442507963
 30
0.0
 11
310.42621348333483
 21
357.63849289879596
 31
0.0
  0
LINE
 62
5
  8
0
 10
318.6666666666667
 20
356.33333333333337
 30
0.0
 11
314.4950809322606
 21
356.6616442507963
 31
0.0
  0
LINE
 62
5
  8
0
 10
322.83825240107285
 20
356.6616442507963
 30
0.0
 11
318.6666666666667
 21
356.33333333333337
 31
0.0
  0
LINE
 62
5
  8
0
 10
326.9071198499986
 20
357.63849289879596
 30
0.0
 11
322.83825240107285
 21
356.6616442507963
 31
0.0
  0
LINE
 62
5
  8
0
 10
330.7730799930546
 20
359.2398260216435
 30
0.0
 11
326.9071198499986
 21
357.63849289879596
 31
0.0
  0
LINE
 62
5
  8
0
 10
334.3409400611327
 20
361.4262134833348
 30
0.0
 11
330.7730799930546
 21
359.2398260216435
 31
0.0
  0
LINE
 62
5
  8
0
 10
337.522847498308
 20
364.1438191683588
 30
0.0
 11
334.3409400611327
 21
361.4262134833348
 31
0.0
  0
LINE
 62
5
  8
0
 10
340.24045318333197
 20
367.3257266055341
 30
0.0
 11
337.522847498308
 21
364.1438191683588
 31
0.0
  0
LINE
 62
5
  8
0
 10
342.4268406450232
 20
370.89358667361216
 30
0.0
 11
340.24045318333197
 21
367.3257266055341
 31
0.0
  0
LINE
 62
5
  8
0
 10
344.0281737678708
 20
374.7595468166681
 30
0.0
 11
342.4268406450232
 21
370.89358667361216
 31
0.0
  0
LINE
 62
5
  8
0
 10
345.0050224158704
 20
378.8284142655939
 30
0.0
 11
344.0281737678708
 21
374.7595468166681
 31
0.0
  0
LINE
 62
5
  8
0
 10
355.33333333333337
 20
383.00000000000006
 30
0.0
 11
355.33333333333337
 21
383.00000000000006
 31
0.0
  0
LINE
 62
5
  8
0
 10
355.33333333333337
 20
383.00000000000006
 30
0.0
 11
355.33333333333337
 21
383.00000000000006
 31
0.0
  0
LINE
 62
5
  8
0
 10
355.33333333333337
 20
383.00000000000006
 30
0.0
 11
355.33333333333337
 21
383.00000000000006
 31
0.0
  0
LINE
 62
5
  8
0
 10
355.33333333333337
 20
383.00000000000006
 30
0.0
 11
355.33333333333337
 21
383.00000000000006
 31
0.0
  0
LINE
 62
5
  8
0
 10
418.6666666666668
 20
383.00000000000006
 30
0.0
 11
418.3383557492038
 21
378.8284142655939
 31
0.0
  0
LINE
 62
5
  8
0
 10
418.3383557492038
 20
387.17158573440616
 30
0.0
 11
418.6666666666668
 21
383.00000000000006
 31
0.0
  0
LINE
 62
5
  8
0
 10
417.3615071012042
 20
391.2404531833319
 30
0.0
 11
418.3383557492038
 21
387.17158573440616
 31
0.0
  0
LINE
 62
5
  8
0
 10
415.7601739783566
 20
395.1064133263879
 30
0.0
 11
417.3615071012042
 21
391.2404531833319
 31
0.0
  0
LINE
 62
5
  8
0
 10
413.57378651666534
 20
398.674273394466
 30
0.0
 11
415.7601739783566
 21
395.1064133263879
 31
0.0
  0
LINE
 62
5
  8
0
 10
410.8561808316413
 20
401.85618083164127
 30
0.0
 11
413.57378651666534
 21
398.674273394466
 31
0.0
  0
LINE
 62
5
  8
0
 10
407.67427339446607
 20
404.5737865166653
 30
0.0
 11
410.8561808316413
 21
401.85618083164127
 31
0.0
  0
LINE
 62
5
  8
0
 10
404.106413326388
 20
406.76017397835653
 30
0.0
 11
407.67427339446607
 21
404.5737865166653
 31
0.0
  0
LINE
 62
5
  8
0
 10
400.24045318333197
 20
408.36150710120415
 30
0.0
 11
404.106413326388
 21
406.76017397835653
 31
0.0
  0
LINE
 62
5
  8
0
 10
396.1715857344062
 20
409.33835574920374
 30
0.0
 11
400.24045318333197
 21
408.36150710120415
 31
0.0
  0
LINE
 62
5
  8
0
 10
392.0000000000001
 20
409.6666666666667
 30
0.0
 11
396.1715857344062
 21
409.33835574920374
 31
0.0
  0
LINE
 62
5
  8
0
 10
387.82841426559395
 20
409.33835574920374
 30
0.0
 11
392.0000000000001
 21
409.6666666666667
 31
0.0
  0
LINE
 62
5
  8
0
 10
383.7595468166682
 20
408.36150710120415
 30
0.0
 11
387.82841426559395
 21
409.33835574920374
 31
0.0
  0
LINE
 62
5
  8
0
 10
379.8935866736122
 20
406.76017397835653
 30
0.0
 11
383.7595468166682
 21
408.36150710120415
 31
0.0
  0
LINE
 62
5
  8
0
 10
376.32572660553416
 20
404.5737865166653
 30
0.0
 11
379.8935866736122
 21
406.76017397835653
 31
0.0
  0
LINE
 62
5
  8
0
 10
373.14381916835885
 20
401.85618083164127
 30
0.0
 11
376.32572660553416
 21
404.5737865166653
 31
0.0
  0
LINE
 62
5
  8
0
 10
370.42621348333483
 20
398.674273394466
 30
0.0
 11
373.14381916835885
 21
401.85618083164127
 31
0.0
  0
LINE
 62
5
  8
0
 10
368.2398260216436
 20
395.1064133263879
 30
0.0
 11
370.42621348333483
 21
398.674273394466
 31
0.0
  0
LINE
 62
5
  8
0
 10
366.638492898796
 20
391.2404531833319
 30
0.0
 11
368.2398260216436
 21
395.1064133263879
 31
0.0
  0
LINE
 62
5
  8
0
 10
365.66164425079637
 20
387.17158573440616
 30
0.0
 11
366.638492898796
 21
391.2404531833319
 31
0.0
  0
LINE
 62
5
  8
0
 10
365.3333333333334
 20
383.00000000000006
 30
0.0
 11
365.66164425079637
 21
387.17158573440616
 31
0.0
  0
LINE
 62
5
  8
0
 10
365.66164425079637
 20
378.8284142655939
 30
0.0
 11
365.3333333333334
 21
383.00000000000006
 31
0.0
  0
LINE
 62
5
  8
0
 10
366.638492898796
 20
374.75954681666815
 30
0.0
 11
365.66164425079637
 21
378.8284142655939
 31
0.0
  0
LINE
 62
5
  8
0
 10
368.2398260216436
 20
370.89358667361216
 30
0.0
 11
366.638492898796
 21
374.75954681666815
 31
0.0
  0
LINE
 62
5
  8
0
 10
370.42621348333483
 20
367.3257266055341
 30
0.0
 11
368.2398260216436
 21
370.89358667361216
 31
0.0
  0
LINE
 62
5
  8
0
 10
373.14381916835885
 20
364.1438191683588
 30
0.0
 11
370.42621348333483
 21
367.3257266055341
 31
0.0
  0
LINE
 62
5
  8
0
 10
376.32572660553416
 20
361.4262134833348
 30
0.0
 11
373.14381916835885
 21
364.1438191683588
 31
0.0
  0
LINE
 62
5
  8
0
 10
379.8935866736122
 20
359.2398260216435
 30
0.0
 11
376.32572660553416
 21
361.4262134833348
 31
0.0
  0
LINE
 62
5
  8
0
 10
383.7595468166682
 20
357.63849289879596
 30
0.0
 11
379.8935866736122
 21
359.2398260216435
 31
0.0
  0
LINE
 62
5
  8
0
 10
387.82841426559395
 20
356.6616442507963
 30
0.0
 11
383.7595468166682
 21
357.63849289879596
 31
0.0
  0
LINE
 62
5
  8
0
 10
392.0000000000001
 20
356.33333333333337
 30
0.0
 11
387.82841426559395
 21
356.6616442507963
 31
0.0
  0
LINE
 62
5
  8
0
 10
396.1715857344062
 20
356.6616442507963
 30
0.0
 11
392.0000000000001
 21
356.33333333333337
 31
0.0
  0
LINE
 62
5
  8
0
 10
400.24045318333197
 20
357.63849289879596
 30
0.0
 11
396.1715857344062
 21
356.6616442507963
 31
0.0
  0
LINE
 62
5
  8
0
 10
404.106413326388
 20
359.2398260216435
 30
0.0
 11
400.24045318333197
 21
357.63849289879596
 31
0.0
  0
LINE
 62
5
  8
0
 10
407.67427339446607
 20
361.4262134833348
 30
0.0
 11
404.106413326388
 21
359.2398260216435
 31
0.0
  0
LINE
 62
5
  8
0
 10
410.8561808316413
 20
364.1438191683588
 30
0.0
 11
407.67427339446607
 21
361.4262134833348
 31
0.0
  0
LINE
 62
5
  8
0
 10
413.57378651666534
 20
367.3257266055341
 30
0.0
 11
410.8561808316413
 21
364.1438191683588
 31
0.0
  0
LINE
 62
5
  8
0
 10
415.7601739783566
 20
370.89358667361216
 30
0.0
 11
413.57378651666534
 21
367.3257266055341
 31
0.0
  0
LINE
 62
5
  8
0
 10
417.3615071012042
 20
374.7595468166681
 30
0.0
 11
415.7601739783566
 21
370.89358667361216
 31
0.0
  0
LINE
 62
5
  8
0
 10
418.3383557492038
 20
378.8284142655939
 30
0.0
 11
417.3615071012042
 21
374.7595468166681
 31
0.0
  0
LINE
 62
5
  8
0
 10
428.6666666666668
 20
383.00000000000006
 30
0.0
 11
428.6666666666668
 21
383.00000000000006
 31
0.0
  0
LINE
 62
5
  8
0
 10
428.6666666666668
 20
383.00000000000006
 30
0.0
 11
428.6666666666668
 21
383.00000000000006
 31
0.0
  0
LINE
 62
5
  8
0
 10
428.6666666666668
 20
383.00000000000006
 30
0.0
 11
428.6666666666668
 21
383.00000000000006
 31
0.0
  0
LINE
 62
5
  8
0
 10
428.6666666666668
 20
383.00000000000006
 30
0.0
 11
428.6666666666668
 21
383.00000000000006
 31
0.0
  0
LINE
 62
5
  8
0
 10
492.00000000000017
 20
383.00000000000006
 30
0.0
 11
491.67168908253717
 21
378.8284142655939
 31
0.0
  0
LINE
 62
5
  8
0
 10
491.67168908253717
 20
387.17158573440616
 30
0.0
 11
492.00000000000017
 21
383.00000000000006
 31
0.0
  0
LINE
 62
5
  8
0
 10
490.6948404345376
 20
391.2404531833319
 30
0.0
 11
491.67168908253717
 21
387.17158573440616
 31
0.0
  0
LINE
 62
5
  8
0
 10
489.09350731168996
 20
395.1064133263879
 30
0.0
 11
490.6948404345376
 21
391.2404531833319
 31
0.0
  0
LINE
 62
5
  8
0
 10
486.90711984999876
 20
398.674273394466
 30
0.0
 11
489.09350731168996
 21
395.1064133263879
 31
0.0
  0
LINE
 62
5
  8
0
 10
484.18951416497475
 20
401.85618083164127
 30
0.0
 11
486.90711984999876
 21
398.674273394466
 31
0.0
  0
LINE
 62
5
  8
0
 10
481.00760672779944
 20
404.5737865166653
 30
0.0
 11
484.18951416497475
 21
401.85618083164127
 31
0.0
  0
LINE
 62
5
  8
0
 10
477.4397466597214
 20
406.76017397835653
 30
0.0
 11
481.00760672779944
 21
404.5737865166653
 31
0.0
  0
LINE
 62
5
  8
0
 10
473.5737865166654
 20
408.36150710120415
 30
0.0
 11
477.4397466597214
 21
406.76017397835653
 31
0.0
  0
LINE
 62
5
  8
0
 10
469.50491906773965
 20
409.33835574920374
 30
0.0
 11
473.5737865166654
 21
408.36150710120415
 31
0.0
  0
LINE
 62
5
  8
0
 10
465.3333333333335
 20
409.6666666666667
 30
0.0
 11
469.50491906773965
 21
409.33835574920374
 31
0.0
  0
LINE
 62
5
  8
0
 10
461.1617475989273
 20
409.33835574920374
 30
0.0
 11
465.3333333333335
 21
409.6666666666667
 31
0.0
  0
LINE
 62
5
  8
0
 10
457.0928801500016
 20
408.36150710120415
 30
0.0
 11
461.1617475989273
 21
409.33835574920374
 31
0.0
  0
LINE
 62
5
  8
0
 10
453.2269200069456
 20
406.76017397835653
 30
0.0
 11
457.0928801500016
 21
408.36150710120415
 31
0.0
  0
LINE
 62
5
  8
0
 10
449.65905993886753
 20
404.5737865166653
 30
0.0
 11
453.2269200069456
 21
406.76017397835653
 31
0.0
  0
LINE
 62
5
  8
0
 10
446.4771525016922
 20
401.85618083164127
 30
0.0
 11
449.65905993886753
 21
404.5737865166653
 31
0.0
  0
LINE
 62
5
  8
0
 10
443.7595468166682
 20
398.674273394466
 30
0.0
 11
446.4771525016922
 21
401.85618083164127
 31
0.0
  0
LINE
 62
5
  8
0
 10
441.573159354977
 20
395.1064133263879
 30
0.0
 11
443.7595468166682
 21
398.674273394466
 31
0.0
  0
LINE
 62
5
  8
0
 10
439.9718262321294
 20
391.2404531833319
 30
0.0
 11
441.573159354977
 21
395.1064133263879
 31
0.0
  0
LINE
 62
5
  8
0
 10
438.9949775841298
 20
387.17158573440616
 30
0.0
 11
439.9718262321294
 21
391.2404531833319
 31
0.0
  0
LINE
 62
5
  8
0
 10
438.6666666666668
 20
383.00000000000006
 30
0.0
 11
438.9949775841298
 21
387.17158573440616
 31
0.0
  0
LINE
 62
5
  8
0
 10
438.9949775841298
 20
378.8284142655939
 30
0.0
 11
438.6666666666668
 21
383.00000000000006
 31
0.0
  0
LINE
 62
5
  8
0
 10
439.9718262321294
 20
374.75954681666815
 30
0.0
 11
438.9949775841298
 21
378.8284142655939
 31
0.0
  0
LINE
 62
5
  8
0
 10
441.573159354977
 20
370.89358667361216
 30
0.0
 11
439.9718262321294
 21
374.75954681666815
 31
0.0
  0
LINE
 62
5
  8
0
 10
443.7595468166682
 20
367.3257266055341
 30
0.0
 11
441.573159354977
 21
370.89358667361216
 31
0.0
  0
LINE
 62
5
  8
0
 10
446.4771525016922
 20
364.1438191683588
 30
0.0
 11
443.7595468166682
 21
367.3257266055341
 31
0.0
  0
LINE
 62
5
  8
0
 10
449.65905993886753
 20
361.4262134833348
 30
0.0
 11
446.4771525016922
 21
364.1438191683588
 31
0.0
  0
LINE
 62
5
  8
0
 10
453.2269200069456
 20
359.2398260216435
 30
0.0
 11
449.65905993886753
 21
361.4262134833348
 31
0.0
  0
LINE
 62
5
  8
0
 10
457.0928801500016
 20
357.63849289879596
 30
0.0
 11
453.2269200069456
 21
359.2398260216435
 31
0.0
  0
LINE
 62
5
  8
0
 10
461.1617475989273
 20
356.6616442507963
 30
0.0
 11
457.0928801500016
 21
357.63849289879596
 31
0.0
  0
LINE
 62
5
  8
0
 10
465.3333333333335
 20
356.33333333333337
 30
0.0
 11
461.1617475989273
 21
356.6616442507963
 31
0.0
  0
LINE
 62
5
  8
0
 10
469.50491906773965
 20
356.6616442507963
 30
0.0
 11
465.3333333333335
 21
356.33333333333337
 31
0.0
  0
LINE
 62
5
  8
0
 10
473.5737865166654
 20
357.63849289879596
 30
0.0
 11
469.50491906773965
 21
356.6616442507963
 31
0.0
  0
LINE
 62
5
  8
0
 10
477.4397466597214
 20
359.2398260216435
 30
0.0
 11
473.5737865166654
 21
357.63849289879596
 31
0.0
  0
LINE
 62
5
  8
0
 10
481.00760672779944
 20
361.4262134833348
 30
0.0
 11
477.4397466597214
 21
359.2398260216435
 31
0.0
  0
LINE
 62
5
  8
0
 10
484.18951416497475
 20
364.1438191683588
 30
0.0
 11
481.00760672779944
 21
361.4262134833348
 31
0.0
  0
LINE
 62
5
  8
0
 10
486.90711984999876
 20
367.3257266055341
 30
0.0
 11
484.18951416497475
 21
364.1438191683588
 31
0.0
  0
LINE
 62
5
  8
0
 10
489.09350731168996
 20
370.89358667361216
 30
0.0
 11
486.90711984999876
 21
367.3257266055341
 31
0.0
  0
LINE
 62
5
  8
0
 10
490.6948404345376
 20
374.7595468166681
 30
0.0
 11
489.09350731168996
 21
370.89358667361216
 31
0.0
  0
LINE
 62
5
  8
0
 10
491.67168908253717
 20
378.8284142655939
 30
0.0
 11
490.6948404345376
 21
374.7595468166681
 31
0.0
  0
LINE
 62
5
  8
0
 10
502.00000000000017
 20
383.00000000000006
 30
0.0
 11
502.00000000000017
 21
383.00000000000006
 31
0.0
  0
LINE
 62
5
  8
0
 10
502.00000000000017
 20
383.00000000000006
 30
0.0
 11
502.00000000000017
 21
383.00000000000006
 31
0.0
  0
LINE
 62
5
  8
0
 10
502.00000000000017
 20
383.00000000000006
 30
0.0
 11
502.00000000000017
 21
383.00000000000006
 31
0.0
  0
LINE
 62
5
  8
0
 10
502.00000000000017
 20
383.00000000000006
 30
0.0
 11
502.00000000000017
 21
383.00000000000006
 31
0.0
  0
LINE
 62
5
  8
0
 10
565.3333333333334
 20
383.00000000000006
 30
0.0
 11
565.0050224158704
 21
378.8284142655939
 31
0.0
  0
LINE
 62
5
  8
0
 10
565.0050224158704
 20
387.17158573440616
 30
0.0
 11
565.3333333333334
 21
383.00000000000006
 31
0.0
  0
LINE
 62
5
  8
0
 10
564.0281737678708
 20
391.2404531833319
 30
0.0
 11
565.0050224158704
 21
387.17158573440616
 31
0.0
  0
LINE
 62
5
  8
0
 10
562.4268406450233
 20
395.1064133263879
 30
0.0
 11
564.0281737678708
 21
391.2404531833319
 31
0.0
  0
LINE
 62
5
  8
0
 10
560.2404531833321
 20
398.674273394466
 30
0.0
 11
562.4268406450233
 21
395.1064133263879
 31
0.0
  0
LINE
 62
5
  8
0
 10
557.5228474983081
 20
401.85618083164127
 30
0.0
 11
560.2404531833321
 21
398.674273394466
 31
0.0
  0
LINE
 62
5
  8
0
 10
554.3409400611328
 20
404.5737865166653
 30
0.0
 11
557.5228474983081
 21
401.85618083164127
 31
0.0
  0
LINE
 62
5
  8
0
 10
550.7730799930548
 20
406.76017397835653
 30
0.0
 11
554.3409400611328
 21
404.5737865166653
 31
0.0
  0
LINE
 62
5
  8
0
 10
546.9071198499987
 20
408.36150710120415
 30
0.0
 11
550.7730799930548
 21
406.76017397835653
 31
0.0
  0
LINE
 62
5
  8
0
 10
542.838252401073
 20
409.33835574920374
 30
0.0
 11
546.9071198499987
 21
408.36150710120415
 31
0.0
  0
LINE
 62
5
  8
0
 10
538.6666666666669
 20
409.6666666666667
 30
0.0
 11
542.838252401073
 21
409.33835574920374
 31
0.0
  0
LINE
 62
5
  8
0
 10
534.4950809322607
 20
409.33835574920374
 30
0.0
 11
538.6666666666669
 21
409.6666666666667
 31
0.0
  0
LINE
 62
5
  8
0
 10
530.4262134833349
 20
408.36150710120415
 30
0.0
 11
534.4950809322607
 21
409.33835574920374
 31
0.0
  0
LINE
 62
5
  8
0
 10
526.5602533402789
 20
406.76017397835653
 30
0.0
 11
530.4262134833349
 21
408.36150710120415
 31
0.0
  0
LINE
 62
5
  8
0
 10
522.992393272201
 20
404.5737865166653
 30
0.0
 11
526.5602533402789
 21
406.76017397835653
 31
0.0
  0
LINE
 62
5
  8
0
 10
519.8104858350256
 20
401.85618083164127
 30
0.0
 11
522.992393272201
 21
404.5737865166653
 31
0.0
  0
LINE
 62
5
  8
0
 10
517.0928801500016
 20
398.674273394466
 30
0.0
 11
519.8104858350256
 21
401.85618083164127
 31
0.0
  0
LINE
 62
5
  8
0
 10
514.9064926883103
 20
395.1064133263879
 30
0.0
 11
517.0928801500016
 21
398.674273394466
 31
0.0
  0
LINE
 62
5
  8
0
 10
513.3051595654628
 20
391.2404531833319
 30
0.0
 11
514.9064926883103
 21
395.1064133263879
 31
0.0
  0
LINE
 62
5
  8
0
 10
512.3283109174631
 20
387.17158573440616
 30
0.0
 11
513.3051595654628
 21
391.2404531833319
 31
0.0
  0
LINE
 62
5
  8
0
 10
512.0000000000002
 20
383.00000000000006
 30
0.0
 11
512.3283109174631
 21
387.17158573440616
 31
0.0
  0
LINE
 62
5
  8
0
 10
512.3283109174631
 20
378.8284142655939
 30
0.0
 11
512.0000000000002
 21
383.00000000000006
 31
0.0
  0
LINE
 62
5
  8
0
 10
513.3051595654628
 20
374.75954681666815
 30
0.0
 11
512.3283109174631
 21
378.8284142655939
 31
0.0
  0
LINE
 62
5
  8
0
 10
514.9064926883102
 20
370.89358667361216
 30
0.0
 11
513.3051595654628
 21
374.75954681666815
 31
0.0
  0
LINE
 62
5
  8
0
 10
517.0928801500016
 20
367.3257266055341
 30
0.0
 11
514.9064926883102
 21
370.89358667361216
 31
0.0
  0
LINE
 62
5
  8
0
 10
519.8104858350256
 20
364.1438191683588
 30
0.0
 11
517.0928801500016
 21
367.3257266055341
 31
0.0
  0
LINE
 62
5
  8
0
 10
522.992393272201
 20
361.4262134833348
 30
0.0
 11
519.8104858350256
 21
364.1438191683588
 31
0.0
  0
LINE
 62
5
  8
0
 10
526.5602533402789
 20
359.2398260216435
 30
0.0
 11
522.992393272201
 21
361.4262134833348
 31
0.0
  0
LINE
 62
5
  8
0
 10
530.4262134833349
 20
357.63849289879596
 30
0.0
 11
526.5602533402789
 21
359.2398260216435
 31
0.0
  0
LINE
 62
5
  8
0
 10
534.4950809322607
 20
356.6616442507963
 30
0.0
 11
530.4262134833349
 21
357.63849289879596
 31
0.0
  0
LINE
 62
5
  8
0
 10
538.6666666666669
 20
356.33333333333337
 30
0.0
 11
534.4950809322607
 21
356.6616442507963
 31
0.0
  0
LINE
 62
5
  8
0
 10
542.838252401073
 20
356.6616442507963
 30
0.0
 11
538.6666666666669
 21
356.33333333333337
 31
0.0
  0
LINE
 62
5
  8
0
 10
546.9071198499987
 20
357.63849289879596
 30
0.0
 11
542.838252401073
 21
356.6616442507963
 31
0.0
  0
LINE
 62
5
  8
0
 10
550.7730799930548
 20
359.2398260216435
 30
0.0
 11
546.9071198499987
 21
357.63849289879596
 31
0.0
  0
LINE
 62
5
  8
0
 10
554.3409400611328
 20
361.4262134833348
 30
0.0
 11
550.7730799930548
 21
359.2398260216435
 31
0.0
  0
LINE
 62
5
  8
0
 10
557.5228474983081
 20
364.1438191683588
 30
0.0
 11
554.3409400611328
 21
361.4262134833348
 31
0.0
  0
LINE
 62
5
  8
0
 10
560.2404531833321
 20
367.3257266055341
 30
0.0
 11
557.5228474983081
 21
364.1438191683588
 31
0.0
  0
LINE
 62
5
  8
0
 10
562.4268406450232
 20
370.89358667361216
 30
0.0
 11
560.2404531833321
 21
367.3257266055341
 31
0.0
  0
LINE
 62
5
  8
0
 10
564.0281737678708
 20
374.7595468166681
 30
0.0
 11
562.4268406450232
 21
370.89358667361216
 31
0.0
  0
LINE
 62
5
  8
0
 10
565.0050224158704
 20
378.8284142655939
 30
0.0
 11
564.0281737678708
 21
374.7595468166681
 31
0.0
  0
ENDSEC
  0
EOF
